<?xml version="1.0" standalone="no"?><!DOCTYPE svg PUBLIC "-//W3C//DTD SVG 1.1//EN" "http://www.w3.org/Graphics/SVG/1.1/DTD/svg11.dtd" ><svg xmlns="http://www.w3.org/2000/svg"><metadata></metadata><defs><font id="fonteditor" horiz-adv-x="1000"><font-face font-family="zÙwØzïÑ" font-weight="400" font-stretch="normal" units-per-em="1000" panose-1="2 1 6 0 3 1 1 1 1 1" ascent="859" descent="-141" x-height="1" bbox="38 -108 961 701" underline-thickness="46" underline-position="-85" unicode-range="U+0028-9f84" /><missing-glyph horiz-adv-x="1000"  /><glyph glyph-name="parenleft" unicode="(" d="M412 697 Q389 669 367 642 Q345 615 330 588 Q294 527 275 467 Q247 378 267 285 Q273 252 287 218 Q301 184 321 150 Q358 87 419 23 L179 23 Q143 58 117 102 Q91 146 74 199 Q40 302 47 392 Q51 430 62.5 469.5 Q74 509 91 550 Q123 625 177 697 L412 697 Z" /><glyph glyph-name="parenright" unicode=")" d="M410 392 Q421 300 385 199 Q367 146 340.5 102 Q314 58 278 23 L40 23 Q70 56 94.5 88 Q119 120 136 150 Q157 185 171.5 218.5 Q186 252 192 285 Q211 376 182 467 Q172 496 159.5 527 Q147 558 128 588 Q95 640 47 697 L280 697 Q308 662 328.5 625 Q349 588 366 550 Q401 470 410 392 Z" /><glyph glyph-name="zero" unicode="0" d="M626 46 L40 46 L40 619 L626 619 L626 46 ZM238 123 L426 123 L426 544 L238 544 L238 123 Z" /><glyph glyph-name="two" unicode="2" d="M600 621 L600 449 L293 121 L644 121 L600 46 L40 46 L40 107 L405 488 L405 546 L47 546 L47 621 L600 621 Z" /><glyph glyph-name="three" unicode="3" d="M424 374 L424 547 L47 547 L47 621 L617 621 L617 379 L522 342 L628 283 L628 46 L40 46 L40 119 L424 119 L424 298 L75 298 L75 374 L424 374 Z" /><glyph glyph-name="four" unicode="4" d="M627 147 L569 147 L569 46 L382 46 L382 147 L40 147 L40 221 L403 619 L569 619 L569 221 L680 221 L627 147 ZM155 221 L382 221 L382 470 L155 221 Z" /><glyph glyph-name="E" unicode="e" d="M675 120 L631 45 L40 45 L40 620 L673 620 L628 545 L242 545 L242 377 L656 377 L612 301 L242 301 L242 120 L675 120 Z" /><glyph glyph-name="I" unicode="i" d="M235 45 L40 45 L40 620 L235 620 L235 45 Z" /><glyph glyph-name="T" unicode="t" d="M496 45 L296 45 L296 543 L40 543 L40 620 L770 620 L726 543 L496 543 L496 45 Z" /><glyph glyph-name="e" unicode="e" d="M605 200 L233 200 L233 116 L628 116 L587 46 L40 46 L40 450 L412 450 L352 376 L233 376 L233 274 L412 274 L412 450 L605 450 L605 200 Z" /><glyph glyph-name="n" unicode="n" d="M612 48 L421 48 L421 451 L612 451 L612 48 ZM233 379 L233 48 L40 48 L40 451 L421 451 L354 379 L233 379 Z" /><glyph glyph-name="p" unicode="p" d="M229 119 L413 119 L413 449 L605 449 L605 46 L229 46 L229 -108 L40 -108 L40 449 L413 449 L352 377 L229 377 L229 119 Z" /><glyph glyph-name="r" unicode="r" d="M235 46 L40 46 L40 449 L489 449 L447 377 L235 377 L235 46 Z" /><glyph glyph-name="t" unicode="t" d="M143 449 L143 581 L336 581 L336 449 L512 449 L463 377 L336 377 L336 116 L503 116 L461 46 L143 46 L143 377 L40 377 L40 449 L143 449 Z" /><glyph glyph-name="u" unicode="u" d="M230 119 L416 119 L370 46 L40 46 L40 449 L230 449 L230 119 ZM609 46 L416 46 L416 449 L609 449 L609 46 Z" /><glyph glyph-name="uni300A" unicode="&#x300a;" d="M757 701 L503 359 L762 20 L654 20 L394 359 L650 701 L757 701 ZM348 359 L608 20 L499 20 L238 359 L494 701 L603 701 L348 359 Z" /><glyph glyph-name="uni300B" unicode="&#x300b;" d="M500 20 L391 20 L651 359 L398 701 L505 701 L763 359 L500 20 ZM607 359 L346 20 L237 20 L497 359 L242 701 L351 701 L607 359 Z" /><glyph glyph-name="uni4E00" unicode="&#x4e00;" d="M916 401 L890 327 L83 327 L83 401 L916 401 Z" /><glyph glyph-name="uni4E0A" unicode="&#x4e0a;" d="M887 472 L861 426 L452 426 L452 98 L912 98 L885 53 L88 53 L88 98 L328 98 L328 667 L452 667 L452 472 L887 472 Z" /><glyph glyph-name="uni4E1A" unicode="&#x4e1a;" d="M423 653 L423 115 L566 115 L566 653 L691 653 L691 292 L786 547 L907 547 L791 240 L691 240 L691 115 L909 115 L883 67 L99 67 L99 115 L298 115 L298 240 L206 240 L90 547 L211 547 L298 311 L298 653 L423 653 Z" /><glyph glyph-name="uni4E2A" unicode="&#x4e2a;" d="M439 474 L565 474 L565 53 L439 53 L439 474 ZM269 668 L596 668 L565 621 L369 621 L199 367 L67 367 L269 668 ZM731 668 L933 367 L797 367 L596 668 L731 668 Z" /><glyph glyph-name="uni4E2D" unicode="&#x4e2d;" d="M898 233 L559 233 L559 53 L440 53 L440 233 L102 233 L102 566 L440 566 L440 667 L559 667 L559 566 L784 566 L756 519 L559 519 L559 280 L784 280 L784 566 L898 566 L898 233 ZM440 519 L216 519 L216 280 L440 280 L440 519 Z" /><glyph glyph-name="uni4E50" unicode="&#x4e50;" d="M854 297 L547 297 L547 53 L354 53 L327 100 L433 100 L433 297 L135 297 L135 668 L828 668 L802 621 L547 621 L547 345 L881 345 L854 297 ZM433 345 L433 621 L249 621 L249 345 L433 345 ZM202 266 L342 266 L260 53 L119 53 L202 266 ZM626 265 L766 265 L852 53 L712 53 L626 265 Z" /><glyph glyph-name="uni4E8B" unicode="&#x4e8b;" d="M869 267 L923 267 L898 218 L869 218 L869 133 L558 133 L558 53 L395 53 L371 98 L441 98 L441 133 L137 133 L111 182 L441 182 L441 218 L76 218 L76 267 L441 267 L441 305 L137 305 L111 352 L441 352 L441 385 L110 385 L110 530 L441 530 L441 562 L76 562 L76 611 L441 611 L441 667 L558 667 L558 611 L923 611 L898 562 L558 562 L558 530 L869 530 L869 385 L558 385 L558 352 L869 352 L869 267 ZM441 431 L441 485 L222 485 L222 431 L441 431 ZM558 485 L558 431 L758 431 L758 518 L721 485 L558 485 ZM558 267 L753 267 L753 305 L558 305 L558 267 ZM753 218 L558 218 L558 182 L753 182 L753 218 Z" /><glyph glyph-name="uni4EAB" unicode="&#x4eab;" d="M701 52 L241 52 L216 96 L587 96 L587 197 L76 197 L76 241 L587 241 L587 263 L667 317 L161 317 L161 366 L853 366 L701 263 L701 241 L923 241 L893 197 L701 197 L701 52 ZM136 573 L756 573 L732 529 L250 529 L250 440 L756 440 L756 573 L870 573 L870 396 L136 396 L136 573 ZM893 593 L76 593 L76 637 L442 637 L442 669 L556 669 L556 637 L923 637 L893 593 Z" /><glyph glyph-name="uni4EB2" unicode="&#x4eb2;" d="M293 544 L348 462 L657 462 L712 544 L833 544 L778 462 L908 462 L882 414 L573 414 L573 318 L888 318 L862 271 L573 271 L573 61 L375 61 L350 107 L435 107 L435 271 L112 271 L112 318 L435 318 L435 414 L92 414 L92 462 L227 462 L172 544 L293 544 ZM447 660 L566 660 L566 612 L873 612 L840 567 L132 567 L132 612 L447 612 L447 660 ZM752 78 L658 217 L779 217 L873 78 L752 78 ZM118 78 L212 217 L333 217 L239 78 L118 78 Z" /><glyph glyph-name="uni4EBA" unicode="&#x4eba;" d="M442 452 L442 668 L558 668 L558 452 L557 451 L903 53 L787 53 L499 384 L211 53 L96 53 L442 452 Z" /><glyph glyph-name="uni4ECE" unicode="&#x4ece;" d="M780 61 L670 382 L588 62 L456 62 L476 142 L366 142 L296 340 L225 62 L92 62 L245 659 L377 659 L302 365 L415 365 L484 171 L608 659 L741 659 L675 403 L791 403 L908 61 L780 61 Z" /><glyph glyph-name="uni4EE4" unicode="&#x4ee4;" d="M116 386 L888 386 L888 336 L566 109 L638 53 L457 53 L169 275 L349 275 L464 187 L676 336 L116 336 L116 386 ZM223 412 L61 412 L298 668 L703 668 L939 412 L777 412 L574 618 L426 618 L223 412 ZM399 542 L525 542 L582 406 L456 406 L399 542 Z" /><glyph glyph-name="uni4EEC" unicode="&#x4eec;" d="M313 668 L208 451 L255 451 L255 53 L139 53 L139 404 L62 404 L194 668 L313 668 ZM823 645 L937 645 L937 55 L685 55 L670 99 L823 99 L823 645 ZM474 53 L338 53 L338 501 L474 501 L474 53 ZM492 526 L367 526 L341 663 L466 663 L492 526 ZM823 645 L797 597 L511 597 L511 645 L823 645 Z" /><glyph glyph-name="uni4F1A" unicode="&#x4f1a;" d="M488 674 L925 507 L925 437 L488 598 L74 434 L74 502 L488 674 ZM909 316 L876 272 L388 272 L255 91 L725 91 L620 214 L769 214 L914 46 L86 46 L251 272 L93 272 L93 316 L909 316 ZM734 419 L255 419 L255 463 L756 463 L734 419 Z" /><glyph glyph-name="uni4F53" unicode="&#x4f53;" d="M294 100 L432 530 L328 530 L328 578 L552 578 L552 668 L666 668 L666 578 L927 578 L900 530 L666 530 L666 159 L782 159 L756 112 L666 112 L666 54 L552 54 L552 112 L444 112 L444 159 L552 159 L552 527 L410 100 L294 100 ZM248 500 L284 500 L284 52 L169 52 L169 400 L72 400 L207 669 L332 669 L248 500 ZM810 100 L674 489 L795 489 L926 100 L810 100 Z" /><glyph glyph-name="uni4F5C" unicode="&#x4f5c;" d="M901 436 L875 388 L626 388 L626 260 L900 260 L874 213 L626 213 L626 58 L494 58 L494 474 L461 409 L317 409 L445 662 L588 662 L553 593 L922 593 L895 546 L626 546 L626 436 L901 436 ZM296 499 L296 61 L166 61 L166 443 L78 443 L194 659 L317 659 L238 499 L296 499 Z" /><glyph glyph-name="uni513F" unicode="&#x513f;" d="M892 64 L516 64 L516 660 L631 660 L631 112 L923 112 L892 64 ZM198 61 L76 61 L242 333 L242 660 L358 660 L358 328 L198 61 Z" /><glyph glyph-name="uni514D" unicode="&#x514d;" d="M657 111 L892 111 L865 63 L543 63 L543 240 L498 240 L262 63 L112 63 L350 240 L108 240 L108 519 L592 519 L672 588 L275 588 L254 566 L130 566 L216 657 L339 657 L318 635 L850 635 L717 519 L753 519 L727 472 L540 472 L540 284 L753 284 L753 519 L867 519 L867 240 L657 240 L657 111 ZM222 284 L426 284 L426 472 L222 472 L222 284 Z" /><glyph glyph-name="uni5168" unicode="&#x5168;" d="M885 294 L853 248 L559 248 L559 98 L885 98 L853 52 L113 52 L113 98 L444 98 L444 248 L113 248 L113 294 L444 294 L444 428 L138 428 L138 457 L80 457 L218 668 L782 668 L919 457 L849 457 L832 428 L559 428 L559 294 L885 294 ZM207 474 L792 474 L698 619 L302 619 L207 474 Z" /><glyph glyph-name="uni516D" unicode="&#x516d;" d="M893 429 L80 429 L80 477 L919 477 L893 429 ZM447 516 L411 668 L529 668 L566 516 L447 516 ZM278 389 L403 389 L212 53 L85 53 L278 389 ZM741 389 L916 54 L790 54 L615 389 L741 389 Z" /><glyph glyph-name="uni51AC" unicode="&#x51ac;" d="M961 336 L961 253 L489 368 L337 323 L819 266 L819 191 L277 245 L298 311 L38 235 L38 319 L339 404 L209 436 L241 516 L502 450 L755 522 L755 615 L251 615 L205 498 L84 498 L156 680 L277 680 L270 662 L869 662 L869 480 L647 414 L961 336 ZM883 117 L883 41 L177 93 L203 175 L883 117 Z" /><glyph glyph-name="uni521B" unicode="&#x521b;" d="M365 231 L435 231 L435 418 L483 418 L407 591 L274 591 L193 418 L435 418 L409 370 L240 370 L240 100 L555 100 L541 52 L126 52 L126 418 L65 418 L182 666 L310 666 L296 638 L515 638 L610 417 L549 414 L549 183 L392 183 L365 231 ZM818 669 L934 669 L934 55 L770 55 L748 101 L818 101 L818 669 ZM758 181 L642 181 L642 567 L758 567 L758 181 Z" /><glyph glyph-name="uni5230" unicode="&#x5230;" d="M443 416 L75 416 L146 620 L88 620 L88 667 L571 667 L545 620 L272 620 L217 465 L466 465 L429 586 L545 586 L596 416 L480 416 L468 456 L443 416 ZM808 667 L924 667 L924 53 L761 53 L738 99 L808 99 L808 667 ZM394 316 L596 316 L570 269 L394 269 L394 123 L578 137 L578 89 L81 53 L81 100 L278 114 L278 269 L81 269 L81 316 L278 316 L278 378 L394 378 L394 316 ZM738 148 L640 148 L640 667 L738 667 L738 148 Z" /><glyph glyph-name="uni524D" unicode="&#x524d;" d="M452 379 L452 519 L566 519 L566 53 L385 53 L359 100 L452 100 L452 192 L242 192 L242 53 L128 53 L128 519 L452 519 L425 472 L242 472 L242 379 L452 379 ZM759 100 L759 519 L873 519 L873 53 L697 53 L671 100 L759 100 ZM719 604 L899 604 L871 559 L101 559 L101 604 L257 604 L242 668 L350 668 L365 604 L610 604 L625 668 L734 668 L719 604 ZM719 145 L605 145 L605 484 L719 484 L719 145 ZM452 240 L452 332 L242 332 L242 240 L452 240 Z" /><glyph glyph-name="uni52A0" unicode="&#x52a0;" d="M898 58 L552 58 L552 625 L898 625 L898 58 ZM238 58 L124 58 L204 537 L101 537 L101 581 L211 581 L225 663 L339 663 L325 581 L506 581 L506 58 L360 58 L332 102 L392 102 L392 537 L318 537 L238 58 ZM757 581 L666 581 L666 102 L784 102 L784 622 L757 581 Z" /><glyph glyph-name="uni52A1" unicode="&#x52a1;" d="M110 337 L110 402 L378 486 L249 520 L235 494 L99 494 L196 666 L330 666 L322 651 L901 651 L901 587 L603 493 L901 416 L901 351 L490 457 L110 337 ZM110 55 L225 253 L110 253 L110 300 L252 300 L282 351 L422 351 L392 300 L901 300 L901 55 L623 55 L597 102 L787 102 L787 297 L753 253 L365 253 L251 55 L110 55 ZM280 576 L491 522 L748 603 L295 603 L280 576 Z" /><glyph glyph-name="uni52A8" unicode="&#x52a8;" d="M610 53 L494 53 L604 483 L456 483 L456 527 L615 527 L652 670 L768 670 L731 527 L939 527 L939 53 L937 53 L937 51 L733 51 L708 97 L823 97 L823 483 L720 483 L610 53 ZM297 207 L413 207 L469 53 L353 53 L329 119 L315 77 L78 54 L73 53 L69 53 L77 67 L177 392 L61 392 L61 436 L430 436 L430 392 L292 392 L206 110 L328 122 L297 207 ZM430 558 L61 558 L61 602 L430 602 L430 558 Z" /><glyph glyph-name="uni52C3" unicode="&#x52c3;" d="M633 537 L558 537 L558 584 L638 584 L638 668 L750 668 L750 584 L931 584 L931 53 L736 53 L713 97 L817 97 L817 537 L745 537 L627 53 L513 53 L633 537 ZM287 272 L339 366 L125 366 L125 410 L479 410 L414 293 L513 310 L513 266 L402 247 L402 53 L133 53 L109 99 L287 99 L287 227 L76 191 L76 234 L287 272 ZM181 432 L69 432 L69 535 L248 535 L248 595 L100 595 L100 642 L248 642 L248 668 L364 668 L364 642 L513 642 L487 595 L364 595 L364 535 L536 535 L536 435 L424 435 L424 532 L399 489 L181 489 L181 432 Z" /><glyph glyph-name="uni5343" unicode="&#x5343;" d="M858 332 L555 332 L555 53 L443 53 L443 332 L115 332 L115 379 L443 379 L443 588 L169 562 L169 605 L820 668 L820 624 L555 599 L555 379 L884 379 L858 332 Z" /><glyph glyph-name="uni539F" unicode="&#x539f;" d="M621 594 L596 543 L754 543 L727 496 L429 496 L429 459 L754 459 L754 543 L864 543 L864 334 L648 334 L648 54 L476 54 L455 98 L533 98 L533 334 L315 334 L315 543 L473 543 L500 594 L621 594 ZM877 620 L264 620 L264 269 L203 56 L98 56 L159 269 L159 667 L902 667 L877 620 ZM758 54 L692 301 L808 301 L874 54 L758 54 ZM302 54 L369 301 L485 301 L418 54 L302 54 ZM754 413 L429 413 L429 380 L754 380 L754 413 Z" /><glyph glyph-name="uni53D1" unicode="&#x53d1;" d="M480 52 L308 52 L543 171 L353 272 L494 272 L615 208 L759 281 L759 320 L341 320 L201 56 L73 56 L289 464 L71 464 L157 668 L279 668 L211 507 L312 507 L398 668 L527 668 L441 507 L766 507 L728 614 L843 614 L882 507 L928 507 L928 464 L418 464 L365 364 L873 364 L873 259 L696 165 L912 52 L770 52 L625 128 L480 52 Z" /><glyph glyph-name="uni5408" unicode="&#x5408;" d="M934 402 L798 402 L739 610 L276 610 L235 488 L762 488 L736 426 L214 426 L206 402 L65 402 L151 655 L862 655 L934 402 ZM894 66 L133 66 L133 341 L783 341 L756 294 L249 294 L249 115 L783 115 L783 341 L894 341 L894 66 Z" /><glyph glyph-name="uni540C" unicode="&#x540c;" d="M306 462 L695 462 L695 148 L306 148 L306 462 ZM244 62 L110 62 L110 658 L755 658 L720 614 L244 614 L244 62 ZM890 658 L890 62 L709 62 L685 107 L755 107 L755 658 L890 658 ZM424 192 L576 192 L576 453 L550 418 L424 418 L424 192 ZM715 558 L689 514 L285 514 L285 558 L715 558 Z" /><glyph glyph-name="uni548C" unicode="&#x548c;" d="M547 659 L939 659 L939 56 L547 61 L547 659 ZM61 54 L119 457 L71 457 L71 524 L228 524 L228 596 L71 589 L71 647 L528 666 L500 608 L342 601 L342 524 L523 524 L495 457 L432 457 L508 142 L397 142 L342 372 L342 56 L228 56 L228 457 L225 457 L167 54 L61 54 ZM826 129 L826 651 L793 587 L655 587 L655 129 L826 129 Z" /><glyph glyph-name="uni54C1" unicode="&#x54c1;" d="M801 395 L199 395 L199 668 L801 668 L801 395 ZM686 656 L658 625 L313 625 L313 440 L686 440 L686 656 ZM938 370 L938 53 L517 53 L517 370 L938 370 ZM826 359 L796 324 L629 324 L629 97 L826 97 L826 359 ZM61 370 L482 370 L482 53 L61 53 L61 370 ZM177 97 L370 97 L370 359 L340 324 L177 324 L177 97 Z" /><glyph glyph-name="uni5546" unicode="&#x5546;" d="M757 453 L731 408 L237 408 L237 49 L123 49 L123 453 L280 453 L233 541 L356 541 L404 453 L594 453 L643 541 L766 541 L718 453 L757 453 ZM707 387 L756 259 L684 259 L684 124 L309 124 L309 259 L242 259 L291 387 L407 387 L377 313 L577 313 L550 263 L418 263 L418 171 L577 171 L577 313 L621 313 L592 387 L707 387 ZM712 53 L688 98 L758 98 L758 453 L876 453 L876 53 L712 53 ZM911 598 L885 552 L88 552 L88 598 L437 598 L437 672 L561 672 L561 598 L911 598 Z" /><glyph glyph-name="uni5668" unicode="&#x5668;" d="M880 361 L718 361 L789 276 L658 276 L585 361 L414 361 L343 276 L211 276 L281 361 L94 361 L94 408 L320 408 L364 461 L497 461 L453 408 L711 408 L667 461 L801 461 L843 408 L906 408 L880 361 ZM522 252 L904 252 L904 53 L818 53 L818 68 L610 68 L610 53 L522 53 L522 252 ZM96 252 L478 252 L478 53 L393 53 L393 68 L184 68 L184 53 L96 53 L96 252 ZM104 668 L471 668 L471 484 L104 484 L104 668 ZM529 668 L896 668 L896 484 L529 484 L529 668 ZM393 252 L366 204 L184 204 L184 115 L393 115 L393 252 ZM818 252 L792 204 L610 204 L610 115 L818 115 L818 252 ZM811 668 L784 621 L617 621 L617 532 L811 532 L811 668 ZM385 668 L359 621 L192 621 L192 532 L385 532 L385 668 Z" /><glyph glyph-name="uni56E2" unicode="&#x56e2;" d="M906 53 L93 53 L93 668 L906 668 L906 53 ZM792 668 L763 625 L207 625 L207 101 L792 101 L792 668 ZM759 511 L730 464 L673 464 L673 125 L484 125 L458 172 L559 172 L559 464 L528 464 L360 125 L244 125 L409 464 L244 464 L244 511 L559 511 L559 597 L673 597 L673 511 L759 511 Z" /><glyph glyph-name="uni56FD" unicode="&#x56fd;" d="M84 668 L916 668 L916 53 L84 53 L84 668 ZM802 668 L767 621 L198 621 L198 100 L802 100 L802 668 ZM436 211 L436 354 L266 354 L266 401 L436 401 L436 508 L255 508 L255 556 L759 556 L733 508 L550 508 L550 401 L749 401 L722 354 L550 354 L550 211 L770 211 L743 164 L245 164 L245 211 L436 211 ZM685 325 L738 234 L624 234 L571 325 L685 325 Z" /><glyph glyph-name="uni573A" unicode="&#x573a;" d="M635 451 L803 451 L777 406 L756 406 L669 54 L555 54 L642 406 L593 406 L505 54 L391 54 L479 406 L410 406 L657 623 L457 623 L457 669 L882 669 L635 451 ZM382 100 L83 52 L83 99 L170 113 L170 498 L83 498 L83 543 L170 543 L170 668 L302 668 L302 543 L407 543 L381 498 L302 498 L302 134 L382 146 L382 100 ZM803 99 L803 451 L917 451 L917 54 L764 54 L741 99 L803 99 Z" /><glyph glyph-name="uni578B" unicode="&#x578b;" d="M938 98 L894 53 L61 53 L61 98 L446 98 L446 230 L84 230 L84 275 L446 275 L446 311 L562 311 L562 275 L903 275 L868 230 L562 230 L562 98 L938 98 ZM769 429 L653 429 L653 617 L769 617 L769 429 ZM735 383 L805 383 L805 668 L921 668 L921 337 L757 337 L735 383 ZM153 466 L61 466 L61 512 L159 512 L159 617 L61 617 L61 663 L631 663 L603 617 L520 617 L520 512 L631 512 L603 466 L520 466 L520 320 L404 320 L404 466 L269 466 L207 320 L90 320 L153 466 ZM275 512 L404 512 L404 617 L275 617 L275 512 Z" /><glyph glyph-name="uni57F9" unicode="&#x57f9;" d="M910 52 L395 52 L395 327 L796 327 L770 283 L509 283 L509 96 L796 96 L796 327 L910 327 L910 52 ZM258 573 L341 573 L341 529 L258 529 L258 96 L341 96 L324 52 L61 52 L61 96 L144 96 L144 529 L61 529 L61 573 L144 573 L144 667 L258 667 L258 573 ZM821 413 L939 413 L939 369 L365 369 L365 413 L471 413 L410 564 L524 564 L585 413 L707 413 L768 564 L882 564 L821 413 ZM595 668 L709 668 L709 632 L917 632 L917 588 L388 588 L388 632 L595 632 L595 668 Z" /><glyph glyph-name="uni590F" unicode="&#x590f;" d="M77 668 L920 668 L895 624 L409 624 L385 583 L768 583 L743 539 L239 539 L239 514 L768 514 L768 583 L882 583 L882 330 L125 330 L125 583 L269 583 L293 624 L77 624 L77 668 ZM922 52 L705 52 L495 100 L294 52 L77 52 L383 125 L126 183 L343 183 L490 150 L761 214 L761 240 L237 240 L220 199 L104 199 L149 307 L264 307 L255 284 L875 284 L875 193 L877 190 L601 125 L922 52 ZM239 470 L239 444 L768 444 L768 470 L239 470 ZM768 374 L768 400 L239 400 L239 374 L768 374 Z" /><glyph glyph-name="uni591A" unicode="&#x591a;" d="M908 265 L763 97 L724 52 L118 52 L118 99 L393 99 L317 187 L285 149 L118 149 L298 358 L92 358 L92 405 L366 405 L291 492 L258 455 L92 455 L276 668 L442 668 L399 618 L882 618 L882 571 L358 571 L315 520 L434 520 L533 405 L572 405 L715 570 L881 570 L737 403 L698 358 L465 358 L426 312 L908 312 L908 265 ZM741 265 L385 265 L341 215 L460 215 L559 99 L598 99 L741 265 Z" /><glyph glyph-name="uni5927" unicode="&#x5927;" d="M477 468 L243 53 L121 53 L354 468 L129 468 L129 514 L380 514 L467 668 L590 668 L503 514 L879 514 L854 468 L477 468 ZM681 403 L879 53 L756 53 L558 403 L681 403 Z" /><glyph glyph-name="uni59CB" unicode="&#x59cb;" d="M300 197 L422 123 L422 53 L243 162 L63 53 L63 123 L185 197 L85 258 L120 548 L63 548 L63 597 L126 597 L135 667 L251 667 L242 597 L465 597 L440 548 L400 548 L400 258 L300 197 ZM452 349 L907 349 L907 53 L452 53 L452 349 ZM771 388 L423 388 L568 640 L693 640 L577 436 L785 436 L730 533 L858 533 L936 388 L811 388 L792 423 L771 388 ZM564 98 L796 98 L796 337 L759 304 L564 304 L564 98 ZM243 232 L284 258 L284 548 L236 548 L201 258 L243 232 Z" /><glyph glyph-name="uni5A01" unicode="&#x5a01;" d="M899 623 L915 623 L888 575 L699 575 L751 432 L770 470 L770 537 L886 537 L886 452 L800 295 L887 56 L765 56 L727 161 L670 56 L481 56 L436 109 L395 58 L274 58 L370 186 L277 293 L278 294 L290 379 L256 379 L256 425 L297 425 L302 458 L418 458 L413 425 L579 425 L579 287 L496 183 L571 88 L679 295 L578 575 L237 575 L237 219 L198 56 L84 56 L121 222 L121 624 L560 624 L548 665 L669 665 L681 624 L755 624 L743 665 L866 665 L877 624 L900 624 L899 623 ZM534 485 L274 485 L274 529 L563 529 L534 485 ZM465 379 L406 379 L396 309 L430 265 L465 312 L465 379 Z" /><glyph glyph-name="uni5B50" unicode="&#x5b50;" d="M556 428 L556 385 L890 385 L864 338 L556 338 L556 57 L274 57 L245 104 L441 104 L441 338 L109 338 L109 385 L441 385 L441 463 L651 616 L173 616 L173 663 L805 663 L805 614 L556 428 Z" /><glyph glyph-name="uni5B57" unicode="&#x5b57;" d="M781 504 L781 435 L575 347 L575 313 L908 313 L882 266 L575 266 L575 55 L292 55 L264 102 L459 102 L459 266 L93 266 L93 313 L459 313 L460 356 L460 383 L615 456 L191 456 L191 503 L715 503 L717 504 L781 504 ZM900 617 L900 526 L788 526 L788 614 L765 570 L206 570 L206 526 L92 526 L92 617 L441 617 L441 665 L555 665 L555 617 L900 617 Z" /><glyph glyph-name="uni5B66" unicode="&#x5b66;" d="M460 231 L113 231 L113 278 L459 278 L460 279 L460 281 L462 281 L613 402 L247 402 L247 447 L753 447 L753 397 L594 278 L902 278 L876 231 L582 231 L582 53 L397 53 L372 98 L460 98 L460 231 ZM195 459 L83 459 L83 557 L631 557 L688 668 L809 668 L752 557 L916 557 L916 459 L804 459 L804 554 L779 511 L195 511 L195 459 ZM239 575 L189 668 L312 668 L364 575 L239 575 ZM445 575 L395 668 L518 668 L569 575 L445 575 Z" /><glyph glyph-name="uni5BB6" unicode="&#x5bb6;" d="M726 486 L445 486 L438 469 L400 457 L619 457 L619 404 L829 466 L829 400 L619 338 L619 305 L707 305 L878 102 L741 102 L619 247 L619 55 L409 55 L378 102 L493 102 L493 199 L121 81 L121 147 L493 265 L493 332 L121 214 L121 280 L493 399 L493 410 L254 410 L121 367 L121 426 L322 486 L247 486 L247 532 L751 532 L726 486 ZM121 621 L447 621 L447 666 L561 666 L561 621 L873 621 L873 501 L760 501 L760 575 L237 575 L237 501 L121 501 L121 621 Z" /><glyph glyph-name="uni5BF9" unicode="&#x5bf9;" d="M447 92 L325 92 L257 191 L178 53 L56 53 L190 290 L58 486 L58 553 L179 553 L179 494 L247 391 L304 491 L304 646 L426 646 L426 486 L314 291 L447 92 ZM918 505 L855 505 L855 52 L573 88 L573 132 L733 111 L733 505 L443 505 L443 553 L733 553 L733 668 L855 668 L855 553 L944 553 L918 505 ZM685 220 L563 220 L465 427 L587 427 L685 220 ZM278 599 L58 599 L58 646 L304 646 L278 599 Z" /><glyph glyph-name="uni5C0F" unicode="&#x5c0f;" d="M562 53 L368 53 L346 100 L438 100 L438 668 L562 668 L562 53 ZM198 53 L74 53 L173 640 L297 640 L198 53 ZM828 640 L926 53 L802 53 L704 640 L828 640 Z" /><glyph glyph-name="uni5C55" unicode="&#x5c55;" d="M901 663 L902 572 L901 571 L901 527 L216 527 L216 357 L345 357 L345 413 L245 413 L245 457 L345 457 L345 505 L459 505 L459 457 L663 457 L663 505 L776 505 L776 457 L903 457 L883 413 L776 413 L776 357 L917 357 L897 313 L395 313 L395 100 L622 100 L603 56 L281 56 L281 313 L216 313 L216 170 L196 57 L83 57 L103 170 L103 664 L216 663 L901 663 ZM758 57 L419 266 L573 266 L682 199 L755 273 L853 273 L753 155 L913 57 L758 57 ZM216 617 L216 572 L788 572 L788 649 L762 617 L216 617 ZM459 357 L663 357 L663 413 L459 413 L459 357 Z" /><glyph glyph-name="uni5E02" unicode="&#x5e02;" d="M560 539 L560 481 L872 481 L872 100 L707 118 L707 167 L756 160 L756 434 L560 434 L560 53 L444 53 L444 434 L244 434 L244 117 L128 117 L128 481 L444 481 L444 539 L76 539 L76 586 L446 586 L424 667 L540 667 L561 586 L924 586 L898 539 L560 539 Z" /><glyph glyph-name="uni5E03" unicode="&#x5e03;" d="M188 210 L61 210 L283 575 L88 575 L88 622 L311 622 L339 668 L466 668 L438 622 L939 622 L913 575 L409 575 L339 458 L513 458 L513 537 L629 537 L629 458 L782 458 L756 411 L629 411 L629 53 L513 53 L513 411 L348 411 L348 85 L233 85 L233 284 L188 210 ZM897 85 L734 85 L711 129 L786 129 L786 458 L897 458 L897 85 Z" /><glyph glyph-name="uni5E74" unicode="&#x5e74;" d="M879 569 L595 567 L595 485 L842 485 L816 438 L595 438 L595 217 L906 217 L879 169 L595 169 L595 53 L478 53 L478 169 L93 169 L93 217 L180 217 L180 485 L478 485 L478 567 L251 566 L235 521 L117 521 L170 668 L287 668 L268 615 L905 615 L879 569 ZM298 217 L478 217 L478 438 L298 438 L298 217 Z" /><glyph glyph-name="uni5F00" unicode="&#x5f00;" d="M735 618 L735 391 L907 391 L884 344 L735 344 L735 54 L616 54 L616 344 L386 344 L386 298 L278 54 L148 54 L271 312 L271 344 L92 344 L92 391 L271 391 L271 618 L92 618 L92 665 L271 666 L735 665 L907 665 L884 618 L735 618 ZM616 618 L386 618 L386 391 L616 391 L616 618 Z" /><glyph glyph-name="uni5F0F" unicode="&#x5f0f;" d="M910 102 L886 53 L723 53 L535 542 L90 542 L90 589 L517 589 L488 667 L609 667 L638 589 L712 589 L682 667 L805 667 L835 589 L872 589 L845 542 L656 542 L825 102 L910 102 ZM403 129 L592 146 L592 98 L99 54 L99 102 L288 119 L288 367 L115 367 L115 416 L576 416 L551 367 L403 367 L403 129 Z" /><glyph glyph-name="uni5FC3" unicode="&#x5fc3;" d="M572 150 L518 624 L635 624 L692 150 L572 150 ZM801 62 L747 623 L865 623 L921 62 L801 62 ZM198 62 L78 62 L135 623 L252 623 L198 62 ZM722 62 L297 62 L297 659 L428 659 L428 105 L757 105 L722 62 Z" /><glyph glyph-name="uni5FD7" unicode="&#x5fd7;" d="M915 57 L796 57 L706 316 L825 316 L915 57 ZM420 316 L420 102 L749 102 L729 58 L304 58 L304 316 L420 316 ZM669 149 L550 149 L479 316 L598 316 L669 149 ZM206 58 L85 58 L166 317 L287 317 L206 58 ZM439 558 L85 558 L85 606 L439 606 L439 663 L560 663 L560 606 L915 606 L890 558 L560 558 L560 414 L854 414 L830 367 L146 367 L146 414 L439 414 L439 558 Z" /><glyph glyph-name="uni6001" unicode="&#x6001;" d="M128 545 L128 593 L335 593 L392 660 L539 660 L480 593 L901 593 L877 545 L439 545 L327 417 L415 417 L480 314 L345 314 L300 385 L229 304 L88 304 L294 545 L128 545 ZM299 63 L299 289 L415 289 L415 107 L733 107 L733 63 L299 63 ZM919 291 L776 291 L591 517 L738 517 L919 291 ZM201 63 L80 63 L161 256 L282 256 L201 63 ZM910 61 L791 61 L701 254 L820 254 L910 61 ZM649 152 L529 152 L464 269 L584 269 L649 152 Z" /><glyph glyph-name="uni603B" unicode="&#x603b;" d="M167 533 L848 533 L848 282 L167 282 L167 533 ZM283 329 L734 329 L734 524 L704 489 L283 489 L283 329 ZM845 246 L934 53 L815 53 L726 246 L845 246 ZM718 55 L302 55 L302 246 L418 246 L418 98 L718 98 L718 55 ZM497 246 L616 246 L674 155 L555 155 L497 246 ZM186 55 L65 55 L146 248 L267 248 L186 55 ZM413 551 L293 551 L242 667 L364 667 L413 551 ZM777 667 L726 551 L606 551 L656 667 L777 667 Z" /><glyph glyph-name="uni60A8" unicode="&#x60a8;" d="M910 309 L791 309 L724 515 L801 515 L815 570 L465 567 L449 522 L331 522 L384 669 L501 669 L482 615 L930 615 L903 480 L851 480 L910 309 ZM318 666 L226 516 L262 516 L262 281 L146 281 L146 468 L69 468 L199 666 L318 666 ZM312 54 L312 245 L428 245 L428 98 L746 98 L746 54 L312 54 ZM523 281 L498 327 L569 327 L569 553 L686 553 L686 281 L523 281 ZM402 515 L517 515 L450 309 L331 309 L402 515 ZM214 54 L93 54 L174 247 L295 247 L214 54 ZM923 52 L803 52 L714 245 L833 245 L923 52 ZM654 154 L535 154 L477 245 L596 245 L654 154 Z" /><glyph glyph-name="uni60F3" unicode="&#x60f3;" d="M330 262 L216 262 L216 507 L175 288 L86 288 L139 572 L94 572 L94 619 L216 619 L216 668 L330 668 L330 619 L435 619 L414 572 L330 572 L330 533 L397 533 L452 405 L452 653 L754 653 L729 609 L566 609 L566 544 L754 544 L754 653 L868 653 L868 263 L452 263 L452 398 L354 398 L330 455 L330 262 ZM711 53 L304 53 L304 235 L420 235 L420 97 L737 97 L711 53 ZM286 236 L206 53 L85 53 L165 236 L286 236 ZM795 52 L706 235 L825 235 L914 52 L795 52 ZM754 307 L754 382 L566 382 L566 307 L754 307 ZM566 501 L566 426 L754 426 L754 501 L566 501 ZM469 235 L588 235 L646 143 L527 143 L469 235 Z" /><glyph glyph-name="uni6211" unicode="&#x6211;" d="M813 319 L922 355 L922 262 L846 236 L918 54 L782 54 L731 197 L477 111 L477 209 L700 282 L636 458 L347 458 L347 349 L479 376 L479 282 L347 255 L347 54 L129 54 L104 100 L229 100 L229 230 L69 197 L69 294 L229 326 L229 458 L69 458 L69 506 L229 506 L229 610 L89 604 L89 651 L491 666 L465 619 L347 614 L347 506 L619 506 L561 666 L676 666 L740 506 L931 506 L905 458 L758 458 L813 319 ZM781 540 L759 657 L876 657 L899 540 L781 540 Z" /><glyph glyph-name="uni624D" unicode="&#x624d;" d="M921 576 L900 528 L799 528 L799 53 L432 53 L409 97 L685 97 L685 528 L523 528 L234 53 L98 53 L386 528 L79 528 L79 576 L685 576 L685 668 L799 668 L799 576 L921 576 Z" /><glyph glyph-name="uni627E" unicode="&#x627e;" d="M887 504 L637 471 L660 373 L742 449 L872 449 L684 272 L725 104 L911 104 L878 53 L615 53 L586 179 L493 91 L360 91 L562 281 L522 456 L372 437 L372 481 L513 498 L474 668 L590 668 L627 513 L908 548 L887 504 ZM384 551 L324 551 L324 370 L388 389 L388 342 L324 322 L324 52 L122 52 L102 96 L209 96 L209 287 L88 251 L88 300 L209 336 L209 551 L88 551 L88 595 L209 595 L209 668 L324 668 L324 595 L405 595 L384 551 ZM705 556 L682 652 L781 652 L803 556 L705 556 Z" /><glyph glyph-name="uni62DB" unicode="&#x62db;" d="M407 322 L906 322 L906 57 L407 57 L407 322 ZM358 539 L299 539 L299 350 L378 374 L378 326 L299 302 L299 55 L103 55 L83 99 L183 99 L183 268 L83 238 L83 287 L183 316 L183 539 L84 539 L84 583 L183 583 L183 665 L299 665 L299 583 L380 583 L358 539 ZM917 356 L599 356 L599 400 L802 400 L802 635 L784 599 L639 599 L535 355 L420 355 L526 599 L405 599 L405 643 L917 643 L917 356 ZM521 277 L521 101 L793 101 L793 307 L768 277 L521 277 Z" /><glyph glyph-name="uni6301" unicode="&#x6301;" d="M296 532 L296 356 L381 381 L381 332 L296 307 L296 53 L103 53 L81 99 L182 99 L182 275 L81 246 L81 295 L182 324 L182 532 L81 532 L81 579 L182 579 L182 668 L296 668 L296 579 L393 579 L372 532 L296 532 ZM864 575 L720 575 L720 467 L919 467 L898 423 L408 423 L408 467 L606 467 L606 575 L441 575 L441 619 L606 619 L606 668 L720 668 L720 619 L885 619 L864 575 ZM891 307 L861 307 L861 53 L668 53 L668 97 L747 97 L747 307 L419 307 L419 351 L747 351 L747 395 L861 395 L861 351 L912 351 L891 307 ZM639 114 L519 114 L446 271 L565 271 L639 114 Z" /><glyph glyph-name="uni63A8" unicode="&#x63a8;" d="M759 522 L759 424 L897 424 L867 379 L759 379 L759 269 L897 269 L867 224 L759 224 L759 96 L917 96 L887 51 L487 51 L487 96 L645 96 L645 224 L506 224 L506 269 L645 269 L645 379 L506 379 L506 424 L645 424 L645 522 L491 522 L491 567 L620 567 L593 659 L714 659 L741 567 L921 567 L891 522 L759 522 ZM153 263 L78 242 L78 293 L153 316 L153 530 L83 530 L83 577 L153 577 L153 670 L267 670 L267 577 L332 577 L311 530 L267 530 L267 346 L327 363 L327 314 L267 293 L267 51 L106 51 L83 96 L153 96 L153 263 ZM515 659 L432 454 L465 454 L465 51 L349 51 L349 407 L286 407 L395 659 L515 659 Z" /><glyph glyph-name="uni652F" unicode="&#x652f;" d="M703 56 L513 171 L308 49 L115 49 L419 229 L107 419 L285 419 L509 282 L730 413 L730 453 L107 453 L107 497 L444 497 L444 565 L88 565 L88 609 L444 609 L444 672 L558 672 L558 609 L912 609 L892 565 L558 565 L558 497 L875 497 L875 387 L604 225 L883 56 L703 56 Z" /><glyph glyph-name="uni6545" unicode="&#x6545;" d="M782 274 L936 54 L814 54 L722 184 L636 54 L509 54 L654 280 L525 462 L650 462 L713 372 L771 463 L771 555 L523 555 L577 662 L695 662 L667 600 L936 600 L913 555 L888 555 L888 434 L782 274 ZM341 539 L341 402 L490 402 L490 52 L86 52 L86 402 L227 402 L227 539 L64 539 L64 586 L227 586 L227 669 L341 669 L341 586 L518 586 L492 539 L341 539 ZM356 355 L192 355 L192 102 L386 102 L386 386 L356 355 Z" /><glyph glyph-name="uni6559" unicode="&#x6559;" d="M408 53 L214 53 L188 97 L294 97 L294 189 L87 189 L87 233 L294 233 L294 255 L408 351 L215 351 L176 279 L62 279 L152 443 L87 443 L87 487 L237 487 L237 578 L87 578 L87 622 L237 622 L237 668 L351 668 L351 622 L534 622 L508 578 L351 578 L351 487 L392 487 L427 550 L541 550 L506 487 L534 487 L508 443 L266 443 L239 395 L522 395 L522 351 L408 255 L408 233 L534 233 L508 189 L408 189 L408 53 ZM755 666 L735 628 L938 628 L912 584 L897 584 L897 476 L798 299 L938 53 L824 53 L742 197 L662 53 L548 53 L684 299 L590 465 L704 465 L741 400 L783 476 L783 584 L710 584 L662 496 L548 496 L641 666 L755 666 Z" /><glyph glyph-name="uni65B0" unicode="&#x65b0;" d="M642 53 L535 53 L555 161 L555 629 L938 650 L938 603 L664 587 L664 493 L938 493 L938 447 L867 447 L867 53 L751 53 L751 447 L664 447 L664 183 L642 53 ZM240 102 L240 303 L73 303 L73 349 L240 349 L240 415 L73 415 L73 460 L128 460 L90 565 L211 565 L248 460 L343 460 L380 565 L501 565 L463 460 L526 460 L493 415 L356 415 L356 349 L526 349 L493 303 L356 303 L356 56 L221 56 L191 102 L240 102 ZM509 584 L61 584 L61 629 L236 629 L236 668 L346 668 L346 629 L530 629 L509 584 ZM423 53 L376 257 L487 257 L531 53 L423 53 ZM169 53 L61 53 L105 257 L216 257 L169 53 Z" /><glyph glyph-name="uni65E5" unicode="&#x65e5;" d="M861 44 L139 44 L139 684 L861 684 L861 44 ZM737 352 L262 352 L262 94 L737 94 L737 352 ZM696 634 L262 634 L262 403 L737 403 L737 676 L696 634 Z" /><glyph glyph-name="uni65E9" unicode="&#x65e9;" d="M780 546 L780 665 L893 665 L893 380 L558 380 L558 310 L930 310 L903 262 L558 262 L558 55 L445 55 L445 262 L70 262 L70 310 L445 310 L445 380 L105 380 L105 665 L780 665 L754 617 L219 617 L219 546 L780 546 ZM780 499 L219 499 L219 430 L780 430 L780 499 Z" /><glyph glyph-name="uni66F4" unicode="&#x66f4;" d="M934 53 L383 156 L233 53 L67 53 L250 181 L76 214 L76 296 L343 246 L421 301 L103 301 L103 567 L436 567 L436 620 L65 620 L65 667 L928 667 L902 620 L552 620 L552 567 L887 567 L887 301 L552 301 L552 272 L478 221 L934 137 L934 53 ZM552 353 L783 353 L783 412 L552 412 L552 353 ZM552 518 L552 459 L783 459 L783 548 L754 518 L552 518 ZM436 518 L209 518 L209 459 L436 459 L436 518 ZM209 353 L436 353 L436 412 L209 412 L209 353 Z" /><glyph glyph-name="uni6700" unicode="&#x6700;" d="M121 451 L121 665 L879 665 L879 451 L121 451 ZM500 56 L386 56 L386 113 L76 73 L76 121 L121 126 L121 384 L83 384 L83 431 L919 431 L893 384 L500 384 L500 56 ZM889 272 L784 172 L924 56 L775 56 L715 105 L664 56 L514 56 L758 293 L522 293 L522 340 L889 340 L889 272 ZM233 618 L233 579 L765 579 L765 657 L739 618 L233 618 ZM765 499 L765 534 L233 534 L233 499 L765 499 ZM235 331 L386 331 L386 384 L235 384 L235 331 ZM235 238 L386 238 L386 284 L235 284 L235 238 ZM235 141 L386 160 L386 190 L235 190 L235 141 Z" /><glyph glyph-name="uni670D" unicode="&#x670d;" d="M823 621 L586 621 L586 411 L939 411 L939 281 L832 178 L939 54 L808 54 L761 109 L702 52 L562 52 L565 55 L472 55 L472 669 L939 669 L939 459 L680 459 L654 506 L823 506 L823 621 ZM98 669 L438 669 L438 53 L237 53 L212 99 L326 99 L326 276 L212 276 L212 222 L177 53 L61 53 L98 222 L98 669 ZM596 307 L723 307 L762 260 L818 318 L818 363 L586 363 L586 77 L694 189 L596 307 ZM326 462 L212 462 L212 322 L326 322 L326 462 ZM326 669 L293 625 L212 625 L212 508 L326 508 L326 669 Z" /><glyph glyph-name="uni671F" unicode="&#x671f;" d="M938 668 L938 53 L777 53 L758 88 L821 88 L821 281 L708 281 L708 174 L663 53 L437 53 L372 176 L490 176 L548 61 L593 184 L593 668 L938 668 ZM550 196 L61 196 L61 240 L120 240 L120 573 L61 573 L61 614 L120 614 L120 668 L234 668 L234 614 L406 614 L406 668 L520 668 L520 614 L580 614 L550 573 L520 573 L520 240 L580 240 L550 196 ZM821 661 L794 621 L708 621 L708 488 L821 488 L821 661 ZM234 362 L406 362 L406 448 L234 448 L234 362 ZM234 573 L234 488 L406 488 L406 573 L234 573 ZM153 176 L268 176 L205 53 L88 53 L153 176 ZM234 240 L406 240 L406 322 L234 322 L234 240 ZM821 444 L708 444 L708 325 L821 325 L821 444 Z" /><glyph glyph-name="uni672C" unicode="&#x672c;" d="M558 660 L558 569 L891 569 L870 522 L558 522 L558 222 L738 222 L603 469 L724 469 L928 88 L810 88 L745 208 L719 174 L558 174 L558 60 L442 60 L442 174 L258 174 L258 222 L442 222 L442 522 L391 522 L196 87 L72 87 L266 522 L114 522 L114 569 L442 569 L442 660 L558 660 Z" /><glyph glyph-name="uni6742" unicode="&#x6742;" d="M219 575 L92 575 L92 621 L239 621 L260 668 L381 668 L360 621 L844 621 L853 419 L911 419 L885 371 L741 371 L732 575 L340 575 L250 371 L129 371 L219 575 ZM206 74 L89 74 L177 235 L289 235 L206 74 ZM906 74 L789 74 L708 235 L821 235 L906 74 ZM443 277 L92 277 L92 324 L443 324 L443 378 L559 378 L559 324 L911 324 L885 277 L559 277 L559 53 L381 53 L355 100 L443 100 L443 277 Z" /><glyph glyph-name="uni6743" unicode="&#x6743;" d="M183 666 L297 666 L297 600 L408 600 L382 554 L297 554 L297 482 L378 482 L413 124 L315 124 L297 312 L297 57 L183 57 L183 298 L161 57 L62 57 L113 554 L83 554 L83 600 L183 600 L183 666 ZM579 475 L681 354 L791 474 L791 646 L905 646 L905 447 L872 411 L748 275 L937 54 L799 54 L677 197 L546 54 L408 54 L610 276 L441 475 L579 475 ZM791 646 L764 598 L431 598 L431 646 L791 646 Z" /><glyph glyph-name="uni6838" unicode="&#x6838;" d="M142 56 L56 56 L109 561 L68 561 L68 607 L170 607 L170 668 L264 668 L264 607 L356 607 L333 561 L264 561 L264 500 L328 500 L358 191 L362 144 L283 144 L264 318 L264 53 L170 53 L170 302 L142 56 ZM860 414 L724 247 L819 247 L931 57 L812 57 L710 230 L567 55 L437 55 L730 414 L860 414 ZM943 642 L908 590 L611 590 L530 487 L621 487 L661 534 L786 534 L500 197 L375 197 L582 440 L380 440 L487 590 L369 590 L369 642 L580 642 L580 668 L709 668 L709 642 L943 642 Z" /><glyph glyph-name="uni6848" unicode="&#x6848;" d="M554 666 L554 628 L875 628 L875 549 L763 549 L763 624 L739 582 L225 582 L225 549 L112 549 L112 628 L444 628 L444 666 L554 666 ZM647 371 L858 340 L858 292 L493 347 L130 292 L130 340 L339 371 L228 387 L265 464 L112 464 L112 512 L286 512 L300 545 L412 545 L400 512 L888 512 L861 464 L747 464 L747 385 L647 371 ZM379 464 L356 415 L493 394 L635 415 L635 464 L379 464 ZM861 257 L835 213 L554 213 L554 54 L444 54 L444 213 L349 213 L240 56 L123 56 L232 213 L132 213 L132 257 L444 257 L444 298 L554 298 L554 257 L861 257 ZM874 56 L756 56 L661 192 L779 192 L874 56 Z" /><glyph glyph-name="uni6B65" unicode="&#x6b65;" d="M900 441 L75 441 L75 489 L165 489 L165 642 L281 642 L281 489 L442 489 L442 668 L558 668 L558 629 L869 629 L844 581 L558 581 L558 489 L925 489 L900 441 ZM785 52 L75 52 L75 100 L679 100 L779 265 L779 383 L895 383 L895 235 L785 52 ZM199 152 L75 152 L214 383 L339 383 L199 152 ZM442 152 L442 383 L558 383 L558 152 L442 152 Z" /><glyph glyph-name="uni6CD5" unicode="&#x6cd5;" d="M418 100 L752 100 L725 53 L285 53 L285 100 L463 351 L285 351 L285 399 L545 399 L545 534 L311 534 L311 582 L545 582 L545 668 L659 668 L659 582 L892 582 L866 534 L659 534 L659 399 L918 399 L892 351 L596 351 L418 100 ZM159 351 L275 351 L196 53 L81 53 L159 351 ZM81 534 L145 534 L81 667 L196 667 L265 529 L200 529 L265 394 L149 394 L81 534 ZM772 259 L918 53 L786 53 L639 259 L772 259 Z" /><glyph glyph-name="uni6D3B" unicode="&#x6d3b;" d="M862 53 L747 53 L747 92 L723 53 L330 53 L330 313 L539 313 L539 415 L301 415 L301 463 L539 463 L539 588 L321 578 L321 627 L747 647 L747 667 L862 667 L862 604 L653 594 L653 463 L896 463 L872 415 L653 415 L653 313 L862 313 L862 53 ZM444 101 L747 101 L747 264 L444 264 L444 101 ZM183 351 L299 351 L220 53 L104 53 L183 351 ZM104 533 L169 533 L104 667 L220 667 L288 528 L224 528 L288 393 L173 393 L104 533 Z" /><glyph glyph-name="uni6D3E" unicode="&#x6d3e;" d="M938 667 L921 623 L438 623 L438 53 L292 53 L274 97 L324 97 L324 667 L938 667 ZM687 53 L487 53 L487 560 L934 560 L916 516 L601 516 L601 97 L712 97 L687 53 ZM938 407 L877 190 L925 53 L811 53 L675 438 L789 438 L835 307 L864 407 L938 407 ZM156 351 L272 351 L193 53 L77 53 L156 351 ZM61 534 L126 534 L61 667 L177 667 L245 528 L180 528 L245 393 L130 393 L61 534 Z" /><glyph glyph-name="uni6D4F" unicode="&#x6d4f;" d="M467 418 L536 551 L285 551 L285 594 L659 594 L659 551 L532 305 L677 53 L551 53 L473 191 L401 53 L276 53 L408 305 L296 502 L419 502 L467 418 ZM937 668 L937 53 L729 53 L700 96 L822 96 L822 668 L937 668 ZM690 587 L793 587 L793 164 L690 164 L690 587 ZM180 53 L62 53 L140 349 L256 349 L180 53 ZM62 530 L124 530 L62 664 L177 664 L245 526 L179 526 L245 392 L127 392 L62 530 ZM404 665 L524 665 L543 602 L421 602 L404 665 Z" /><glyph glyph-name="uni7248" unicode="&#x7248;" d="M719 372 L783 481 L555 481 L554 318 L503 57 L396 57 L447 320 L447 643 L901 664 L901 616 L555 600 L555 527 L901 527 L901 485 L780 274 L917 58 L801 58 L724 178 L654 58 L538 58 L662 274 L576 413 L694 413 L719 372 ZM394 58 L287 58 L287 334 L224 334 L224 320 L189 58 L82 58 L117 321 L117 662 L224 662 L224 516 L276 516 L276 662 L385 662 L385 516 L433 516 L406 469 L224 469 L224 381 L396 381 L394 378 L394 58 Z" /><glyph glyph-name="uni724C" unicode="&#x724c;" d="M428 171 L531 338 L443 338 L443 637 L493 637 L507 668 L621 668 L608 638 L812 638 L795 595 L742 595 L742 514 L812 514 L812 637 L926 637 L926 338 L812 339 L742 338 L645 338 L569 214 L662 214 L662 312 L776 312 L776 214 L926 214 L926 171 L776 171 L776 53 L662 53 L662 171 L428 171 ZM74 53 L74 97 L90 97 L90 668 L204 668 L204 492 L275 492 L275 668 L389 668 L389 492 L432 492 L432 448 L204 448 L204 360 L412 360 L412 53 L298 53 L298 316 L204 316 L204 53 L74 53 ZM557 383 L628 383 L628 470 L557 470 L557 383 ZM742 470 L742 383 L812 383 L812 470 L742 470 ZM628 595 L557 595 L557 514 L628 514 L628 595 Z" /><glyph glyph-name="uni7279" unicode="&#x7279;" d="M939 332 L919 283 L841 283 L841 53 L621 53 L641 101 L727 101 L727 283 L450 283 L450 332 L727 332 L727 410 L450 410 L450 458 L603 458 L603 550 L493 550 L493 598 L603 599 L603 667 L717 667 L717 599 L895 599 L875 551 L717 550 L717 458 L939 458 L919 410 L841 410 L841 332 L939 332 ZM230 612 L210 526 L237 526 L237 667 L351 667 L351 526 L418 527 L398 478 L351 478 L351 310 L402 322 L402 265 L351 252 L351 57 L237 57 L237 225 L77 185 L77 244 L237 282 L237 478 L199 478 L182 407 L61 407 L109 612 L230 612 ZM582 248 L639 118 L525 118 L468 248 L582 248 Z" /><glyph glyph-name="uni73ED" unicode="&#x73ed;" d="M823 428 L905 428 L879 381 L823 381 L823 117 L916 117 L890 70 L625 70 L625 117 L711 117 L711 381 L637 381 L637 428 L711 428 L711 595 L630 595 L630 644 L923 644 L897 595 L823 595 L823 428 ZM272 595 L272 414 L344 414 L319 367 L272 367 L272 137 L349 151 L349 103 L76 58 L76 105 L161 119 L161 367 L83 367 L83 414 L161 414 L161 595 L76 595 L76 644 L363 644 L337 595 L272 595 ZM609 265 L553 60 L447 60 L504 265 L504 663 L609 663 L609 265 ZM472 186 L369 186 L369 612 L472 612 L472 186 Z" /><glyph glyph-name="uni7403" unicode="&#x7403;" d="M882 558 L693 558 L693 53 L511 53 L489 91 L487 77 L373 77 L449 462 L373 462 L373 510 L573 510 L491 100 L579 100 L579 558 L363 558 L363 605 L579 605 L579 668 L693 668 L693 605 L744 605 L735 654 L849 654 L858 605 L908 605 L882 558 ZM325 82 L92 67 L92 115 L165 119 L165 321 L102 321 L102 369 L165 369 L165 558 L92 558 L92 605 L352 605 L325 558 L279 558 L279 369 L342 369 L315 321 L279 321 L279 126 L352 130 L325 82 ZM898 510 L872 462 L821 462 L894 77 L779 77 L698 510 L898 510 Z" /><glyph glyph-name="uni751F" unicode="&#x751f;" d="M895 566 L869 520 L582 520 L582 351 L875 351 L849 305 L582 305 L582 98 L917 98 L891 53 L104 53 L104 98 L458 98 L458 305 L166 305 L166 351 L458 351 L458 520 L251 520 L214 425 L83 425 L171 652 L302 652 L269 566 L458 566 L458 667 L582 667 L582 566 L895 566 Z" /><glyph glyph-name="uni7533" unicode="&#x7533;" d="M730 537 L562 537 L562 405 L757 405 L757 586 L869 586 L869 178 L562 178 L562 53 L438 53 L438 178 L130 178 L130 586 L438 586 L438 667 L562 667 L562 586 L756 586 L730 537 ZM757 225 L757 359 L562 359 L562 225 L757 225 ZM244 225 L438 225 L438 359 L244 359 L244 225 ZM244 405 L438 405 L438 537 L244 537 L244 405 Z" /><glyph glyph-name="uni7684" unicode="&#x7684;" d="M344 551 L179 551 L179 380 L370 380 L370 599 L484 599 L484 53 L65 53 L65 598 L84 599 L196 599 L222 668 L343 668 L318 599 L370 599 L344 551 ZM629 53 L604 99 L818 99 L818 595 L935 595 L935 53 L629 53 ZM179 100 L370 100 L370 332 L179 332 L179 100 ZM791 548 L646 548 L612 450 L491 450 L567 668 L688 668 L662 595 L818 595 L791 548 ZM617 194 L491 405 L614 405 L741 194 L617 194 Z" /><glyph glyph-name="uni76DF" unicode="&#x76df;" d="M867 102 L910 102 L883 55 L89 55 L89 102 L115 102 L115 255 L751 255 L725 208 L638 208 L638 102 L752 102 L752 255 L867 255 L867 102 ZM763 327 L763 402 L603 402 L603 381 L582 284 L461 285 L487 395 L487 666 L877 666 L877 279 L752 279 L726 327 L763 327 ZM448 284 L102 284 L102 666 L334 666 L308 619 L216 619 L216 504 L334 504 L334 666 L448 666 L448 284 ZM334 328 L334 460 L216 460 L216 328 L334 328 ZM603 619 L603 548 L763 548 L763 650 L746 619 L603 619 ZM330 102 L330 208 L229 208 L229 102 L330 102 ZM763 446 L763 504 L603 504 L603 446 L763 446 ZM524 102 L524 208 L444 208 L444 102 L524 102 Z" /><glyph glyph-name="uni79BB" unicode="&#x79bb;" d="M822 53 L822 233 L380 233 L344 150 L669 150 L650 215 L766 215 L799 101 L683 101 L671 141 L646 101 L202 101 L255 233 L178 233 L178 53 L64 53 L64 281 L275 281 L282 300 L121 300 L121 559 L235 559 L235 347 L764 347 L764 559 L878 559 L878 300 L408 300 L400 281 L936 281 L936 53 L822 53 ZM744 490 L604 451 L744 412 L744 350 L492 420 L251 353 L251 415 L381 451 L251 487 L251 550 L492 483 L744 553 L744 490 ZM550 667 L550 618 L913 618 L883 574 L91 574 L91 618 L436 618 L436 667 L550 667 Z" /><glyph glyph-name="uni7A0B" unicode="&#x7a0b;" d="M170 53 L69 53 L104 470 L75 470 L75 514 L201 514 L201 610 L82 602 L82 646 L401 667 L401 623 L302 616 L302 514 L410 514 L389 470 L302 470 L302 425 L401 425 L422 195 L320 195 L302 392 L302 53 L201 53 L201 412 L170 53 ZM871 218 L732 218 L732 97 L930 97 L909 53 L427 53 L427 97 L624 97 L624 218 L465 218 L465 262 L624 262 L624 356 L442 356 L442 400 L914 400 L893 356 L732 356 L732 262 L892 262 L871 218 ZM772 613 L558 613 L558 481 L798 481 L798 657 L906 657 L906 437 L450 437 L450 657 L798 657 L772 613 Z" /><glyph glyph-name="uni7AD9" unicode="&#x7ad9;" d="M915 400 L915 55 L493 55 L493 400 L605 400 L641 400 L641 666 L755 666 L755 561 L917 561 L890 516 L755 516 L755 400 L915 400 ZM607 354 L607 99 L802 99 L802 384 L778 354 L607 354 ZM311 120 L371 517 L492 517 L430 120 L311 120 ZM167 120 L105 517 L226 517 L286 120 L167 120 ZM82 596 L245 596 L212 665 L333 665 L364 596 L520 596 L482 551 L82 551 L82 596 ZM82 103 L486 103 L448 57 L82 57 L82 103 Z" /><glyph glyph-name="uni7AE5" unicode="&#x7ae5;" d="M843 571 L127 571 L127 615 L439 615 L439 664 L553 664 L553 615 L873 615 L843 571 ZM872 454 L129 454 L129 501 L230 501 L213 554 L329 554 L346 501 L651 501 L685 554 L800 554 L771 501 L872 501 L872 454 ZM440 99 L440 135 L152 135 L152 179 L440 179 L440 217 L144 217 L144 425 L849 425 L849 217 L554 217 L554 179 L849 179 L849 135 L554 135 L554 99 L871 99 L871 56 L127 56 L127 99 L440 99 ZM554 343 L731 343 L731 417 L705 381 L554 381 L554 343 ZM554 260 L731 260 L731 299 L554 299 L554 260 ZM263 343 L440 343 L440 381 L263 381 L263 343 ZM263 260 L440 260 L440 299 L263 299 L263 260 Z" /><glyph glyph-name="uni7EA6" unicode="&#x7ea6;" d="M909 68 L700 68 L679 111 L793 111 L793 606 L909 606 L909 68 ZM385 562 L443 660 L581 660 L555 606 L793 606 L757 562 L385 562 ZM560 449 L709 214 L565 214 L427 449 L560 449 ZM99 56 L99 104 L358 155 L337 102 L99 56 ZM92 181 L209 427 L90 427 L200 665 L337 665 L244 471 L353 471 L257 260 L350 281 L323 227 L92 181 Z" /><glyph glyph-name="uni7ECF" unicode="&#x7ecf;" d="M83 193 L216 399 L83 399 L256 668 L375 668 L241 461 L375 461 L232 240 L368 240 L342 193 L83 193 ZM717 301 L717 100 L917 100 L894 53 L418 53 L418 100 L606 100 L606 301 L418 301 L418 348 L917 348 L894 301 L717 301 ZM787 581 L787 620 L445 620 L445 667 L890 667 L890 544 L771 485 L906 376 L780 376 L691 446 L550 376 L407 376 L787 581 ZM377 70 L118 53 L118 100 L403 118 L377 70 Z" /><glyph glyph-name="uni7EED" unicode="&#x7eed;" d="M693 335 L938 335 L910 291 L656 291 L454 53 L326 53 L527 291 L341 291 L341 335 L564 335 L576 350 L522 350 L484 457 L578 457 L604 383 L667 457 L796 457 L693 335 ZM318 667 L185 445 L315 444 L351 444 L193 221 L346 234 L346 190 L61 166 L61 209 L196 401 L61 401 L61 445 L194 667 L318 667 ZM938 528 L918 451 L804 451 L813 485 L341 485 L341 529 L583 529 L583 584 L364 584 L364 628 L583 628 L583 667 L697 667 L697 628 L914 628 L886 584 L697 584 L697 529 L938 528 ZM785 248 L938 53 L814 53 L661 248 L785 248 ZM346 103 L61 53 L61 97 L346 147 L346 103 ZM491 350 L397 350 L359 457 L453 457 L491 350 Z" /><glyph glyph-name="uni7F8E" unicode="&#x7f8e;" d="M656 205 L853 53 L727 53 L528 205 L656 205 ZM557 558 L557 479 L853 479 L827 431 L557 431 L557 361 L853 361 L827 313 L146 313 L146 361 L443 361 L443 431 L146 431 L146 479 L443 479 L443 558 L146 558 L146 605 L301 605 L251 668 L374 668 L425 605 L556 605 L607 668 L730 668 L680 605 L853 605 L827 558 L557 558 ZM853 265 L827 218 L485 218 L287 53 L146 53 L344 218 L146 218 L146 265 L401 265 L443 299 L584 299 L542 265 L853 265 Z" /><glyph glyph-name="uni8058" unicode="&#x8058;" d="M413 587 L413 203 L476 207 L446 163 L413 161 L413 59 L299 53 L299 154 L61 139 L61 183 L103 185 L103 587 L61 587 L61 631 L476 631 L446 587 L413 587 ZM938 631 L938 400 L483 400 L483 631 L641 631 L641 668 L755 668 L755 631 L824 631 L794 587 L755 587 L755 537 L824 537 L824 631 L938 631 ZM483 375 L938 375 L913 328 L683 328 L657 279 L894 279 L894 53 L586 53 L554 101 L780 101 L780 231 L515 231 L565 328 L483 328 L483 375 ZM299 196 L299 315 L217 315 L217 192 L299 196 ZM299 470 L217 470 L217 358 L299 358 L299 470 ZM299 587 L217 587 L217 513 L299 513 L299 587 ZM824 444 L824 494 L755 494 L755 444 L824 444 ZM597 444 L641 444 L641 494 L597 494 L597 444 ZM597 587 L597 537 L641 537 L641 587 L597 587 Z" /><glyph glyph-name="uni80B2" unicode="&#x80b2;" d="M810 51 L634 51 L608 98 L697 98 L697 181 L275 181 L258 53 L145 53 L170 223 L170 426 L697 426 L671 381 L284 381 L284 330 L697 330 L697 426 L810 426 L810 51 ZM727 452 L717 469 L133 469 L179 577 L64 577 L64 621 L463 621 L463 670 L575 670 L575 621 L936 621 L909 577 L300 577 L273 513 L692 513 L671 550 L794 550 L851 452 L727 452 ZM697 282 L284 282 L284 226 L697 226 L697 282 Z" /><glyph glyph-name="uni80C6" unicode="&#x80c6;" d="M431 70 L431 114 L926 114 L900 70 L431 70 ZM456 202 L456 658 L765 658 L728 615 L570 615 L570 443 L765 443 L765 658 L880 658 L880 202 L456 202 ZM570 246 L765 246 L765 401 L570 401 L570 246 ZM382 658 L382 63 L242 63 L226 107 L280 107 L280 274 L228 274 L175 63 L73 63 L121 255 L121 658 L280 658 L244 615 L224 615 L224 495 L280 495 L280 658 L382 658 ZM280 318 L280 451 L224 451 L224 318 L280 318 Z" /><glyph glyph-name="uni8350" unicode="&#x8350;" d="M188 218 L57 218 L282 451 L87 451 L87 498 L328 498 L353 525 L485 525 L459 498 L917 498 L898 451 L413 451 L276 309 L327 309 L327 54 L213 54 L213 243 L188 218 ZM692 102 L692 226 L383 226 L383 273 L703 273 L742 349 L418 349 L418 396 L880 396 L817 273 L942 273 L922 226 L806 226 L806 54 L508 54 L473 102 L692 102 ZM211 591 L71 591 L71 638 L211 638 L211 666 L326 666 L326 638 L649 638 L649 666 L765 666 L765 638 L902 638 L875 591 L765 591 L765 545 L649 545 L649 591 L326 591 L326 545 L211 545 L211 591 Z" /><glyph glyph-name="uni8425" unicode="&#x8425;" d="M860 53 L140 53 L140 247 L746 247 L719 200 L255 200 L255 100 L746 100 L746 247 L860 247 L860 53 ZM775 279 L225 279 L225 429 L661 429 L635 382 L339 382 L339 327 L661 327 L661 429 L775 429 L775 279 ZM740 544 L626 544 L626 582 L374 582 L374 544 L260 544 L260 582 L61 582 L61 629 L260 629 L260 668 L374 668 L374 629 L626 629 L626 668 L740 668 L740 629 L939 629 L912 582 L740 582 L740 544 ZM195 407 L81 407 L81 516 L195 516 L195 514 L805 514 L778 467 L195 467 L195 407 ZM919 405 L805 405 L805 514 L919 514 L919 405 Z" /><glyph glyph-name="uni84EC" unicode="&#x84ec;" d="M532 126 L532 142 L290 142 L290 186 L532 186 L532 211 L310 211 L310 255 L532 255 L532 280 L310 280 L310 324 L532 324 L532 359 L646 359 L646 324 L868 324 L868 280 L646 280 L646 255 L868 255 L868 211 L646 211 L646 186 L888 186 L888 142 L646 142 L646 126 L532 126 ZM254 461 L255 465 L266 541 L380 541 L377 521 L899 521 L899 455 L698 416 L899 375 L899 331 L587 394 L266 331 L266 375 L477 416 L258 460 L254 461 ZM228 98 L938 98 L919 52 L263 52 L224 91 L195 52 L61 52 L61 98 L114 98 L114 357 L61 357 L61 404 L228 404 L228 98 ZM790 639 L938 639 L938 595 L790 595 L790 554 L676 554 L676 595 L300 595 L300 554 L186 554 L186 595 L61 595 L61 639 L186 639 L186 668 L300 668 L300 639 L676 639 L676 668 L790 668 L790 639 ZM230 448 L107 448 L74 541 L196 541 L230 448 ZM787 477 L397 477 L588 438 L787 477 Z" /><glyph glyph-name="uni88AB" unicode="&#x88ab;" d="M301 599 L396 599 L284 392 L387 454 L387 383 L338 350 L401 210 L414 243 L414 615 L615 615 L615 668 L726 668 L726 615 L910 615 L910 480 L798 480 L798 608 L773 569 L726 569 L726 411 L891 411 L891 310 L773 201 L928 52 L796 52 L707 140 L612 52 L475 52 L635 206 L526 310 L526 218 L456 52 L340 52 L401 208 L314 208 L300 240 L300 52 L189 52 L189 218 L180 201 L72 201 L254 552 L101 552 L101 599 L191 599 L191 666 L301 666 L301 599 ZM526 411 L615 411 L615 569 L526 569 L526 411 ZM789 366 L526 366 L526 324 L647 324 L701 271 L789 359 L789 366 Z" /><glyph glyph-name="uni89C8" unicode="&#x89c8;" d="M152 446 L810 446 L810 188 L696 188 L696 440 L668 399 L266 399 L266 188 L152 188 L152 446 ZM615 103 L924 103 L896 54 L496 54 L496 190 L203 53 L75 53 L417 222 L417 376 L533 376 L533 208 L510 197 L615 197 L615 103 ZM570 459 L446 459 L566 668 L692 668 L649 593 L872 593 L851 545 L790 545 L842 459 L720 459 L667 545 L621 545 L570 459 ZM408 457 L294 457 L294 664 L408 664 L408 457 ZM221 457 L107 457 L107 657 L221 657 L221 457 Z" /><glyph glyph-name="uni8A89" unicode="&#x8a89;" d="M898 541 L789 541 L947 388 L826 388 L798 414 L207 414 L177 388 L53 388 L218 541 L96 541 L96 584 L646 584 L739 667 L863 667 L775 584 L923 584 L898 541 ZM256 458 L447 458 L447 521 L553 521 L553 458 L747 458 L651 541 L353 541 L256 458 ZM168 253 L168 297 L868 297 L842 253 L168 253 ZM281 172 L281 97 L744 97 L744 216 L856 216 L856 54 L168 54 L168 216 L744 216 L704 172 L281 172 ZM168 332 L168 376 L870 376 L853 332 L168 332 ZM409 667 L526 667 L584 607 L467 607 L409 667 ZM344 607 L219 607 L168 667 L286 667 L344 607 Z" /><glyph glyph-name="uni8BAD" unicode="&#x8bad;" d="M717 93 L608 93 L608 627 L717 627 L717 93 ZM903 53 L794 53 L794 666 L903 666 L903 53 ZM469 53 L358 53 L406 270 L406 667 L516 667 L516 270 L469 53 ZM181 530 L144 667 L260 667 L297 530 L181 530 ZM157 439 L97 439 L97 486 L272 486 L272 148 L343 174 L343 121 L157 53 L157 439 Z" /><glyph glyph-name="uni8BB8" unicode="&#x8bb8;" d="M106 667 L222 667 L259 530 L143 530 L106 667 ZM254 147 L325 173 L325 120 L139 53 L139 432 L64 432 L64 479 L254 479 L254 147 ZM690 329 L936 329 L908 285 L690 285 L690 53 L576 53 L576 285 L301 285 L301 329 L576 329 L576 558 L441 558 L394 460 L280 460 L379 667 L493 667 L462 602 L892 602 L864 558 L690 558 L690 329 Z" /><glyph glyph-name="uni8BDD" unicode="&#x8bdd;" d="M110 663 L233 663 L301 539 L178 539 L110 663 ZM900 672 L878 626 L682 614 L682 470 L914 470 L887 425 L682 425 L682 312 L780 312 L736 269 L475 269 L475 95 L780 95 L780 312 L892 312 L892 51 L363 51 L363 312 L571 312 L571 425 L329 425 L329 470 L571 470 L571 609 L352 598 L352 646 L900 672 ZM257 165 L331 205 L308 135 L145 48 L145 437 L85 437 L85 481 L257 481 L257 165 Z" /><glyph glyph-name="uni8BF7" unicode="&#x8bf7;" d="M287 522 L171 522 L134 658 L250 658 L287 522 ZM146 57 L146 418 L87 418 L87 465 L262 465 L262 152 L332 178 L332 125 L146 57 ZM502 214 L502 175 L774 175 L774 214 L502 214 ZM737 302 L502 302 L502 258 L774 258 L774 342 L737 302 ZM703 56 L679 100 L774 100 L774 130 L502 130 L502 56 L381 56 L381 347 L895 347 L895 56 L703 56 ZM697 565 L697 524 L878 524 L857 476 L697 476 L697 433 L913 433 L881 388 L376 388 L376 433 L581 433 L581 476 L403 476 L403 524 L581 524 L581 565 L382 565 L382 611 L581 611 L581 664 L697 664 L697 611 L906 611 L887 565 L697 565 Z" /><glyph glyph-name="uni8BFE" unicode="&#x8bfe;" d="M124 668 L240 668 L276 531 L161 531 L124 668 ZM152 439 L93 439 L93 486 L268 486 L268 147 L338 174 L338 121 L152 53 L152 439 ZM673 387 L673 336 L906 336 L884 290 L806 290 L901 53 L792 53 L697 290 L673 290 L673 53 L568 53 L568 290 L540 290 L446 53 L339 53 L436 290 L350 290 L336 336 L568 336 L568 387 L351 387 L351 667 L883 667 L883 387 L673 387 ZM782 509 L673 509 L673 430 L782 430 L782 509 ZM748 623 L673 623 L673 555 L782 555 L782 659 L748 623 ZM566 509 L457 509 L457 430 L566 430 L566 509 ZM566 623 L457 623 L457 555 L566 555 L566 623 Z" /><glyph glyph-name="uni8D39" unicode="&#x8d39;" d="M898 504 L688 504 L688 455 L931 455 L931 337 L762 337 L740 382 L817 382 L817 410 L688 410 L688 347 L574 347 L574 410 L398 410 L255 324 L781 324 L754 277 L280 277 L280 116 L166 116 L166 295 L69 295 L263 410 L106 410 L137 549 L311 549 L311 599 L94 599 L94 644 L311 644 L311 667 L425 667 L425 644 L574 644 L574 667 L688 667 L688 644 L898 644 L898 504 ZM902 55 L727 55 L513 126 L299 54 L114 54 L465 169 L465 249 L579 249 L579 163 L902 55 ZM895 130 L781 130 L781 324 L895 324 L895 130 ZM425 549 L574 549 L574 599 L425 599 L425 549 ZM425 455 L574 455 L574 504 L425 504 L425 455 ZM688 549 L783 549 L783 599 L688 599 L688 549 ZM230 455 L311 455 L311 504 L241 504 L230 455 Z" /><glyph glyph-name="uni8FD0" unicode="&#x8fd0;" d="M321 605 L321 649 L854 649 L828 605 L321 605 ZM707 219 L632 349 L754 349 L863 175 L291 175 L414 416 L291 416 L291 460 L874 460 L847 416 L532 416 L435 219 L707 219 ZM302 61 L258 107 L919 107 L895 61 L302 61 ZM258 107 L207 60 L81 60 L81 103 L144 103 L144 453 L88 453 L88 496 L258 496 L258 107 ZM154 554 L84 660 L218 660 L283 554 L154 554 Z" /><glyph glyph-name="uni8FD1" unicode="&#x8fd1;" d="M339 660 L894 659 L869 616 L453 616 L453 434 L938 434 L912 390 L777 390 L777 127 L663 127 L663 390 L453 390 L453 126 L329 126 L304 170 L339 170 L339 660 ZM252 105 L939 105 L919 60 L287 60 L248 98 L219 60 L61 60 L61 105 L138 105 L138 423 L61 423 L61 470 L252 470 L252 105 ZM220 660 L273 528 L150 528 L98 660 L220 660 Z" /><glyph glyph-name="uni8FD9" unicode="&#x8fd9;" d="M259 104 L908 104 L889 60 L294 60 L255 99 L224 60 L92 60 L92 104 L145 104 L145 423 L92 423 L92 469 L259 469 L259 104 ZM106 660 L227 660 L285 527 L159 527 L106 660 ZM844 547 L654 350 L865 144 L718 144 L583 276 L455 144 L308 144 L507 350 L351 503 L498 503 L579 424 L698 547 L319 547 L319 595 L530 595 L530 642 L652 642 L652 595 L902 595 L883 547 L844 547 Z" /><glyph glyph-name="uni8FDE" unicode="&#x8fde;" d="M936 268 L909 221 L673 221 L673 118 L559 118 L559 221 L259 221 L259 268 L559 268 L559 347 L298 347 L360 566 L285 566 L285 613 L374 613 L388 665 L515 665 L500 613 L894 613 L868 566 L487 566 L439 394 L559 394 L559 544 L673 544 L673 394 L896 394 L869 347 L673 347 L673 268 L936 268 ZM114 101 L114 398 L63 398 L63 443 L230 443 L230 101 L926 101 L905 56 L263 56 L226 96 L197 56 L63 56 L63 101 L114 101 ZM239 473 L117 473 L64 614 L185 614 L239 473 Z" /><glyph glyph-name="uni904D" unicode="&#x904d;" d="M890 122 L774 122 L774 166 L798 166 L798 253 L755 253 L755 122 L678 122 L678 253 L635 253 L635 122 L557 122 L557 253 L514 253 L514 122 L423 122 L423 422 L890 422 L890 122 ZM295 291 L295 636 L542 636 L542 668 L642 668 L642 636 L790 636 L766 592 L395 592 L395 509 L790 509 L790 637 L890 637 L890 465 L395 465 L395 291 L361 126 L261 126 L295 291 ZM242 99 L919 99 L899 53 L275 53 L239 94 L210 53 L80 53 L80 99 L130 99 L130 427 L80 427 L80 472 L242 472 L242 99 ZM145 529 L94 662 L211 662 L264 529 L145 529 ZM678 297 L678 379 L635 379 L635 297 L678 297 ZM557 297 L557 379 L514 379 L514 297 L557 297 ZM798 297 L798 379 L755 379 L755 297 L798 297 Z" /><glyph glyph-name="uni90E8" unicode="&#x90e8;" d="M939 658 L881 407 L939 407 L939 79 L775 135 L775 183 L835 167 L835 360 L763 360 L825 613 L700 613 L700 52 L593 52 L593 658 L939 658 ZM204 292 L204 98 L429 98 L429 340 L540 340 L540 52 L90 52 L90 340 L426 340 L386 292 L204 292 ZM569 389 L61 389 L61 436 L162 436 L129 541 L245 541 L278 436 L348 436 L411 541 L527 541 L467 436 L569 436 L569 389 ZM547 575 L64 575 L64 619 L260 619 L260 668 L374 668 L374 619 L577 619 L547 575 Z" /><glyph glyph-name="uni9177" unicode="&#x9177;" d="M456 599 L360 599 L360 510 L480 510 L480 433 L673 433 L673 554 L595 554 L580 482 L480 482 L480 466 L381 466 L381 510 L480 510 L480 482 L515 640 L614 640 L605 598 L673 598 L673 666 L773 666 L773 598 L921 598 L896 554 L773 554 L773 433 L934 433 L910 389 L480 389 L480 55 L65 55 L65 510 L173 510 L173 599 L65 599 L65 642 L480 642 L456 599 ZM786 303 L612 303 L612 99 L811 99 L811 347 L910 347 L910 55 L513 55 L513 347 L811 347 L786 303 ZM220 251 L154 251 L154 203 L381 203 L381 266 L371 251 L284 251 L284 466 L249 466 L249 329 L220 251 ZM154 99 L381 99 L381 159 L154 159 L154 99 ZM360 295 L381 295 L381 466 L360 466 L360 295 ZM249 510 L284 510 L284 599 L249 599 L249 510 ZM173 329 L173 466 L154 466 L154 278 L173 329 Z" /><glyph glyph-name="uni91CC" unicode="&#x91cc;" d="M911 52 L62 52 L62 99 L441 99 L441 209 L102 209 L102 256 L441 256 L441 328 L137 328 L137 668 L873 668 L873 328 L555 328 L555 256 L900 256 L873 209 L555 209 L555 99 L937 99 L911 52 ZM724 621 L555 621 L555 521 L759 521 L759 659 L724 621 ZM759 376 L759 519 L734 474 L555 474 L555 376 L759 376 ZM251 621 L251 521 L441 521 L441 621 L251 621 ZM441 376 L441 474 L251 474 L251 376 L441 376 Z" /><glyph glyph-name="uni9500" unicode="&#x9500;" d="M392 54 L415 163 L415 537 L624 537 L624 667 L738 667 L738 537 L816 537 L783 494 L528 494 L528 411 L816 411 L816 537 L930 537 L930 54 L713 54 L687 99 L816 99 L816 227 L528 227 L528 163 L505 54 L392 54 ZM139 264 L62 264 L62 308 L139 308 L139 451 L62 451 L62 494 L376 494 L348 451 L253 451 L253 308 L376 308 L348 264 L253 264 L253 137 L368 160 L360 102 L139 54 L139 264 ZM528 368 L528 270 L816 270 L816 368 L528 368 ZM348 566 L62 566 L101 667 L215 667 L193 609 L376 609 L348 566 ZM890 559 L783 559 L829 659 L937 659 L890 559 ZM462 559 L414 659 L522 659 L568 559 L462 559 Z" /><glyph glyph-name="uni957F" unicode="&#x957f;" d="M258 352 L100 352 L100 398 L258 398 L258 667 L392 667 L392 398 L900 398 L874 352 L557 352 L858 53 L693 53 L392 352 L392 99 L514 99 L492 53 L258 53 L258 352 ZM452 417 L651 667 L798 667 L599 417 L452 417 Z" /><glyph glyph-name="uni95EE" unicode="&#x95ee;" d="M595 513 L566 466 L411 466 L411 210 L595 210 L595 513 L709 513 L709 163 L297 163 L297 513 L595 513 ZM912 53 L741 53 L715 101 L798 101 L798 668 L912 668 L912 53 ZM202 53 L88 53 L88 524 L202 524 L202 53 ZM796 668 L768 625 L261 625 L261 668 L796 668 ZM241 550 L125 550 L88 668 L204 668 L241 550 Z" /><glyph glyph-name="uni95FB" unicode="&#x95fb;" d="M745 555 L716 507 L680 507 L680 201 L742 207 L717 158 L680 155 L680 53 L566 53 L566 145 L250 118 L246 165 L303 170 L303 507 L247 507 L247 555 L745 555 ZM915 53 L738 53 L712 101 L801 101 L801 668 L915 668 L915 53 ZM199 53 L85 53 L85 524 L199 524 L199 53 ZM566 321 L537 274 L417 274 L417 179 L566 192 L566 427 L537 379 L417 379 L417 321 L566 321 ZM801 668 L772 625 L258 625 L258 668 L801 668 ZM237 550 L122 550 L85 668 L201 668 L237 550 ZM566 427 L566 507 L417 507 L417 427 L566 427 Z" /><glyph glyph-name="uni961F" unicode="&#x961f;" d="M197 55 L81 55 L81 669 L423 669 L322 449 L398 449 L398 166 L206 206 L206 250 L282 234 L282 404 L197 404 L197 55 ZM919 52 L798 52 L627 300 L462 55 L340 55 L557 383 L557 668 L679 668 L679 376 L648 331 L728 331 L919 52 ZM197 622 L197 428 L285 622 L197 622 Z" /><glyph glyph-name="uni97F3" unicode="&#x97f3;" d="M893 53 L119 53 L119 353 L781 353 L756 306 L231 306 L231 225 L781 225 L781 353 L893 353 L893 53 ZM897 387 L78 387 L78 435 L624 435 L682 566 L801 566 L745 435 L922 435 L897 387 ZM781 99 L781 180 L231 180 L231 99 L781 99 ZM897 580 L78 580 L78 627 L434 627 L434 668 L547 668 L547 627 L922 627 L897 580 ZM183 565 L304 565 L356 449 L237 449 L183 565 Z" /><glyph glyph-name="uni987E" unicode="&#x987e;" d="M743 621 L709 554 L916 554 L916 169 L819 169 L819 553 L793 506 L624 506 L624 169 L528 169 L528 554 L602 554 L636 621 L528 621 L528 668 L921 668 L895 621 L743 621 ZM390 305 L390 506 L336 506 L336 122 L481 158 L481 110 L244 53 L244 554 L481 554 L481 258 L358 258 L358 305 L390 305 ZM100 283 L100 668 L481 668 L481 621 L204 621 L204 278 L169 53 L67 53 L100 283 ZM827 145 L933 53 L805 53 L723 124 L642 53 L514 53 L670 191 L670 454 L774 454 L774 169 L746 145 L827 145 Z" /><glyph glyph-name="uni9884" unicode="&#x9884;" d="M243 511 L298 627 L87 627 L87 670 L427 670 L327 456 L431 456 L431 304 L322 304 L322 412 L289 412 L289 50 L122 50 L101 93 L182 93 L182 412 L87 412 L87 456 L173 456 L92 565 L201 565 L243 511 ZM761 627 L696 527 L889 527 L889 191 L789 191 L903 50 L796 50 L671 204 L561 50 L436 50 L531 181 L450 181 L450 527 L557 527 L557 498 L638 627 L450 627 L450 670 L913 670 L891 627 L761 627 ZM724 276 L687 225 L762 225 L778 205 L778 483 L557 483 L557 218 L615 300 L615 446 L724 446 L724 276 Z" /><glyph glyph-name="uni9986" unicode="&#x9986;" d="M810 102 L810 245 L924 245 L924 55 L412 55 L412 482 L782 482 L755 435 L526 435 L526 350 L782 350 L782 482 L896 482 L896 302 L526 302 L526 245 L810 245 L784 197 L526 197 L526 102 L810 102 ZM245 482 L245 144 L363 175 L345 117 L129 53 L129 482 L245 482 ZM398 624 L605 624 L605 667 L719 667 L719 624 L811 624 L785 576 L512 576 L512 515 L398 515 L398 624 ZM243 667 L217 607 L373 607 L373 463 L271 463 L271 561 L73 561 L122 667 L243 667 ZM926 516 L811 516 L811 624 L926 624 L926 516 Z" /><glyph glyph-name="uni9996" unicode="&#x9996;" d="M564 541 L525 475 L879 475 L879 61 L120 61 L120 475 L405 475 L445 541 L79 541 L79 589 L276 589 L234 659 L343 659 L385 589 L615 589 L657 659 L765 659 L725 589 L920 589 L894 541 L564 541 ZM732 429 L233 429 L233 349 L768 349 L768 462 L732 429 ZM768 106 L768 181 L233 181 L233 106 L768 106 ZM768 300 L233 300 L233 230 L768 230 L768 300 Z" /><glyph glyph-name="uni9A8C" unicode="&#x9a8c;" d="M421 648 L421 419 L617 668 L752 668 L670 565 L800 565 L935 419 L800 419 L668 561 L556 419 L307 419 L307 648 L421 648 ZM218 582 L218 390 L442 390 L442 52 L178 52 L152 100 L326 100 L326 343 L104 343 L104 582 L218 582 ZM469 99 L689 99 L710 160 L635 160 L598 325 L696 325 L724 200 L773 338 L892 338 L810 99 L923 99 L896 52 L469 52 L469 99 ZM473 325 L571 325 L608 160 L510 160 L473 325 ZM824 363 L521 363 L521 411 L850 411 L824 363 ZM266 209 L64 166 L64 226 L266 270 L266 209 ZM77 648 L307 648 L281 601 L77 601 L77 648 Z" /><glyph glyph-name="uni9F84" unicode="&#x9f84;" d="M370 351 L484 351 L484 56 L63 56 L63 351 L177 351 L177 158 L245 349 L323 349 L288 252 L316 252 L370 157 L370 351 ZM477 557 L450 510 L358 510 L358 420 L477 420 L450 373 L63 373 L63 420 L102 420 L102 618 L216 618 L216 420 L244 420 L244 665 L358 665 L358 557 L477 557 ZM858 664 L936 366 L821 366 L754 616 L671 616 L604 366 L489 366 L568 664 L858 664 ZM509 320 L923 320 L923 267 L833 108 L908 100 L878 55 L524 93 L528 141 L692 123 L776 274 L509 274 L509 320 ZM776 396 L681 396 L656 503 L750 503 L776 396 ZM370 103 L370 122 L311 122 L269 198 L242 122 L177 122 L177 103 L370 103 Z" /></font>
</defs>
</svg>
