<?xml version="1.0" standalone="no"?><!DOCTYPE svg PUBLIC "-//W3C//DTD SVG 1.1//EN" "http://www.w3.org/Graphics/SVG/1.1/DTD/svg11.dtd" ><svg xmlns="http://www.w3.org/2000/svg"><metadata></metadata><defs><font id="fonteditor" horiz-adv-x="1024"><font-face font-family="[W]åb?N[W^QÆWGBK" font-weight="400" font-stretch="normal" units-per-em="1024" panose-1="2 1 6 4 0 0 0 0 0 0" ascent="880" descent="-284" x-height="0" bbox="-112 -238 1023 863" underline-thickness="0" underline-position="0" unicode-range="U+0021-ff1f" /><missing-glyph horiz-adv-x="0"  /><glyph glyph-name="exclam" unicode="!" d="M196 230 L196 674 Q190 722 151.5 722 Q113 722 108 674 L108 230 Q113 182 151.5 182 Q190 182 196 230 ZM94 52 Q98 -11 154 -9 Q207 0 210 48 Q208 109 152 110 Q123 108 108.5 89 Q94 70 94 52 Z" /><glyph glyph-name="quotedbl" unicode="&quot;" d="M284 578 L284 718 Q278 761 241.5 761 Q205 761 200 718 L200 578 Q205 534 241.5 534 Q278 534 284 578 ZM140 582 L140 718 Q134 761 97.5 761 Q61 761 56 718 L56 582 Q61 534 97.5 534 Q134 534 140 582 Z" /><glyph glyph-name="parenleft" unicode="(" d="M152 356 Q153 455 174.5 554 Q196 653 222 710 Q238 758 205.5 770.5 Q173 783 148 742 Q117 676 92.5 561.5 Q68 447 68 352 Q68 141 146 -29 Q177 -83 210.5 -67 Q244 -51 226 2 Q196 68 174.5 163.5 Q153 259 152 356 Z" /><glyph glyph-name="parenright" unicode=")" d="M136 356 Q134 259 112.5 163.5 Q91 68 62 2 Q43 -51 76.5 -67 Q110 -83 142 -29 Q220 141 220 352 Q219 447 194.5 561.5 Q170 676 140 742 Q114 783 81.5 770.5 Q49 758 66 710 Q91 653 112.5 554 Q134 455 136 356 Z" /><glyph glyph-name="plus" unicode="+" d="M264 570 L264 394 L92 394 Q48 388 48 351.5 Q48 315 92 310 L264 310 L264 138 Q269 90 305.5 90 Q342 90 348 138 L348 310 L524 310 Q567 315 567 351.5 Q567 388 524 394 L348 394 L348 570 Q342 613 305.5 613 Q269 613 264 570 Z" /><glyph glyph-name="comma" unicode="," d="M162 -93 L222 6 Q246 62 210.5 81.5 Q175 101 142 50 L82 -53 Q61 -106 94.5 -122 Q128 -138 162 -93 Z" /><glyph glyph-name="hyphen" unicode="-" d="M92 308 L524 308 Q567 313 567 349.5 Q567 386 524 392 L92 392 Q48 386 48 349.5 Q48 313 92 308 Z" /><glyph glyph-name="period" unicode="." d="M70 52 Q74 -11 130 -9 Q183 0 186 48 Q184 109 128 110 Q99 108 84.5 89 Q70 70 70 52 Z" /><glyph glyph-name="slash" unicode="/" d="M108 26 L388 662 Q405 713 370.5 722.5 Q336 732 316 694 L30 54 Q12 -1 48 -6.5 Q84 -12 108 26 Z" /><glyph glyph-name="zero" unicode="0" d="M32 366 Q33 195 99.5 94.5 Q166 -6 276 -9 Q392 -5 453.5 98 Q515 201 516 364 Q514 527 451 625 Q388 723 276 726 Q158 722 95 621.5 Q32 521 32 366 ZM126 372 Q126 498 166 571 Q206 644 276 646 Q338 645 378 571.5 Q418 498 420 364 Q418 228 376.5 149.5 Q335 71 274 70 Q207 73 167 158.5 Q127 244 126 372 Z" /><glyph glyph-name="one" unicode="1" d="M36 638 L132 638 L132 30 Q137 -11 176.5 -10.5 Q216 -10 222 34 L222 670 Q223 716 180 718 L36 718 Q2 713 2 678 Q2 643 36 638 Z" /><glyph glyph-name="two" unicode="2" d="M180 70 L416 388 Q467 464 468 528 Q466 618 409.5 668.5 Q353 719 262 720 Q158 716 99.5 645.5 Q41 575 40 478 Q45 441 82 442 Q119 443 126 482 Q131 636 260 640 Q367 639 372 528 Q368 483 345.5 443.5 Q323 404 322 406 L70 66 Q28 -1 94 -9 L454 -9 Q491 -4 491 30.5 Q491 65 454 70 L180 70 Z" /><glyph glyph-name="three" unicode="3" d="M488 200 Q489 328 364 382 Q443 438 448 542 Q446 629 393.5 677 Q341 725 260 726 Q175 724 122 674.5 Q69 625 68 542 Q72 497 107 497 Q142 497 152 542 Q159 645 260 646 Q353 648 360 540 Q359 486 330 449.5 Q301 413 256 412 Q214 407 214 372.5 Q214 338 256 334 Q396 333 398 198 Q394 72 252 70 Q161 70 130 160 Q106 213 69 200 Q32 187 48 132 Q104 -12 250 -9 Q362 -7 424.5 50.5 Q487 108 488 200 Z" /><glyph glyph-name="four" unicode="4" d="M92 178 L344 178 L344 30 Q349 -11 388.5 -11 Q428 -11 434 30 L434 178 L480 178 Q516 183 516 218 Q516 253 480 258 L434 258 L434 650 Q429 715 373 723.5 Q317 732 268 660 L34 270 Q-21 182 92 178 ZM124 258 L344 630 L344 258 L124 258 Z" /><glyph glyph-name="five" unicode="5" d="M440 718 L198 718 Q157 717 156 686 L116 442 Q93 328 194 370 Q237 384 284 384 Q331 383 363.5 345 Q396 307 398 242 Q395 67 252 66 Q172 62 108 124 Q68 156 43.5 131 Q19 106 48 64 Q118 -16 248 -9 Q483 -2 488 242 Q486 341 433.5 402.5 Q381 464 300 466 Q243 464 204 442 L234 642 L440 642 Q480 646 480 679.5 Q480 713 440 718 Z" /><glyph glyph-name="six" unicode="6" d="M312 710 Q198 610 126 488.5 Q54 367 52 246 Q56 -1 268 -9 Q493 -1 496 220 Q494 341 438 401.5 Q382 462 292 462 Q241 461 196 434 Q264 571 378 654 Q403 680 378 709.5 Q353 739 312 710 ZM144 226 Q149 380 274 382 Q392 376 400 218 Q392 67 270 66 Q153 69 144 226 Z" /><glyph glyph-name="seven" unicode="7" d="M196 22 L468 642 Q499 714 414 718 L68 718 Q27 713 27 678 Q27 643 68 638 L372 638 L112 54 Q91 -5 130.5 -13.5 Q170 -22 196 22 Z" /><glyph glyph-name="eight" unicode="8" d="M88 538 Q86 442 172 394 Q49 346 52 202 Q53 93 110.5 42 Q168 -9 264 -9 Q497 -1 496 214 Q494 289 457 337.5 Q420 386 364 398 Q398 411 428 451 Q458 491 460 546 Q455 724 276 726 Q86 720 88 538 ZM172 544 Q173 637 274 646 Q370 640 376 542 Q371 438 268 434 Q173 436 172 544 ZM148 210 Q147 344 270 352 Q399 347 400 214 Q392 64 274 64 Q149 72 148 210 Z" /><glyph glyph-name="nine" unicode="9" d="M244 10 Q347 91 419.5 220 Q492 349 496 488 Q489 724 284 726 Q58 723 52 486 Q52 378 103.5 314.5 Q155 251 252 250 Q320 251 356 286 Q291 141 184 66 Q142 28 166.5 2 Q191 -24 244 10 ZM400 484 Q398 404 361.5 364.5 Q325 325 274 326 Q144 328 144 486 Q152 640 272 642 Q400 636 400 484 Z" /><glyph glyph-name="colon" unicode=":" d="M70 384 Q74 320 130 322 Q183 331 186 380 Q184 441 128 442 Q99 440 84.5 421 Q70 402 70 384 ZM70 52 Q74 -11 130 -9 Q183 0 186 48 Q184 109 128 110 Q99 108 84.5 89 Q70 70 70 52 Z" /><glyph glyph-name="semicolon" unicode=";" d="M110 -97 L178 10 Q199 68 162 85.5 Q125 103 92 50 L32 -53 Q12 -101 45.5 -117.5 Q79 -134 110 -97 ZM68 384 Q72 320 128 322 Q181 331 184 380 Q182 441 126 442 Q97 440 82.5 421 Q68 402 68 384 Z" /><glyph glyph-name="less" unicode="&lt;" d="M84 306 L484 106 Q533 79 558 110.5 Q583 142 532 174 L152 354 L536 538 Q583 565 565 595 Q547 625 504 610 L84 402 Q12 354 84 306 Z" /><glyph glyph-name="greater" unicode="&gt;" d="M76 542 L460 354 L80 166 Q44 142 56.5 111.5 Q69 81 112 98 L532 306 Q610 354 532 402 L108 614 Q75 624 54 595.5 Q33 567 76 542 Z" /><glyph glyph-name="at" unicode="@" d="M320 332 Q353 468 450 472 Q476 471 500 449 Q524 427 518 388 Q501 312 469 267.5 Q437 223 372 222 Q299 224 320 332 ZM572 278 L644 486 Q650 520 616.5 532 Q583 544 564 504 L554 476 Q524 553 450 556 Q346 549 290.5 467 Q235 385 232 304 Q228 237 260.5 190.5 Q293 144 364 142 Q423 139 476 194 Q484 119 580 132 Q675 154 737 228 Q799 302 802 410 Q798 557 700 642.5 Q602 728 456 730 Q271 726 160.5 621.5 Q50 517 48 354 Q50 176 155 82 Q260 -12 440 -13 Q624 -15 728 78 Q755 106 734 128 Q713 150 680 128 Q597 52 460 48 Q296 49 213 128 Q130 207 130 346 Q134 491 229 574.5 Q324 658 454 660 Q576 658 647 590 Q718 522 720 406 Q719 335 684.5 280 Q650 225 590 204 Q566 194 560 208 Q554 222 572 278 Z" /><glyph glyph-name="A" unicode="a" d="M98 18 L150 150 L480 150 L526 30 Q551 -22 585 -6.5 Q619 9 608 56 L384 646 Q353 719 311 719.5 Q269 720 240 646 L20 48 Q6 -7 42 -11 Q78 -15 98 18 ZM452 226 L176 226 L312 616 L452 226 Z" /><glyph glyph-name="B" unicode="b" d="M148 638 L314 638 Q416 636 426 538 Q424 483 392 449 Q360 415 314 414 L148 414 L148 638 ZM148 334 L320 334 Q486 325 482 200 Q480 127 434 97.5 Q388 68 318 70 L148 70 L148 334 ZM410 386 Q525 434 518 554 Q516 625 462.5 670.5 Q409 716 322 718 L110 718 Q62 718 62 670 L62 42 Q59 -10 108 -9 L316 -9 Q574 -4 574 202 Q574 352 410 386 Z" /><glyph glyph-name="C" unicode="c" d="M128 354 Q129 487 191.5 563.5 Q254 640 358 642 Q399 640 438.5 622.5 Q478 605 498 588 Q538 558 563 588 Q588 618 564 650 Q495 722 358 722 Q209 719 121.5 620.5 Q34 522 32 354 Q38 -9 350 -9 Q467 -14 566 40 Q605 71 582.5 104.5 Q560 138 522 120 Q452 72 352 70 Q127 80 128 354 Z" /><glyph glyph-name="D" unicode="d" d="M66 46 Q67 -13 122 -9 L262 -9 Q436 -5 523 98 Q610 201 610 368 Q610 523 528.5 619 Q447 715 280 718 L118 718 Q68 715 66 670 L66 46 ZM156 638 L276 638 Q514 628 516 370 Q515 246 452.5 159.5 Q390 73 266 70 L156 70 L156 638 Z" /><glyph glyph-name="E" unicode="e" d="M510 718 L106 718 Q55 715 58 670 L58 46 Q61 -5 106 -9 L508 -9 Q551 -4 551 30.5 Q551 65 508 70 L148 70 L148 316 L500 316 Q543 321 543 356 Q543 391 500 396 L148 396 L148 638 L510 638 Q553 643 553 678 Q553 713 510 718 Z" /><glyph glyph-name="F" unicode="f" d="M148 30 L148 318 L518 318 Q561 323 561 358 Q561 393 518 398 L148 398 L148 638 L532 638 Q575 643 575 678 Q575 713 532 718 L110 718 Q62 712 62 670 L62 30 Q67 -11 104.5 -11 Q142 -11 148 30 Z" /><glyph glyph-name="G" unicode="g" d="M444 326 L572 326 Q555 63 362 74 Q265 74 196 149.5 Q127 225 124 364 Q125 482 189.5 562 Q254 642 370 646 Q451 645 532 582 Q574 555 601 578.5 Q628 602 598 640 Q529 717 370 726 Q222 723 128.5 624 Q35 525 32 362 Q34 183 124 88 Q214 -7 364 -9 Q502 -5 582 85.5 Q662 176 664 316 Q665 368 644 387.5 Q623 407 566 406 L444 406 Q400 401 400 366 Q400 331 444 326 Z" /><glyph glyph-name="H" unicode="h" d="M622 38 L622 670 Q616 722 576.5 722 Q537 722 532 670 L532 394 L152 394 L152 670 Q146 722 106.5 722 Q67 722 62 670 L62 44 Q67 -7 106.5 -7 Q146 -7 152 46 L152 318 L532 318 L532 38 Q537 -9 576.5 -9 Q616 -9 622 38 Z" /><glyph glyph-name="I" unicode="i" d="M158 678 Q152 724 112.5 723.5 Q73 723 68 676 L68 34 Q73 -15 112.5 -14 Q152 -13 158 36 L158 678 Z" /><glyph glyph-name="K" unicode="k" d="M58 30 Q63 -11 102.5 -10.5 Q142 -10 148 34 L148 338 L488 2 Q533 -32 562.5 -6.5 Q592 19 552 66 L232 378 L532 646 Q565 682 539.5 709.5 Q514 737 476 710 L148 410 L148 678 Q142 726 102.5 726 Q63 726 58 678 L58 30 Z" /><glyph glyph-name="L" unicode="l" d="M484 -9 Q527 -3 527 35.5 Q527 74 484 80 L148 80 L148 678 Q142 726 102.5 726 Q63 726 58 678 L58 78 Q57 22 80 6 Q103 -10 158 -9 L484 -9 Z" /><glyph glyph-name="M" unicode="m" d="M380 26 Q393 -10 425 -10 Q457 -10 472 28 L648 610 L740 30 Q752 -18 788.5 -12 Q825 -6 822 50 L720 668 Q705 721 652.5 721.5 Q600 722 580 670 L426 146 L282 664 Q259 725 206 723.5 Q153 722 136 654 L32 52 Q28 -2 64.5 -3 Q101 -4 116 46 L212 610 L380 26 Z" /><glyph glyph-name="N" unicode="n" d="M60 30 Q65 -11 103.5 -10.5 Q142 -10 148 34 L148 562 L152 562 L526 26 Q559 -16 590 -8.5 Q621 -1 624 38 L624 678 Q618 726 579.5 726 Q541 726 536 678 L536 146 L158 690 Q126 730 94 724 Q62 718 60 670 L60 30 Z" /><glyph glyph-name="O" unicode="o" d="M128 364 Q132 631 356 638 Q465 635 520 558.5 Q575 482 576 360 Q576 227 520.5 151 Q465 75 352 74 Q240 75 184 153 Q128 231 128 364 ZM32 360 Q39 -6 352 -9 Q512 -7 592 89 Q672 185 672 358 Q671 525 590 624 Q509 723 356 726 Q208 722 121 619 Q34 516 32 360 Z" /><glyph glyph-name="P" unicode="p" d="M148 642 L290 642 Q439 635 442 494 Q441 350 290 342 L148 342 L148 642 ZM60 30 Q65 -11 103.5 -11 Q142 -11 148 30 L148 262 L290 262 Q524 269 534 498 Q534 597 474.5 656.5 Q415 716 294 718 L108 718 Q57 722 60 666 L60 30 Z" /><glyph glyph-name="Q" unicode="q" d="M628 -7 Q663 -35 688 -10 Q713 15 684 52 L608 126 Q670 217 672 354 Q670 525 584 624 Q498 723 352 726 Q196 724 114 625.5 Q32 527 32 356 Q42 -3 332 -9 Q471 -11 556 62 L628 -7 ZM492 238 Q449 273 424.5 246 Q400 219 436 178 L496 122 Q447 67 332 72 Q244 71 187 142 Q130 213 128 362 Q127 490 180 567 Q233 644 350 646 Q469 643 522.5 563 Q576 483 576 358 Q576 265 540 190 L492 238 Z" /><glyph glyph-name="R" unicode="r" d="M148 642 L270 642 Q350 640 384 605 Q418 570 418 518 Q416 449 374 418 Q332 387 274 388 L148 388 L148 642 ZM456 2 Q493 -27 521.5 -3.5 Q550 20 520 58 L264 314 L300 314 Q507 317 510 522 Q507 716 282 718 L108 718 Q61 713 60 670 L60 30 Q65 -11 103.5 -10.5 Q142 -10 148 34 L148 310 L456 2 Z" /><glyph glyph-name="S" unicode="s" d="M240 640 Q307 638 350 606 Q388 578 412.5 605.5 Q437 633 416 662 Q333 729 230 724 Q139 724 84 681 Q29 638 28 550 Q28 479 77 432.5 Q126 386 220 346 Q386 265 376 194 Q372 129 321 98 Q270 67 212 72 Q147 74 88 110 Q52 127 31.5 97.5 Q11 68 36 40 Q104 -13 214 -9 Q354 -2 413.5 54.5 Q473 111 472 194 Q473 263 424.5 313 Q376 363 264 418 Q223 435 174.5 467.5 Q126 500 122 550 Q122 640 240 640 Z" /><glyph glyph-name="T" unicode="t" d="M48 718 Q8 712 8 675.5 Q8 639 48 634 L194 634 L194 30 Q199 -11 237.5 -11 Q276 -11 282 30 L282 634 L428 634 Q471 639 471 675.5 Q471 712 428 718 L48 718 Z" /><glyph glyph-name="U" unicode="u" d="M148 678 Q142 724 103.5 724 Q65 724 60 678 L60 278 Q64 -17 350 -9 Q616 -11 624 278 L624 678 Q618 724 579.5 724 Q541 724 536 678 L536 278 Q534 175 482.5 122.5 Q431 70 350 70 Q259 68 204 116 Q149 164 148 280 L148 678 Z" /><glyph glyph-name="W" unicode="w" d="M110 690 Q96 732 58.5 725 Q21 718 26 662 L138 44 Q153 -10 204 -10.5 Q255 -11 276 42 L426 578 L576 46 Q596 -9 647 -7.5 Q698 -6 716 54 L828 662 Q834 724 796 727.5 Q758 731 742 670 L644 112 L640 102 L472 690 Q457 730 425.5 730 Q394 730 380 690 L212 106 L110 690 Z" /><glyph glyph-name="Y" unicode="y" d="M88 698 Q56 740 25.5 719 Q-5 698 16 650 L212 334 L212 30 Q217 -11 255.5 -11 Q294 -11 300 30 L300 334 L496 650 Q519 698 487 719 Q455 740 424 698 L256 422 L88 698 Z" /><glyph glyph-name="underscore" unicode="_" d="M50 -55 Q10 -60 10 -94 Q10 -128 50 -129 L526 -129 Q561 -124 561.5 -91.5 Q562 -59 528 -55 L50 -55 Z" /><glyph glyph-name="a" unicode="a" d="M518 -1 Q551 3 552 38 Q553 73 522 78 L506 78 Q481 78 480 114 L480 358 Q473 544 272 538 Q193 538 135 502.5 Q77 467 58 394 Q53 352 91 348.5 Q129 345 144 374 Q177 472 274 466 Q394 463 394 370 Q392 301 276 298 Q174 302 100 258 Q31 207 38 130 Q42 58 93 22.5 Q144 -13 220 -13 Q257 -13 309.5 4 Q362 21 400 66 Q401 -2 468 -1 L518 -1 ZM396 198 Q387 91 262 62 Q135 37 120 132 Q117 185 153 207 Q189 229 246 230 Q317 232 342.5 240 Q368 248 396 262 L396 198 Z" /><glyph glyph-name="b" unicode="b" d="M64 30 Q69 -11 107.5 -11 Q146 -11 152 30 L152 58 Q198 -13 296 -9 Q532 2 532 266 Q529 392 465 466 Q401 540 300 542 Q211 538 152 466 L152 734 Q146 785 107.5 785 Q69 785 64 734 L64 30 ZM150 262 Q150 338 188 398 Q226 458 300 462 Q362 460 402 404 Q442 348 444 258 Q439 67 296 62 Q230 63 190.5 118.5 Q151 174 150 262 Z" /><glyph glyph-name="c" unicode="c" d="M34 264 Q35 136 101 64.5 Q167 -7 280 -9 Q314 -8 350 0.5 Q386 9 406 20 Q436 42 425.5 75.5 Q415 109 382 98 Q337 71 280 68 Q128 71 126 266 Q131 466 280 462 Q331 460 370 438 Q397 427 413.5 451.5 Q430 476 406 506 Q363 545 276 542 Q150 540 91.5 464.5 Q33 389 34 264 Z" /><glyph glyph-name="d" unicode="d" d="M418 262 Q416 174 376.5 118.5 Q337 63 272 62 Q129 67 124 258 Q125 348 165 404 Q205 460 268 462 Q341 458 379 398 Q417 338 418 262 ZM504 30 L504 734 Q498 785 459.5 785 Q421 785 416 734 L416 466 Q357 538 268 542 Q166 540 102 466 Q38 392 36 266 Q35 2 272 -9 Q369 -13 416 58 L416 30 Q421 -11 459.5 -11 Q498 -11 504 30 Z" /><glyph glyph-name="e" unicode="e" d="M446 226 Q487 226 498 243 Q509 260 508 292 Q508 374 449.5 454.5 Q391 535 272 542 Q155 539 91.5 461 Q28 383 28 262 Q30 128 99 60 Q168 -8 280 -9 Q419 -9 486 66 Q509 99 487 120 Q465 141 424 114 Q367 68 280 68 Q131 73 118 226 L446 226 ZM120 294 Q136 459 272 462 Q399 454 422 294 L120 294 Z" /><glyph glyph-name="f" unicode="f" d="M190 458 L246 458 Q294 462 294 495.5 Q294 529 246 534 L190 534 L190 666 Q188 702 226 702 L246 702 Q297 707 297 742 Q297 777 246 782 L218 782 Q95 782 98 666 L98 534 L62 534 Q14 529 14 495.5 Q14 462 62 458 L98 458 L98 30 Q103 -14 143.5 -14 Q184 -14 190 30 L190 458 Z" /><glyph glyph-name="g" unicode="g" d="M124 286 Q129 452 278 462 Q413 459 422 274 Q428 88 266 86 Q127 88 124 286 ZM504 498 Q498 543 459.5 543 Q421 543 416 498 L416 474 Q375 535 278 542 Q164 537 100.5 459.5 Q37 382 36 284 Q42 20 264 14 Q379 17 416 86 L416 -9 Q413 -84 363 -123.5 Q313 -163 252 -157 Q171 -146 120 -115 Q73 -93 52.5 -120.5 Q32 -148 72 -183 Q142 -229 252 -237 Q360 -238 430.5 -176.5 Q501 -115 504 -3 L504 498 Z" /><glyph glyph-name="h" unicode="h" d="M402 30 Q407 -11 446.5 -10 Q486 -9 492 36 L492 334 Q487 537 290 542 Q216 540 148 470 L148 734 Q142 785 103.5 785 Q65 785 60 734 L60 30 Q65 -9 104.5 -9 Q144 -9 150 30 L150 330 Q151 397 188 429.5 Q225 462 278 462 Q392 456 402 330 L402 30 Z" /><glyph glyph-name="i" unicode="i" d="M58 670 Q60 616 116 614 Q165 616 170 670 Q168 722 112 726 Q61 722 58 670 ZM158 494 Q152 543 113.5 542 Q75 541 70 488 L70 30 Q75 -11 113.5 -11 Q152 -11 158 30 L158 494 Z" /><glyph glyph-name="j" unicode="j" d="M78 670 Q80 616 136 614 Q185 616 190 670 Q188 722 132 726 Q81 722 78 670 ZM178 494 Q172 542 133.5 542 Q95 542 90 494 L90 2 Q88 -60 65 -84 Q42 -108 14 -107 Q-9 -105 -43 -85 Q-92 -71 -102 -106.5 Q-112 -142 -69 -173 Q-24 -193 12 -195 Q176 -195 178 -1 L178 494 Z" /><glyph glyph-name="k" unicode="k" d="M412 458 Q452 496 425.5 522 Q399 548 348 514 L148 350 L148 734 Q142 783 103.5 783 Q65 783 60 734 L60 40 Q65 -13 103.5 -13 Q142 -13 148 40 L148 250 L376 10 Q420 -27 447 -3 Q474 21 436 70 L216 302 L412 458 Z" /><glyph glyph-name="l" unicode="l" d="M168 734 Q162 783 123.5 782.5 Q85 782 80 732 L80 42 Q85 -8 123.5 -8 Q162 -8 168 42 L168 734 Z" /><glyph glyph-name="m" unicode="m" d="M382 30 Q387 -12 426.5 -12 Q466 -12 472 30 L472 338 Q480 455 594 462 Q704 457 706 338 L706 30 Q711 -12 750.5 -11.5 Q790 -11 796 34 L796 334 Q787 535 604 542 Q492 536 440 450 Q393 538 278 542 Q202 541 150 478 L150 494 Q144 539 104.5 539 Q65 539 60 494 L60 30 Q65 -12 104.5 -11.5 Q144 -11 150 34 L150 338 Q153 458 264 462 Q380 455 382 338 L382 30 Z" /><glyph glyph-name="n" unicode="n" d="M60 30 Q65 -11 104.5 -11 Q144 -11 150 30 L150 330 Q156 457 276 462 Q402 451 402 330 L402 30 Q407 -9 446.5 -9 Q486 -9 492 30 L492 332 Q488 534 284 542 Q250 541 211 520 Q172 499 148 470 L148 494 Q142 543 103.5 543 Q65 543 60 494 L60 30 Z" /><glyph glyph-name="o" unicode="o" d="M126 268 Q128 455 272 462 Q345 460 385 405.5 Q425 351 426 262 Q424 172 380.5 119.5 Q337 67 274 66 Q131 68 126 268 ZM36 258 Q38 128 102 59.5 Q166 -9 266 -9 Q382 -6 448 64.5 Q514 135 516 264 Q514 394 449 466 Q384 538 272 540 Q169 537 103.5 458 Q38 379 36 258 Z" /><glyph glyph-name="p" unicode="p" d="M62 -167 Q67 -215 106.5 -215 Q146 -215 152 -167 L152 58 Q201 -8 290 -9 Q402 -7 466 64.5 Q530 136 532 262 Q529 388 464 464 Q399 540 300 542 Q209 544 152 466 L152 494 Q146 545 106.5 545 Q67 545 62 494 L62 -167 ZM144 266 Q140 457 296 462 Q446 452 444 262 Q442 168 399 116 Q356 64 292 64 Q146 70 144 266 Z" /><glyph glyph-name="q" unicode="q" d="M118 266 Q114 457 270 462 Q420 452 418 262 Q416 168 373 116 Q330 64 266 64 Q120 70 118 266 ZM504 -167 L504 494 Q498 545 458.5 545 Q419 545 414 494 L414 466 Q356 544 266 542 Q166 540 101 464 Q36 388 34 262 Q35 136 99 64.5 Q163 -7 276 -9 Q364 -8 414 58 L414 -167 Q419 -215 458.5 -215 Q498 -215 504 -167 Z" /><glyph glyph-name="r" unicode="r" d="M60 30 Q65 -13 104.5 -11.5 Q144 -10 150 38 L150 290 Q151 419 288 452 Q327 465 322.5 502.5 Q318 540 276 542 Q201 536 150 446 L150 494 Q144 543 104.5 543 Q65 543 60 494 L60 30 Z" /><glyph glyph-name="s" unicode="s" d="M48 408 Q55 295 212 234 Q332 186 336 126 Q335 71 232 70 Q160 75 98 116 Q51 139 32 110 Q13 81 46 48 Q116 -10 232 -9 Q367 -2 400 54.5 Q433 111 428 142 Q426 191 375.5 233 Q325 275 250 306 Q137 345 136 412 Q145 458 232 460 Q294 456 332 422 Q371 393 395 416 Q419 439 390 480 Q326 545 224 542 Q47 532 48 408 Z" /><glyph glyph-name="t" unicode="t" d="M108 96 Q108 34 138.5 12 Q169 -10 218 -9 Q247 -10 288 -3 Q329 10 326 44 Q323 78 280 72 Q260 66 240 66 Q198 65 198 106 L198 454 L256 454 Q299 459 299 494 Q299 529 256 534 L198 534 L198 654 Q192 702 152.5 702 Q113 702 108 654 L108 534 L52 534 Q7 529 8 494 Q9 459 52 454 L108 454 L108 96 Z" /><glyph glyph-name="u" unicode="u" d="M60 202 Q57 -13 264 -9 Q487 -10 492 202 L492 494 Q486 539 446.5 539 Q407 539 402 494 L402 206 Q406 69 264 70 Q145 74 150 208 L150 494 Q144 543 104.5 543 Q65 543 60 494 L60 202 Z" /><glyph glyph-name="v" unicode="v" d="M20 472 L174 22 Q188 -11 218.5 -11 Q249 -11 264 22 L420 462 Q435 524 399.5 539 Q364 554 340 498 L222 150 L98 506 Q75 556 41.5 541.5 Q8 527 20 472 Z" /><glyph glyph-name="w" unicode="w" d="M668 500 L552 126 L434 492 Q414 543 382 542 Q350 541 330 488 L210 128 L96 494 Q72 550 33.5 538 Q-5 526 8 466 L150 30 Q169 -16 207 -15 Q245 -14 264 30 L380 374 L496 30 Q513 -10 552 -11.5 Q591 -13 610 30 L752 466 Q767 523 729 536.5 Q691 550 668 500 Z" /><glyph glyph-name="x" unicode="x" d="M106 520 Q72 557 45 534 Q18 511 42 470 L184 278 L24 66 Q0 24 26 2.5 Q52 -19 92 22 L238 210 L390 10 Q422 -23 449.5 1 Q477 25 456 62 L288 278 L432 466 Q457 509 428.5 532 Q400 555 366 518 L238 346 L106 520 Z" /><glyph glyph-name="y" unicode="y" d="M182 26 L122 -135 Q106 -193 143.5 -208.5 Q181 -224 208 -167 L438 476 Q449 525 414 537.5 Q379 550 358 506 L232 142 L104 506 Q82 550 46 535.5 Q10 521 22 474 L182 26 Z" /><glyph glyph-name="z" unicode="z" d="M388 -9 Q436 -4 436 30.5 Q436 65 388 70 L140 70 L404 458 Q424 487 418.5 509.5 Q413 532 370 534 L76 534 Q31 529 31 494 Q31 459 76 454 L300 454 L40 66 Q-1 -3 68 -9 L388 -9 Z" /><glyph glyph-name="braceleft" unicode="{" d="M236 -117 Q280 -112 281 -77 Q282 -42 240 -37 L218 -37 Q187 -41 186 6 L186 206 Q181 319 92 346 Q184 371 186 516 L186 694 Q190 733 228 734 L248 734 Q288 739 288.5 774 Q289 809 250 814 L210 814 Q99 819 96 702 L96 518 Q96 468 85 430.5 Q74 393 52 386 Q19 374 18.5 344 Q18 314 50 302 Q72 294 83.5 256.5 Q95 219 96 170 L96 -13 Q94 -122 204 -117 L236 -117 Z" /><glyph glyph-name="braceright" unicode="}" d="M84 -117 L116 -117 Q225 -122 224 -13 L224 170 Q224 219 235.5 256.5 Q247 294 270 302 Q301 314 300.5 344 Q300 374 268 386 Q245 393 234 430.5 Q223 468 224 518 L224 702 Q221 819 110 814 L70 814 Q30 809 30.5 774 Q31 739 72 734 L92 734 Q129 733 134 694 L134 516 Q136 371 228 346 Q139 319 134 206 L134 6 Q133 -41 102 -37 L80 -37 Q37 -42 38 -77 Q39 -112 84 -117 Z" /><glyph glyph-name="asciitilde" unicode="~" d="M384 262 Q331 283 254 314 Q133 355 70 244 Q50 199 81 180 Q112 161 142 202 Q175 255 242 230 Q296 204 366 184 Q478 156 542 248 Q563 285 535.5 310 Q508 335 482 310 Q449 269 424.5 261.5 Q400 254 384 262 Z" /><glyph glyph-name="uniB7" unicode="·" d="M428 358 Q437 277 512 274 Q604 285 600 362 Q589 446 512 446 Q437 441 428 358 Z" /><glyph glyph-name="emdash" unicode="&#x2014;" d="M968 318 Q1017 323 1018 359.5 Q1019 396 972 402 L52 402 Q13 396 12 359.5 Q11 323 48 318 L968 318 Z" /><glyph glyph-name="quotedblleft" unicode="&#x201c;" d="M660 656 Q665 692 690.5 712.5 Q716 733 730 738 Q743 745 736.5 756 Q730 767 716 764 Q638 729 621 674.5 Q604 620 608 604 Q609 556 631 537.5 Q653 519 676 520 Q711 522 723.5 543.5 Q736 565 736 580 Q731 632 684 636 Q657 640 660 656 ZM848 656 Q853 692 878.5 712.5 Q904 733 918 738 Q931 745 924.5 756 Q918 767 904 764 Q826 729 809 674.5 Q792 620 796 604 Q797 556 819 537.5 Q841 519 864 520 Q899 522 911.5 543.5 Q924 565 924 580 Q919 632 872 636 Q845 640 848 656 Z" /><glyph glyph-name="quotedblright" unicode="&#x201d;" d="M360 628 Q353 594 321 572 Q289 550 280 544 Q271 533 277 522 Q283 511 304 520 Q372 561 393 602 Q414 643 412 676 Q408 739 383 754.5 Q358 770 352 768 Q316 766 299.5 746.5 Q283 727 284 708 Q290 643 344 644 Q362 645 360 628 ZM180 628 Q173 594 141 572 Q109 550 100 544 Q91 533 97 522 Q103 511 124 520 Q192 561 213 602 Q234 643 232 676 Q228 739 203 754.5 Q178 770 172 768 Q136 766 119.5 746.5 Q103 727 104 708 Q110 643 164 644 Q182 645 180 628 Z" /><glyph glyph-name="ellipsis" unicode="&#x2026;" d="M516 422 Q459 410 456 360 Q463 295 522 294 Q580 300 584 354 Q580 421 516 422 ZM864 422 Q802 411 800 356 Q806 296 870 294 Q897 295 912 314 Q927 333 928 352 Q920 421 864 422 ZM168 422 Q101 411 100 356 Q108 296 162 294 Q225 302 228 356 Q222 420 168 422 Z" /><glyph glyph-name="uni3001" unicode="&#x3001;" d="M142 76 Q200 21 247 -29 Q294 -79 318 -107 Q347 -129 369.5 -102 Q392 -75 380 -49 Q348 1 277.5 67.5 Q207 134 194 144 Q157 159 138 130 Q119 101 142 76 Z" /><glyph glyph-name="uni3002" unicode="&#x3002;" d="M348 52 Q342 -37 252 -41 Q209 -39 186.5 -12.5 Q164 14 164 46 Q165 93 193.5 115.5 Q222 138 260 138 Q304 135 326 107 Q348 79 348 52 ZM92 50 Q94 -35 143 -74 Q192 -113 252 -113 Q341 -110 382.5 -60 Q424 -10 424 54 Q420 207 248 210 Q177 207 135 159.5 Q93 112 92 50 Z" /><glyph glyph-name="uni300A" unicode="&#x300a;" d="M684 784 Q704 832 672.5 845.5 Q641 859 618 826 L396 406 Q369 353 396 294 L612 -117 Q636 -149 667.5 -132 Q699 -115 680 -69 L482 302 Q457 348 486 398 L684 784 ZM856 780 Q873 822 843 841 Q813 860 784 816 L566 406 Q538 348 562 306 L774 -101 Q806 -151 837 -132.5 Q868 -114 844 -57 L656 302 Q629 350 656 398 L856 780 Z" /><glyph glyph-name="uni300B" unicode="&#x300b;" d="M346 -71 Q328 -119 359 -134.5 Q390 -150 416 -113 L628 294 Q655 350 628 406 L404 838 Q386 859 355 844.5 Q324 830 342 786 L542 398 Q569 350 542 302 L346 -71 ZM458 290 Q489 351 454 416 L242 826 Q219 860 186.5 843.5 Q154 827 172 782 L368 398 Q395 348 372 302 L176 -73 Q159 -120 190 -133 Q221 -146 246 -113 L458 290 Z" /><glyph glyph-name="uni3010" unicode="&#x3010;" d="M672 -65 Q674 -128 724 -125 L884 -125 Q904 -123 904.5 -109 Q905 -95 904 -93 Q810 32 781.5 138.5 Q753 245 756 366 Q760 514 811.5 628 Q863 742 904 798 Q911 818 904 824 Q897 830 896 830 L720 830 Q669 827 672 782 L672 -65 Z" /><glyph glyph-name="uni3011" unicode="&#x3011;" d="M312 -125 Q361 -124 356 -69 L356 778 Q349 837 288 830 L132 830 Q102 824 124 798 Q219 651 247 549 Q275 447 272 346 Q262 166 197.5 39.5 Q133 -87 124 -93 Q106 -124 136 -125 L312 -125 Z" /><glyph glyph-name="uni4E00" unicode="&#x4e00;" d="M1000 408 Q995 437 980 445 Q965 453 964 452 L82 452 Q54 446 46.5 428 Q39 410 40 408 Q45 377 62 370.5 Q79 364 82 366 L964 366 Q987 368 993.5 386.5 Q1000 405 1000 408 Z" /><glyph glyph-name="uni4E01" unicode="&#x4e01;" d="M294 52 Q262 58 246.5 42 Q231 26 232 24 Q222 -3 241 -17 Q260 -31 282 -39 Q399 -78 468.5 -77 Q538 -76 571 -50 Q604 -24 614.5 12 Q625 48 624 80 L624 702 L930 702 Q967 697 968 746 Q966 793 926 790 L98 790 Q70 787 64 767.5 Q58 748 60 746 Q62 714 78.5 707 Q95 700 98 702 L534 702 L534 80 Q532 40 501 28 Q470 16 426.5 21 Q383 26 345.5 36.5 Q308 47 294 52 Z" /><glyph glyph-name="uni4E03" unicode="&#x4e03;" d="M36 522 Q41 492 60 487 Q79 482 82 484 L262 500 L262 92 Q256 24 283.5 -12 Q311 -48 350.5 -62.5 Q390 -77 421 -79 Q452 -81 454 -81 L760 -81 Q831 -85 869 -46 Q907 -7 922.5 47.5 Q938 102 940 144.5 Q942 187 942 190 Q936 214 918 219.5 Q900 225 898 224 Q869 221 862.5 206.5 Q856 192 858 190 Q856 39 805.5 15.5 Q755 -8 748 -1 L482 -1 Q376 -2 360 45 Q344 92 350 100 L350 504 L964 546 Q987 551 992 571 Q997 591 996 594 Q990 624 974 630.5 Q958 637 956 636 L350 594 L350 800 Q344 826 326 833 Q308 840 306 840 Q274 834 267 818 Q260 802 262 800 L262 586 L74 574 Q46 565 40 544.5 Q34 524 36 522 Z" /><glyph glyph-name="uni4E07" unicode="&#x4e07;" d="M60 6 Q33 -18 39 -38.5 Q45 -59 48 -61 Q72 -80 96 -73.5 Q120 -67 122 -65 Q210 3 259 93.5 Q308 184 329.5 271 Q351 358 355.5 415.5 Q360 473 360 476 L804 476 Q826 461 824 452 L824 300 Q822 116 793 60 Q764 4 760 10 Q735 -6 688 -7.5 Q641 -9 591 -2.5 Q541 4 506 11.5 Q471 19 470 20 Q433 24 420 15.5 Q407 7 408 6 Q405 -25 424.5 -39 Q444 -53 448 -53 Q661 -104 742 -84 Q823 -64 820 -57 Q854 -31 873 26 Q892 83 899.5 146.5 Q907 210 908.5 255.5 Q910 301 910 304 L910 468 Q899 527 863.5 543.5 Q828 560 824 558 L360 558 L360 726 L944 726 Q969 728 975 745.5 Q981 763 980 766 Q977 793 961.5 800.5 Q946 808 944 808 L74 808 Q49 802 43.5 785 Q38 768 40 766 Q42 737 56.5 730.5 Q71 724 74 726 L274 726 L274 500 Q272 371 240 278 Q208 185 166.5 124.5 Q125 64 93 34.5 Q61 5 60 6 Z" /><glyph glyph-name="uni4E09" unicode="&#x4e09;" d="M934 726 Q931 755 915.5 763 Q900 771 898 770 L134 770 Q105 764 98.5 746 Q92 728 94 726 Q96 698 113.5 692 Q131 686 134 688 L898 688 Q923 690 929 706.5 Q935 723 934 726 ZM902 366 Q900 394 886 401.5 Q872 409 870 408 L176 408 Q148 404 140.5 386 Q133 368 134 366 Q139 337 156 330.5 Q173 324 176 326 L866 326 Q889 328 895.5 345.5 Q902 363 902 366 ZM972 2 Q969 23 954.5 29.5 Q940 36 938 36 L94 36 Q63 31 54.5 17 Q46 3 48 2 Q53 -26 72 -33.5 Q91 -41 94 -41 L938 -41 Q962 -35 967.5 -17.5 Q973 0 972 2 Z" /><glyph glyph-name="uni4E0A" unicode="&#x4e0a;" d="M32 -9 Q34 -38 50.5 -46 Q67 -54 70 -53 L944 -53 Q975 -47 984 -29 Q993 -11 992 -9 Q986 12 966 18 Q946 24 944 24 L440 24 L440 496 L902 496 Q925 498 931.5 516.5 Q938 535 938 538 Q933 567 918 575 Q903 583 902 582 L440 582 L440 786 Q434 810 416 815.5 Q398 821 396 820 Q367 817 360.5 802.5 Q354 788 356 786 L356 24 L74 24 Q46 19 38.5 6 Q31 -7 32 -9 Z" /><glyph glyph-name="uni4E0B" unicode="&#x4e0b;" d="M478 -95 Q509 -93 518 -79.5 Q527 -66 526 -65 L526 472 Q624 406 722 330 Q820 254 828 248 Q853 226 869 233.5 Q885 241 886 244 Q898 269 887 290.5 Q876 312 874 314 Q840 345 783 387 Q726 429 667 469.5 Q608 510 567.5 537 Q527 564 526 566 L526 700 L944 700 Q970 702 977 718.5 Q984 735 984 738 Q981 767 965.5 775 Q950 783 948 782 L74 782 Q46 776 40 758 Q34 740 36 738 Q38 710 54.5 704 Q71 698 74 700 L440 700 L440 -61 Q442 -82 458.5 -88.5 Q475 -95 478 -95 Z" /><glyph glyph-name="uni4E0D" unicode="&#x4e0d;" d="M60 252 Q37 235 37.5 215 Q38 195 40 194 Q56 169 74 170 Q92 171 94 174 Q245 256 351 353.5 Q457 451 462 460 L462 -61 Q464 -82 481.5 -88.5 Q499 -95 502 -95 Q528 -90 535 -76 Q542 -62 542 -61 L542 562 Q571 614 589 658.5 Q607 703 608 706 L942 706 Q963 708 969.5 723.5 Q976 739 976 742 Q974 771 960 779 Q946 787 944 786 L90 786 Q65 780 59.5 764 Q54 748 56 746 Q58 717 72.5 710.5 Q87 704 90 706 L518 706 Q477 611 403 529 Q329 447 250.5 384.5 Q172 322 117 287 Q62 252 60 252 ZM894 210 Q927 179 947 183 Q967 187 968 190 Q985 214 974 239.5 Q963 265 960 268 Q866 347 764 423.5 Q662 500 654 506 Q632 525 632 526 Q601 541 582.5 529 Q564 517 564 514 Q553 487 567 469.5 Q581 452 584 452 Q628 417 636 412 Q894 218 894 210 Z" /><glyph glyph-name="uni4E0E" unicode="&#x4e0e;" d="M766 28 Q710 -19 620.5 -12 Q531 -5 522 -1 Q486 4 473.5 -12.5 Q461 -29 462 -33 Q462 -62 482 -72.5 Q502 -83 506 -83 Q672 -108 748.5 -74 Q825 -40 824 -33 Q852 0 868 63 Q884 126 890 193.5 Q896 261 897 308 Q898 355 898 358 Q890 422 859 434.5 Q828 447 824 444 L356 444 Q323 441 323 462.5 Q323 484 326 488 L350 604 L918 604 Q942 606 949 621.5 Q956 637 956 640 Q951 666 935.5 673 Q920 680 918 680 L364 680 L384 798 Q384 825 369 834.5 Q354 844 348 844 Q318 841 308.5 825.5 Q299 810 300 808 L234 460 Q221 387 256 374.5 Q291 362 302 366 L778 366 Q798 363 806 343.5 Q814 324 814 322 Q811 163 790 94.5 Q769 26 766 28 ZM756 186 Q751 210 739 217 Q727 224 726 224 L98 224 Q72 219 66 203.5 Q60 188 62 186 Q64 157 79.5 150.5 Q95 144 98 146 L726 146 Q744 148 750 165.5 Q756 183 756 186 Z" /><glyph glyph-name="uni4E13" unicode="&#x4e13;" d="M380 526 L90 526 Q65 521 58 505.5 Q51 490 52 488 Q54 462 68.5 456 Q83 450 86 452 L356 452 Q344 419 342 416 Q335 397 325 372.5 Q315 348 314 346 Q294 305 297 288 Q300 271 302 272 Q311 257 337.5 256 Q364 255 368 256 L756 256 Q783 250 780.5 232 Q778 214 776 212 Q737 144 694 93 Q651 42 648 40 Q492 78 398 95 Q304 112 302 112 Q269 109 258 93.5 Q247 78 248 76 Q247 49 265 40 Q283 31 286 32 Q513 0 674.5 -49 Q836 -98 844 -103 Q872 -109 886.5 -96 Q901 -83 902 -81 Q905 -53 888.5 -39 Q872 -25 870 -25 Q831 -6 784.5 4.5 Q738 15 734 16 Q796 87 830.5 156.5 Q865 226 866 232 Q879 273 875 291.5 Q871 310 870 310 Q854 327 826.5 330.5 Q799 334 796 334 L392 334 L440 452 L964 452 Q989 454 995 469.5 Q1001 485 1000 488 Q994 512 978 519 Q962 526 960 526 L458 526 Q467 553 478 592.5 Q489 632 490 636 L894 636 Q920 638 927 653.5 Q934 669 934 672 Q931 699 915.5 706.5 Q900 714 898 714 L510 714 L530 800 Q530 823 515 833.5 Q500 844 498 844 Q471 844 462 831 Q453 818 454 816 L432 714 L158 714 Q129 709 121 693.5 Q113 678 114 676 Q116 647 133.5 640.5 Q151 634 154 636 L412 636 L380 526 Z" /><glyph glyph-name="uni4E14" unicode="&#x4e14;" d="M70 -57 L960 -57 Q986 -51 993 -35 Q1000 -19 1000 -17 Q994 5 978 10.5 Q962 16 960 16 L894 16 L894 696 Q890 770 844 786.5 Q798 803 792 800 L256 800 Q180 795 167 747 Q154 699 158 692 L158 16 L70 16 Q42 12 36 -1.5 Q30 -15 32 -17 Q34 -43 50.5 -50 Q67 -57 70 -57 ZM240 684 Q239 708 253 713.5 Q267 719 270 718 L780 718 Q800 715 806 700.5 Q812 686 812 684 L812 538 L240 538 L240 684 ZM812 288 L240 288 L240 456 L812 456 L812 288 ZM812 206 L812 16 L244 16 L244 206 L812 206 Z" /><glyph glyph-name="uni4E16" unicode="&#x4e16;" d="M200 828 Q171 826 164.5 812.5 Q158 799 160 798 L160 578 L62 578 Q37 572 31.5 556 Q26 540 28 538 Q30 513 44.5 507.5 Q59 502 62 504 L160 504 L160 44 Q158 -45 213.5 -59 Q269 -73 278 -69 L930 -69 Q948 -63 954 -47 Q960 -31 960 -29 Q955 -3 943 2 Q931 7 930 6 L278 6 Q248 8 243 24.5 Q238 41 240 44 L240 504 L454 504 L454 236 Q459 188 495.5 177.5 Q532 167 538 170 L788 170 Q843 172 853.5 205.5 Q864 239 862 244 L862 504 L968 504 Q988 506 994 520.5 Q1000 535 1000 538 Q995 564 982 571 Q969 578 968 578 L862 578 L862 798 Q857 816 841.5 822 Q826 828 824 828 Q795 823 788.5 811 Q782 799 784 798 L784 578 L534 578 L534 798 Q528 816 512 822 Q496 828 494 828 Q465 823 458.5 811 Q452 799 454 798 L454 578 L240 578 L240 794 Q234 815 218 821.5 Q202 828 200 828 ZM784 272 Q782 246 769.5 242 Q757 238 756 240 L572 240 Q542 242 537 257.5 Q532 273 534 276 L534 504 L784 504 L784 272 Z" /><glyph glyph-name="uni4E1A" unicode="&#x4e1a;" d="M416 820 Q387 817 380.5 802.5 Q374 788 376 786 L376 -1 L98 -1 Q72 -3 65.5 -18.5 Q59 -34 60 -37 Q59 -68 73 -76 Q87 -84 90 -83 L968 -83 Q991 -79 997.5 -61 Q1004 -43 1004 -41 Q999 -12 984 -6 Q969 0 968 -1 L694 -1 L694 790 Q688 814 672 821 Q656 828 654 828 Q626 823 620 807.5 Q614 792 616 790 L616 -1 L454 -1 L454 786 Q450 810 434 815.5 Q418 821 416 820 ZM314 114 Q336 131 337.5 153 Q339 175 338 178 Q268 398 220.5 508.5 Q173 619 172 620 Q153 648 134 649 Q115 650 114 648 Q89 631 92 609.5 Q95 588 98 586 Q169 427 212.5 289 Q256 151 258 142 Q269 115 290 113.5 Q311 112 314 114 ZM960 612 Q963 644 949.5 656 Q936 668 934 668 Q904 671 892.5 654.5 Q881 638 882 636 Q820 425 770 310 Q720 195 718 194 Q703 158 715 141.5 Q727 125 730 126 Q759 120 777 137 Q795 154 796 158 Q870 309 914 455 Q958 601 960 612 Z" /><glyph glyph-name="uni4E1B" unicode="&#x4e1b;" d="M432 44 Q453 28 474.5 38.5 Q496 49 498 52 Q587 147 641.5 261 Q696 375 698 386 Q760 234 837 147.5 Q914 61 922 60 Q945 38 962 43.5 Q979 49 980 52 Q998 79 990 98 Q982 117 980 118 Q828 272 782.5 397 Q737 522 742 530 Q739 559 738 592 Q737 625 738 628 Q741 682 744 732 Q747 782 748 786 Q745 813 728.5 820.5 Q712 828 710 828 Q681 823 674.5 807.5 Q668 792 670 790 Q666 616 632.5 487.5 Q599 359 555 274.5 Q511 190 478 148.5 Q445 107 444 108 Q419 77 424 60.5 Q429 44 432 44 ZM960 -29 Q957 -3 942.5 2 Q928 7 926 6 L126 6 Q94 3 85 -11.5 Q76 -26 78 -29 Q83 -55 103 -62 Q123 -69 126 -69 L926 -69 Q950 -63 955.5 -47 Q961 -31 960 -29 ZM346 652 Q349 700 351 736 Q353 772 354 774 Q348 798 332 805 Q316 812 314 812 Q288 807 282 791.5 Q276 776 278 774 Q280 637 250.5 521.5 Q221 406 180 320 Q139 234 107 186 Q75 138 74 138 Q54 103 62.5 85.5 Q71 68 74 68 Q102 56 125 72 Q148 88 150 92 Q222 191 271 313.5 Q320 436 322 448 Q401 360 439.5 304.5 Q478 249 478 248 Q494 223 513 228 Q532 233 534 236 Q548 258 545.5 280 Q543 302 542 304 Q481 394 410.5 458.5 Q340 523 334 526 Q340 575 343 612.5 Q346 650 346 652 Z" /><glyph glyph-name="uni4E1C" unicode="&#x4e1c;" d="M168 408 Q147 370 147.5 351.5 Q148 333 150 334 Q158 316 179.5 312.5 Q201 309 204 310 L498 310 L498 10 Q493 -22 438.5 -18.5 Q384 -15 376 -13 Q342 -10 333 -31.5 Q324 -53 326 -57 Q332 -84 354.5 -93.5 Q377 -103 380 -103 Q467 -112 511 -97 Q555 -82 570 -56.5 Q585 -31 585 -11.5 Q585 8 584 10 L584 310 L922 310 Q943 312 947.5 331.5 Q952 351 952 354 Q947 380 931.5 387 Q916 394 914 394 L584 394 L584 546 Q578 574 561 580.5 Q544 587 542 586 Q510 583 503 565.5 Q496 548 498 546 L498 394 L262 394 L376 604 L938 604 Q968 606 974.5 623.5 Q981 641 980 644 Q974 673 955 681 Q936 689 934 688 L412 688 L466 794 Q475 819 464.5 831.5 Q454 844 452 844 Q424 853 410 841.5 Q396 830 396 828 L322 688 L82 688 Q51 682 44.5 664 Q38 646 40 644 Q42 615 60.5 608.5 Q79 602 82 604 L286 604 L168 408 ZM960 -13 Q981 5 972 23.5 Q963 42 960 44 Q889 130 818 197 Q747 264 742 268 Q711 286 692.5 278 Q674 270 674 268 Q659 240 671 223 Q683 206 686 206 Q765 131 827.5 68 Q890 5 894 2 Q919 -21 938.5 -18 Q958 -15 960 -13 ZM338 186 Q357 218 348.5 238.5 Q340 259 338 260 Q307 271 286.5 255 Q266 239 266 236 Q205 150 143.5 86.5 Q82 23 78 20 Q54 2 56.5 -14.5 Q59 -31 62 -33 Q81 -51 102.5 -47 Q124 -43 126 -41 Q187 6 259 91 Q331 176 338 186 Z" /><glyph glyph-name="uni4E24" unicode="&#x4e24;" d="M356 598 L176 598 Q117 596 107.5 563 Q98 530 102 526 L102 -45 Q104 -70 121.5 -76 Q139 -82 142 -81 Q166 -78 173 -62.5 Q180 -47 180 -45 L180 492 Q179 510 192 516 Q205 522 208 522 L350 522 Q322 364 262.5 275.5 Q203 187 196 186 Q177 158 185 140 Q193 122 196 122 Q218 110 237 120.5 Q256 131 258 134 Q317 195 349.5 259 Q382 323 388 354 Q446 312 502 244 Q491 227 475 205.5 Q459 184 458 182 Q438 158 440 158 Q421 133 429 118.5 Q437 104 440 104 Q466 91 483.5 101 Q501 111 502 114 Q563 192 591.5 271.5 Q620 351 620 358 Q664 307 710 239.5 Q756 172 760 166 Q782 138 800 140.5 Q818 143 820 146 Q837 165 831.5 187.5 Q826 210 824 212 Q761 309 700.5 378.5 Q640 448 636 452 Q639 472 641 495.5 Q643 519 644 522 L816 522 Q836 517 840 505 Q844 493 844 492 L844 20 Q842 -8 784 -5.5 Q726 -3 718 -1 Q685 -1 675 -15.5 Q665 -30 666 -33 Q668 -62 687.5 -72.5 Q707 -83 710 -83 Q862 -98 895 -50 Q928 -2 922 6 L922 526 Q920 580 887 590 Q854 600 850 598 L650 598 Q652 624 653 666.5 Q654 709 654 714 L948 714 Q971 716 977.5 731.5 Q984 747 984 750 Q979 776 964 783 Q949 790 948 790 L86 790 Q58 784 52 768 Q46 752 48 750 Q50 724 66.5 718 Q83 712 86 714 L360 714 Q358 600 356 598 ZM440 714 L584 714 Q582 656 580 598 L432 598 Q435 635 437 673 Q439 711 440 714 ZM424 522 L572 522 Q561 437 548 378.5 Q535 320 534 318 Q476 385 412 432 Q422 480 424 522 Z" /><glyph glyph-name="uni4E25" unicode="&#x4e25;" d="M208 522 Q143 519 132.5 484 Q122 449 126 444 L126 334 Q121 131 86.5 46 Q52 -39 48 -37 Q32 -61 40.5 -75.5 Q49 -90 52 -91 Q75 -106 92 -97.5 Q109 -89 110 -87 Q146 -44 165.5 23.5 Q185 91 193 161 Q201 231 202.5 279 Q204 327 204 330 L204 394 Q206 424 225.5 432.5 Q245 441 248 440 L944 440 Q973 442 981 459.5 Q989 477 988 480 Q982 507 966 514.5 Q950 522 948 522 L670 522 L670 714 L930 714 Q954 716 961 733.5 Q968 751 968 754 Q963 783 947.5 791 Q932 799 930 798 L106 798 Q77 792 70.5 774 Q64 756 66 754 Q68 725 85.5 718.5 Q103 712 106 714 L360 714 L360 522 L208 522 ZM588 714 L588 522 L444 522 L444 714 L588 714 ZM290 538 Q308 554 304 575 Q300 596 298 598 Q238 680 232 688 Q207 705 189.5 703 Q172 701 172 700 Q157 680 165 662.5 Q173 645 176 644 Q203 611 221 585 Q239 559 240 558 Q257 533 272.5 534 Q288 535 290 538 ZM828 688 Q790 626 768 598 Q753 570 761 554 Q769 538 772 538 Q793 528 810 541.5 Q827 555 828 558 Q862 603 888 658 Q894 682 883 694 Q872 706 870 706 Q847 712 837 701 Q827 690 828 688 Z" /><glyph glyph-name="uni4E2A" unicode="&#x4e2a;" d="M498 754 Q521 757 526 754 Q712 587 818 516.5 Q924 446 926 448 Q951 435 965 444 Q979 453 980 456 Q989 486 977.5 501.5 Q966 517 964 518 Q787 626 690 709.5 Q593 793 592 798 Q528 849 481 827 Q434 805 432 798 Q296 664 193.5 597 Q91 530 86 530 Q56 510 54.5 489.5 Q53 469 56 468 Q68 446 89.5 449.5 Q111 453 114 456 Q261 544 376 644.5 Q491 745 498 754 ZM530 602 Q501 596 494.5 580 Q488 564 490 562 L490 -53 Q492 -80 509.5 -87.5 Q527 -95 530 -95 Q557 -89 564.5 -72 Q572 -55 572 -53 L572 562 Q566 588 549 595 Q532 602 530 602 Z" /><glyph glyph-name="uni4E2D" unicode="&#x4e2d;" d="M176 154 L470 154 L470 -81 Q472 -102 489.5 -108.5 Q507 -115 510 -115 Q538 -110 545.5 -96 Q553 -82 552 -81 L552 154 L870 154 Q943 155 957 201.5 Q971 248 968 256 L968 598 Q961 671 918.5 687 Q876 703 870 700 L552 700 L552 820 Q519 862 495 844 Q471 826 470 820 L470 700 L184 700 Q102 694 87.5 647 Q73 600 78 594 L78 256 Q78 177 123.5 163.5 Q169 150 176 154 ZM160 586 Q160 607 173 611.5 Q186 616 188 616 L470 616 L470 236 L192 236 Q167 235 162.5 250 Q158 265 160 268 L160 586 ZM858 236 L552 236 L552 616 L854 616 Q877 614 882 604.5 Q887 595 886 594 L886 268 Q884 242 871.5 238 Q859 234 858 236 Z" /><glyph glyph-name="uni4E30" unicode="&#x4e30;" d="M86 648 Q88 622 105.5 616 Q123 610 126 612 L470 612 L470 436 L158 436 Q132 431 126 415.5 Q120 400 122 398 Q124 369 139.5 362.5 Q155 356 158 358 L470 358 L470 170 L90 170 Q65 164 59.5 148 Q54 132 56 130 Q58 105 72.5 99.5 Q87 94 90 96 L470 96 L470 -69 Q472 -93 487.5 -98.5 Q503 -104 506 -103 Q532 -100 539 -85.5 Q546 -71 546 -69 L546 96 L926 96 Q947 98 953.5 112.5 Q960 127 960 130 Q955 156 941 163 Q927 170 926 170 L546 170 L546 358 L854 358 Q877 360 883.5 377.5 Q890 395 890 398 Q885 422 870 429 Q855 436 854 436 L546 436 L546 612 L882 612 Q905 614 911.5 629.5 Q918 645 918 648 Q913 674 898 681 Q883 688 882 688 L546 688 L546 804 Q540 824 524 830 Q508 836 506 836 Q480 831 474 818 Q468 805 470 804 L470 688 L126 688 Q97 682 90.5 666 Q84 650 86 648 Z" /><glyph glyph-name="uni4E34" unicode="&#x4e34;" d="M286 -99 Q312 -93 319 -76 Q326 -59 326 -57 L326 804 Q320 829 304 835 Q288 841 286 840 Q261 837 255.5 821.5 Q250 806 252 804 L252 -57 Q254 -84 268.5 -91.5 Q283 -99 286 -99 ZM126 -1 Q150 3 157 16.5 Q164 30 164 32 L164 746 Q159 771 143.5 777 Q128 783 126 782 Q100 779 94 763.5 Q88 748 90 746 L90 32 Q92 10 107.5 4.5 Q123 -1 126 -1 ZM846 452 Q855 476 842.5 494.5 Q830 513 828 514 Q732 571 659.5 605 Q587 639 584 640 Q555 646 542 636 Q529 626 530 624 Q523 598 536 585.5 Q549 573 552 574 Q636 531 711 489 Q786 447 792 444 Q819 428 832.5 438.5 Q846 449 846 452 ZM960 10 L960 350 Q958 402 926 412 Q894 422 890 420 L474 420 Q418 418 409.5 386 Q401 354 404 350 L404 10 Q405 -41 437 -52 Q469 -63 474 -61 L890 -61 Q942 -59 952 -27 Q962 5 960 10 ZM478 310 Q480 335 495.5 341 Q511 347 514 346 L640 346 L640 10 L514 10 Q488 12 482 26.5 Q476 41 478 44 L478 310 ZM960 676 Q983 678 989.5 694.5 Q996 711 996 714 Q991 740 976 747 Q961 754 960 754 L530 754 Q539 771 542 782 Q544 783 546 790 Q551 815 537.5 827.5 Q524 840 522 840 Q495 843 482 828.5 Q469 814 470 812 Q421 706 382.5 652 Q344 598 342 598 Q323 567 329 550.5 Q335 534 338 534 Q361 521 381.5 532 Q402 543 404 546 Q435 585 463.5 628.5 Q492 672 494 676 L960 676 ZM846 14 L714 14 L714 350 L846 350 Q871 347 877 331.5 Q883 316 882 314 L882 44 Q877 22 862 17.5 Q847 13 846 14 Z" /><glyph glyph-name="uni4E3A" unicode="&#x4e3a;" d="M392 628 L138 628 Q109 622 102.5 605 Q96 588 98 586 Q100 557 117.5 550.5 Q135 544 138 546 L380 546 Q352 383 305 270.5 Q258 158 208.5 89 Q159 20 125 -10.5 Q91 -41 90 -41 Q66 -62 68.5 -78 Q71 -94 74 -95 Q93 -111 114.5 -106 Q136 -101 138 -99 Q226 -39 288.5 66 Q351 171 389 281.5 Q427 392 444.5 469 Q462 546 462 550 L820 550 Q847 547 853 529.5 Q859 512 858 510 Q854 425 852 360 Q850 295 850 292 Q838 122 836 112 Q832 52 800.5 27 Q769 2 728 -1.5 Q687 -5 656 -0.5 Q625 4 624 6 Q597 6 586 -8 Q575 -22 576 -25 Q575 -54 590 -65.5 Q605 -77 608 -77 Q718 -101 781 -81.5 Q844 -62 872.5 -24.5 Q901 13 908 45 Q915 77 914 80 Q923 158 928 226.5 Q933 295 934 300 Q937 390 939 458 Q941 526 942 530 Q937 603 893.5 617 Q850 631 844 628 L470 628 Q470 650 470 660 Q485 801 482 808 Q479 834 464.5 841 Q450 848 448 848 Q419 845 411 829.5 Q403 814 404 812 Q398 763 395 724.5 Q392 686 392 684 Q392 629 392 628 ZM734 186 Q751 207 743.5 228.5 Q736 250 734 252 Q671 330 622.5 380 Q574 430 572 432 Q548 444 531 437 Q514 430 514 428 Q501 410 510 394.5 Q519 379 522 378 Q569 325 617.5 266 Q666 207 670 202 Q692 177 712 180 Q732 183 734 186 ZM192 798 Q176 776 184.5 761 Q193 746 196 746 Q200 732 204 730 Q268 655 266 656 Q285 634 302.5 637.5 Q320 641 322 644 Q338 660 333 679 Q328 698 326 700 Q300 738 274.5 765 Q249 792 248 794 Q223 808 207.5 803.5 Q192 799 192 798 Z" /><glyph glyph-name="uni4E3B" unicode="&#x4e3b;" d="M416 770 Q443 735 458 708 Q473 681 474 680 L126 680 Q91 674 81.5 656 Q72 638 74 636 Q79 608 101 602 Q123 596 126 598 L474 598 L474 366 L180 366 Q146 360 137 342 Q128 324 130 322 Q135 291 156 284.5 Q177 278 180 280 L474 280 L474 20 L90 20 Q59 15 50.5 2 Q42 -11 44 -13 Q49 -42 68 -50 Q87 -58 90 -57 L942 -57 Q972 -51 980.5 -33 Q989 -15 988 -13 Q982 8 963 14 Q944 20 942 20 L560 20 L560 280 L862 280 Q893 282 902 300.5 Q911 319 910 322 Q904 351 884 359 Q864 367 862 366 L560 366 L560 598 L918 598 Q942 600 947.5 616.5 Q953 633 952 636 Q947 665 931.5 673 Q916 681 914 680 L564 680 Q564 696 529.5 752 Q495 808 490 816 Q467 843 446 840.5 Q425 838 424 836 Q399 813 406 792 Q413 771 416 770 Z" /><glyph glyph-name="uni4E3D" unicode="&#x4e3d;" d="M984 762 Q979 788 964 794.5 Q949 801 948 800 L86 800 Q58 796 52 780 Q46 764 48 762 Q50 736 66.5 730 Q83 724 86 726 L948 726 Q971 728 977.5 743.5 Q984 759 984 762 ZM172 -41 L172 510 Q171 535 186 541 Q201 547 204 546 L354 546 Q375 543 379.5 525.5 Q384 508 384 506 L384 10 Q387 -19 351 -15 Q315 -11 310 -9 Q277 -8 267 -21 Q257 -34 258 -37 Q258 -66 274.5 -74.5 Q291 -83 294 -83 Q425 -98 446.5 -53.5 Q468 -9 462 -1 L462 554 Q458 604 432.5 613 Q407 622 404 620 L160 620 Q107 618 99 588 Q91 558 94 554 L94 -41 Q96 -67 113.5 -74 Q131 -81 134 -81 Q158 -75 165 -59 Q172 -43 172 -41 ZM334 60 Q355 68 359.5 88.5 Q364 109 364 112 Q339 254 313.5 354.5 Q288 455 286 460 Q272 488 254.5 492.5 Q237 497 236 496 Q210 484 210 465 Q210 446 212 444 Q240 339 264 222 Q288 105 290 96 Q295 67 313 62.5 Q331 58 334 60 ZM636 -25 L636 514 Q635 539 651 545 Q667 551 670 550 L832 550 Q856 550 859.5 531 Q863 512 862 510 L862 10 Q856 -17 814.5 -17.5 Q773 -18 768 -17 Q740 -16 732.5 -29 Q725 -42 726 -45 Q728 -71 742.5 -79 Q757 -87 760 -87 Q897 -96 922.5 -47.5 Q948 1 942 10 L942 558 Q938 608 911.5 617 Q885 626 882 624 L628 624 Q573 622 565 594 Q557 566 560 562 L560 -25 Q562 -51 577.5 -58 Q593 -65 596 -65 Q622 -59 629 -43 Q636 -27 636 -25 ZM812 60 Q834 68 837.5 89.5 Q841 111 840 114 Q760 452 752 460 Q739 485 721 489 Q703 493 702 492 Q674 481 674.5 463 Q675 445 678 444 Q720 298 741.5 199 Q763 100 764 96 Q772 64 790.5 61 Q809 58 812 60 Z" /><glyph glyph-name="uni4E3E" unicode="&#x4e3e;" d="M102 590 Q71 584 62.5 568 Q54 552 56 550 Q61 521 78 514.5 Q95 508 98 510 L290 510 Q242 438 155.5 394.5 Q69 351 60 350 Q29 333 27 315 Q25 297 28 296 Q42 274 64.5 276 Q87 278 90 280 Q198 323 204 330 Q187 287 209 274.5 Q231 262 236 264 L482 264 L482 134 L106 134 Q79 129 72 113.5 Q65 98 66 96 Q68 70 83.5 64 Q99 58 102 60 L482 60 L482 -83 Q484 -108 501.5 -114 Q519 -120 522 -119 Q546 -114 553 -98.5 Q560 -83 560 -81 L560 60 L914 60 Q938 62 943.5 77.5 Q949 93 948 96 Q945 120 930.5 127 Q916 134 914 134 L560 134 L560 264 L824 264 Q848 266 853.5 281.5 Q859 297 858 300 Q853 324 837.5 331 Q822 338 820 338 L560 338 L560 420 Q555 449 539.5 457 Q524 465 522 464 Q493 458 486.5 440 Q480 422 482 420 L482 338 L236 338 Q215 336 212 334 Q294 387 338.5 446 Q383 505 384 510 L632 510 Q726 387 830.5 345.5 Q935 304 944 308 Q970 307 979 321 Q988 335 988 338 Q988 364 975 373 Q962 382 960 382 Q855 403 787.5 453 Q720 503 718 510 L926 510 Q947 512 953.5 527.5 Q960 543 960 546 Q958 575 944.5 583 Q931 591 930 590 L772 590 Q817 657 845 708 Q873 759 874 762 Q883 790 871.5 806.5 Q860 823 858 824 Q835 833 821.5 819.5 Q808 806 808 804 Q708 617 698 616 Q683 592 686 590 L350 590 Q349 611 342 620 Q295 694 260 739 Q225 784 224 786 Q196 806 177 803 Q158 800 158 798 Q142 775 151.5 755 Q161 735 164 734 Q265 600 270 590 L102 590 ZM490 644 Q506 614 525 612 Q544 610 546 612 Q566 629 563.5 651 Q561 673 560 676 Q485 813 474 816 Q453 835 435 834 Q417 833 416 832 Q397 815 403 799 Q409 783 412 782 Q414 773 416 770 Q487 654 490 644 Z" /><glyph glyph-name="uni4E45" unicode="&#x4e45;" d="M62 2 Q38 -8 36 -31 Q34 -54 36 -57 Q47 -84 65.5 -88 Q84 -92 86 -91 Q209 -54 301 10.5 Q393 75 454 143.5 Q515 212 545.5 259.5 Q576 307 576 310 Q608 227 663.5 156 Q719 85 777 31.5 Q835 -22 875.5 -52 Q916 -82 918 -83 Q949 -101 968 -90.5 Q987 -80 988 -77 Q1002 -40 988.5 -20.5 Q975 -1 972 -1 Q762 150 688.5 277 Q615 404 620 412 Q642 472 663 563 Q684 654 686 664 Q697 740 659.5 758.5 Q622 777 616 774 L322 774 Q331 808 316 824 Q301 840 298 840 Q264 845 251.5 826 Q239 807 240 804 Q194 608 126 519 Q58 430 52 432 Q27 405 32 384 Q37 363 40 362 Q64 341 86 350 Q108 359 110 362 Q202 446 251.5 559.5 Q301 673 302 684 L560 684 Q585 678 589 656 Q593 634 592 632 Q555 433 471 308.5 Q387 184 293 117 Q199 50 132 25 Q65 0 62 2 Z" /><glyph glyph-name="uni4E48" unicode="&#x4e48;" d="M510 766 Q522 794 511 810.5 Q500 827 498 828 Q468 837 453.5 823.5 Q439 810 440 808 Q337 632 216.5 525 Q96 418 86 416 Q60 392 63.5 373.5 Q67 355 70 354 Q92 335 116 343 Q140 351 142 354 Q310 479 408.5 616.5 Q507 754 510 766 ZM850 6 Q871 -33 874 -45 Q883 -63 886 -69 Q902 -95 921 -95.5 Q940 -96 942 -95 Q965 -79 963.5 -58.5 Q962 -38 960 -37 Q882 120 833.5 215.5 Q785 311 784 314 Q764 335 745.5 331.5 Q727 328 726 326 Q701 308 706 290.5 Q711 273 714 272 Q739 226 762.5 179.5 Q786 133 788 130 Q813 83 820 76 Q718 63 621.5 55.5 Q525 48 518 48 Q381 42 301 40.5 Q221 39 220 40 Q333 121 426.5 214.5 Q520 308 588 392 Q656 476 692.5 530 Q729 584 730 586 Q740 617 728 634 Q716 651 714 652 Q686 660 670 643.5 Q654 627 654 624 Q588 509 497 404.5 Q406 300 316.5 218 Q227 136 167.5 88.5 Q108 41 106 40 Q70 15 86 -5 Q99 -37 146 -33 Q452 -20 647.5 -7.5 Q843 5 850 6 Z" /><glyph glyph-name="uni4E49" unicode="&#x4e49;" d="M114 -1 Q80 -14 79.5 -32.5 Q79 -51 82 -53 Q96 -73 121.5 -73.5 Q147 -74 150 -73 Q308 -17 424 56.5 Q540 130 546 138 Q667 41 793 -13.5 Q919 -68 930 -69 Q964 -79 980 -67 Q996 -55 996 -53 Q1001 -14 984 -2 Q967 10 964 10 Q805 51 706 117 Q607 183 604 190 Q690 285 746.5 386.5 Q803 488 835.5 575.5 Q868 663 881 717.5 Q894 772 894 774 Q891 798 875.5 807 Q860 816 858 816 Q830 813 822.5 798.5 Q815 784 816 782 Q760 545 660.5 400.5 Q561 256 550 252 Q407 433 355 594 Q303 755 306 766 Q295 789 277 794 Q259 799 258 798 Q233 790 229.5 773 Q226 756 228 754 Q251 635 293 534 Q335 433 380 357.5 Q425 282 456.5 240 Q488 198 490 198 Q364 95 243 47 Q122 -1 114 -1 ZM560 598 Q573 570 589.5 570.5 Q606 571 608 574 Q630 590 629.5 610 Q629 630 628 632 Q539 814 534 820 Q511 842 493 840 Q475 838 474 836 Q456 819 461.5 801 Q467 783 470 782 Q477 765 478 766 Q517 693 538 646 Q559 599 560 598 Z" /><glyph glyph-name="uni4E4B" unicode="&#x4e4b;" d="M420 840 Q395 817 400 798 Q405 779 408 778 Q448 713 452 702 L94 702 Q66 699 58.5 680.5 Q51 662 52 660 Q57 631 74 624.5 Q91 618 94 620 L812 620 Q851 620 828 582 Q765 466 664.5 384.5 Q564 303 460.5 253 Q357 203 285.5 180 Q214 157 212 158 Q159 150 136 124.5 Q113 99 114 96 Q84 39 48 -13 Q33 -40 45.5 -54 Q58 -68 62 -69 Q89 -82 107 -69 Q125 -56 126 -53 Q179 38 184 36 Q194 52 206 47 Q218 42 220 40 Q257 -5 334.5 -30 Q412 -55 496 -66 Q580 -77 639.5 -79 Q699 -81 702 -81 L962 -81 Q999 -75 999 -37.5 Q999 0 962 6 L632 6 Q445 11 364.5 48.5 Q284 86 286 92 Q458 139 580.5 221 Q703 303 780 389.5 Q857 476 893.5 535.5 Q930 595 930 598 Q942 668 901.5 686 Q861 704 854 702 L550 702 Q524 764 486 824 Q464 849 442.5 845.5 Q421 842 420 840 Z" /><glyph glyph-name="uni4E4C" unicode="&#x4e4c;" d="M126 676 L126 322 Q127 271 157 262 Q187 253 192 256 L840 256 Q864 254 867.5 240 Q871 226 870 224 Q863 170 862 162 Q853 87 851 64 Q849 41 850 44 Q839 -3 813 -18.5 Q787 -34 784 -33 Q740 -39 662 -29 Q584 -19 576 -17 Q545 -16 533 -33 Q521 -50 522 -53 Q521 -80 539 -89.5 Q557 -99 560 -99 Q694 -122 770 -108 Q846 -94 880 -62.5 Q914 -31 922.5 -4.5 Q931 22 930 24 Q931 36 934 72.5 Q937 109 940 152 Q943 195 945 226.5 Q947 258 948 260 Q946 310 912.5 321 Q879 332 874 330 L252 330 Q223 329 218.5 346 Q214 363 216 366 L216 632 Q215 655 230 660 Q245 665 248 664 L726 664 Q744 659 750 646 Q756 633 756 632 L756 612 Q767 522 731 486 Q695 450 642 446.5 Q589 443 546.5 452.5 Q504 462 502 464 Q467 467 456.5 450.5 Q446 434 448 432 Q445 401 463.5 391 Q482 381 486 382 Q628 345 703.5 371.5 Q779 398 808.5 452 Q838 506 841.5 552.5 Q845 599 844 602 L844 672 Q839 722 807.5 733 Q776 744 772 742 L452 742 Q454 758 461.5 778 Q469 798 470 800 Q470 826 456 839 Q442 852 440 852 Q410 852 398.5 837 Q387 822 388 820 Q381 800 380 798 Q366 746 364 742 L192 742 Q139 740 131 710 Q123 680 126 676 ZM828 118 Q823 144 808 151 Q793 158 792 158 L90 158 Q62 152 54.5 136 Q47 120 48 118 Q53 93 70 87.5 Q87 82 90 84 L792 84 Q815 86 821.5 100.5 Q828 115 828 118 Z" /><glyph glyph-name="uni4E50" unicode="&#x4e50;" d="M130 496 Q106 397 158 379 Q210 361 220 366 L514 366 L514 20 Q508 -18 452 -8.5 Q396 1 388 6 Q359 7 346 -4 Q333 -15 334 -17 Q327 -43 342 -56 Q357 -69 360 -69 Q450 -95 499.5 -86 Q549 -77 569 -52 Q589 -27 593 -4.5 Q597 18 596 20 L596 366 L952 366 Q978 368 985 383.5 Q992 399 992 402 Q989 429 973.5 436.5 Q958 444 956 444 L596 444 L596 648 Q590 676 571 682.5 Q552 689 550 688 Q524 682 518 664 Q512 646 514 644 L514 444 L252 444 Q218 444 215.5 464 Q213 484 216 488 Q216 489 217.5 500.5 Q219 512 220 514 Q232 570 239.5 617.5 Q247 665 248 668 Q253 695 268.5 702.5 Q284 710 286 710 Q441 707 531.5 712 Q622 717 624 718 Q727 728 787.5 740 Q848 752 850 754 Q880 765 882 783.5 Q884 802 882 804 Q870 829 850 831 Q830 833 828 832 Q751 808 672.5 798.5 Q594 789 588 790 Q474 784 361 784.5 Q248 785 240 786 Q193 788 179.5 743.5 Q166 699 168 692 Q148 581 138.5 537.5 Q129 494 130 496 ZM356 244 Q365 274 354.5 289 Q344 304 342 304 Q314 311 300 298.5 Q286 286 286 284 Q229 184 171.5 124.5 Q114 65 110 64 Q85 42 88 26 Q91 10 94 10 Q116 -5 136 1 Q156 7 158 10 Q254 92 304.5 165.5 Q355 239 356 244 ZM926 -25 Q943 -3 941 13.5 Q939 30 938 32 Q878 140 830 205 Q782 270 780 272 Q755 293 736.5 287.5 Q718 282 718 280 Q702 260 710.5 240.5 Q719 221 722 220 Q787 136 829.5 66 Q872 -4 874 -9 Q890 -33 907 -30 Q924 -27 926 -25 Z" /><glyph glyph-name="uni4E58" unicode="&#x4e58;" d="M160 702 Q246 698 337 699.5 Q428 701 436 702 Q464 704 466 706 L466 652 L78 652 Q36 623 50 599 Q64 575 70 574 L466 574 L466 310 Q459 303 458 300 Q386 223 384 224 L384 534 Q354 568 330.5 553 Q307 538 306 534 L306 506 L110 506 Q86 502 79.5 486 Q73 470 74 468 Q78 439 93 432.5 Q108 426 110 428 L306 428 L306 374 Q288 367 282 366 Q188 336 129.5 321.5 Q71 307 70 308 Q45 299 41.5 280.5 Q38 262 40 260 Q47 231 63.5 228.5 Q80 226 82 228 Q148 238 210.5 256 Q273 274 278 276 Q304 288 306 288 L306 232 Q306 207 328 203.5 Q350 200 354 202 Q325 172 277.5 140 Q230 108 180.5 80 Q131 52 97 34 Q63 16 62 16 Q38 6 41.5 -12 Q45 -30 48 -33 Q66 -58 85 -58 Q104 -58 106 -57 Q272 26 368 117 Q464 208 466 216 L466 -69 Q468 -90 483.5 -96.5 Q499 -103 502 -103 Q528 -98 535 -84 Q542 -70 542 -69 L542 232 Q635 127 748 46 Q861 -35 922 -65 Q947 -74 963 -59 Q979 -44 980 -41 Q992 -9 979 2.5 Q966 14 964 14 Q768 106 656 209.5 Q544 313 542 322 L542 574 L930 574 Q948 576 954 592.5 Q960 609 960 612 Q955 638 943 645 Q931 652 930 652 L542 652 L542 710 Q665 714 752.5 723 Q840 732 844 734 Q868 739 871.5 757 Q875 775 874 778 Q863 808 848 814.5 Q833 821 832 820 Q717 803 611 796 Q505 789 498 790 Q356 781 259.5 783 Q163 785 160 786 Q132 783 126 763.5 Q120 744 122 742 Q124 713 140.5 706.5 Q157 700 160 702 ZM738 210 L846 210 Q922 215 940.5 254.5 Q959 294 956 300 L956 358 Q951 381 935.5 387.5 Q920 394 918 394 Q892 389 886 374 Q880 359 882 358 Q879 302 858.5 293.5 Q838 285 836 288 L748 288 Q715 287 711.5 319.5 Q708 352 710 358 Q799 390 853.5 423.5 Q908 457 910 460 Q926 479 922.5 497.5 Q919 516 918 518 Q899 539 883 535.5 Q867 532 866 530 Q807 486 758 463 Q709 440 706 440 L706 526 Q700 546 684 552 Q668 558 666 558 Q641 553 635.5 540 Q630 527 632 526 L632 296 Q641 235 686 221 Q731 207 738 210 Z" /><glyph glyph-name="uni4E5D" unicode="&#x4e5d;" d="M90 668 Q95 639 113 632.5 Q131 626 134 628 L388 628 Q373 458 323 338.5 Q273 219 212.5 144.5 Q152 70 108 35.5 Q64 1 62 2 Q39 -17 47.5 -38 Q56 -59 60 -61 Q81 -78 102.5 -72.5 Q124 -67 126 -65 Q239 11 309 125 Q379 239 414.5 354 Q450 469 462 546.5 Q474 624 474 628 L694 628 Q721 612 718 602 L708 40 Q712 -41 761 -58.5 Q810 -76 818 -73 L882 -73 Q953 -71 977 -6 Q1001 59 1000 170 Q999 209 987 219 Q975 229 960 228 Q927 235 922 170 Q924 119 918 64.5 Q912 10 874 6 L822 6 Q799 10 794 24 Q789 38 790 40 L800 616 Q789 678 753.5 693 Q718 708 714 706 L474 706 L474 790 Q468 814 449 821 Q430 828 428 828 Q402 823 396 807.5 Q390 792 392 790 L392 706 L134 706 Q105 701 97 685.5 Q89 670 90 668 Z" /><glyph glyph-name="uni4E5F" unicode="&#x4e5f;" d="M212 794 Q183 788 176.5 768 Q170 748 172 746 L172 510 L70 480 Q40 466 37 447.5 Q34 429 36 428 Q47 404 67 404 Q87 404 90 406 L172 432 L172 96 Q174 -30 229.5 -56 Q285 -82 294 -77 L816 -77 Q884 -80 921 -53 Q958 -26 972.5 12 Q987 50 989.5 80 Q992 110 992 112 Q986 133 970 139.5 Q954 146 952 146 Q927 141 920 127 Q913 113 914 112 Q913 23 869.5 10.5 Q826 -2 820 2 L334 2 Q264 -1 255.5 45.5 Q247 92 252 100 L252 452 L498 526 L498 112 Q500 83 517.5 75 Q535 67 538 68 Q562 73 569 91 Q576 109 576 112 L576 550 L844 632 Q865 635 866 632 Q876 617 874 608 L874 390 Q871 293 852.5 268.5 Q834 244 832 248 Q793 241 734.5 255 Q676 269 670 272 Q641 275 630 262.5 Q619 250 620 248 Q616 221 630.5 211 Q645 201 648 202 Q770 164 826 171 Q882 178 882 182 Q929 220 941 285 Q953 350 952 358 L952 628 Q940 705 895 710 Q850 715 844 710 L576 628 L576 800 Q571 829 555.5 837 Q540 845 538 844 Q509 838 502.5 820 Q496 802 498 800 L498 604 L252 530 L252 746 Q246 777 230 786 Q214 795 212 794 Z" /><glyph glyph-name="uni4E60" unicode="&#x4e60;" d="M858 676 L858 500 Q855 237 822 135 Q789 33 758 16 Q730 -5 678.5 -3.5 Q627 -2 572.5 11 Q518 24 479.5 37.5 Q441 51 440 52 Q410 61 395 47.5 Q380 34 380 32 Q371 11 386 -2.5 Q401 -16 404 -17 Q603 -86 700.5 -80 Q798 -74 830 -35 Q889 33 912 182.5 Q935 332 934 508 L934 696 Q928 760 886.5 774 Q845 788 840 786 L142 786 Q110 780 101 764 Q92 748 94 746 Q99 717 119 710.5 Q139 704 142 706 L824 706 Q845 701 851.5 689 Q858 677 858 676 ZM648 420 Q658 447 644 465 Q630 483 628 484 Q470 560 359 599.5 Q248 639 244 640 Q211 643 197 630.5 Q183 618 184 616 Q180 587 196.5 576 Q213 565 216 566 Q388 502 485 457.5 Q582 413 584 412 Q616 398 632 407.5 Q648 417 648 420 ZM780 334 Q804 353 801 372.5 Q798 392 796 394 Q776 411 755.5 407 Q735 403 734 402 Q649 351 546 312 Q443 273 347 245.5 Q251 218 189.5 204 Q128 190 126 190 Q88 176 82 156 Q76 136 78 134 Q92 107 117.5 104.5 Q143 102 146 104 Q427 172 600.5 249.5 Q774 327 780 334 Z" /><glyph glyph-name="uni4E61" unicode="&#x4e61;" d="M440 480 Q333 413 242 364.5 Q151 316 146 314 Q117 299 114.5 282 Q112 265 114 264 Q125 243 147 239 Q169 235 172 236 Q247 236 335.5 237.5 Q424 239 432 240 Q563 246 643 252.5 Q723 259 726 260 Q661 180 563 126.5 Q465 73 367 41.5 Q269 10 202.5 -3.5 Q136 -17 134 -17 Q102 -25 97 -43.5 Q92 -62 94 -65 Q102 -86 122.5 -90.5 Q143 -95 146 -95 Q401 -51 549.5 32.5 Q698 116 702 126 Q817 233 864 355 Q911 477 910 488 Q910 516 895 527 Q880 538 878 538 Q850 538 840.5 522 Q831 506 832 504 Q812 433 792.5 384.5 Q773 336 772 334 Q313 307 314 310 Q298 310 303 313.5 Q308 317 310 318 Q536 446 672 573 Q808 700 812 710 Q827 735 816.5 754 Q806 773 804 774 Q779 789 762.5 778.5 Q746 768 746 766 Q677 683 606 622 Q535 561 530 558 Q374 552 316 550.5 Q258 549 262 550 Q247 547 248 550 Q253 559 258 562 Q354 639 418.5 702.5 Q483 766 486 770 Q504 796 496 813.5 Q488 831 486 832 Q459 847 441.5 836.5 Q424 826 424 824 Q347 735 247 651.5 Q147 568 138 562 Q106 537 103 520.5 Q100 504 102 504 Q114 483 141 479 Q168 475 172 476 Q188 476 230 476.5 Q272 477 320.5 477.5 Q369 478 403.5 478.5 Q438 479 440 480 Z" /><glyph glyph-name="uni4E86" unicode="&#x4e86;" d="M706 632 Q542 533 506 504.5 Q470 476 478 480 Q477 461 494 431 Q511 401 514 398 Q600 255 593.5 161 Q587 67 580 64 Q559 27 515.5 16.5 Q472 6 424 11.5 Q376 17 341.5 26 Q307 35 306 36 Q270 42 256.5 27 Q243 12 244 10 Q241 -10 259.5 -23 Q278 -36 282 -37 Q449 -87 528.5 -63.5 Q608 -40 608 -33 Q681 56 680 152 Q679 248 674 256 Q606 425 596 424 Q578 461 584 456 Q593 470 658.5 511 Q724 552 734 558 Q819 609 880.5 654.5 Q942 700 950 710 Q974 742 950.5 758 Q927 774 898 774 L142 774 Q113 768 105 752 Q97 736 98 734 Q103 706 121 700 Q139 694 142 696 L808 696 Q804 692 758 664 Q712 636 706 632 Z" /><glyph glyph-name="uni4E89" unicode="&#x4e89;" d="M490 590 L244 590 Q285 632 312.5 667.5 Q340 703 342 706 L546 706 Q555 704 553.5 694.5 Q552 685 552 684 Q536 646 514 618.5 Q492 591 490 590 ZM768 510 Q805 494 800 484 L800 398 L552 398 L552 510 L768 510 ZM764 210 L552 210 L552 318 L800 318 L800 236 Q795 217 780 213 Q765 209 764 210 ZM78 562 Q52 537 57.5 518.5 Q63 500 66 500 Q88 481 112 489 Q136 497 138 500 Q177 529 172 526 Q202 506 208 510 L470 510 L470 398 L90 398 Q59 392 50.5 374 Q42 356 44 354 Q52 328 71.5 322 Q91 316 94 318 L470 318 L470 210 L184 210 Q156 204 148.5 186 Q141 168 142 166 Q147 140 166 134 Q185 128 188 130 L470 130 L470 6 Q463 -37 395 -18.5 Q327 0 318 6 Q290 10 276 1.5 Q262 -7 262 -9 Q256 -41 269.5 -55 Q283 -69 286 -69 Q383 -106 438 -102 Q493 -98 517.5 -73 Q542 -48 547.5 -24 Q553 0 552 2 L552 130 L800 130 Q858 130 871 173.5 Q884 217 882 224 L882 318 L952 318 Q981 320 989 337.5 Q997 355 996 358 Q990 384 972 391 Q954 398 952 398 L882 398 L882 518 Q872 567 841.5 579 Q811 591 808 590 L588 590 Q592 599 596 602 Q642 686 640 684 Q660 757 619.5 773 Q579 789 572 786 L388 786 Q397 814 383.5 830.5 Q370 847 368 848 Q339 854 324.5 838 Q310 822 310 820 Q246 706 165.5 635 Q85 564 78 562 Z" /><glyph glyph-name="uni4E8B" unicode="&#x4e8b;" d="M470 660 L196 660 Q140 655 129.5 624.5 Q119 594 122 590 L122 538 Q127 482 162.5 471.5 Q198 461 204 464 L470 464 L470 394 L146 394 Q120 389 114 376 Q108 363 110 362 Q112 339 127.5 334 Q143 329 146 330 L470 330 L470 256 L70 256 Q51 251 47 238 Q43 225 44 224 Q48 205 60 201 Q72 197 74 198 L470 198 L470 126 L142 126 Q118 121 111.5 109 Q105 97 106 96 Q110 73 125 68 Q140 63 142 64 L470 64 L470 6 Q460 -28 393.5 -24 Q327 -20 318 -17 Q288 -13 278.5 -29.5 Q269 -46 270 -49 Q272 -72 291.5 -81.5 Q311 -91 314 -91 Q478 -108 515 -57.5 Q552 -7 546 2 L546 64 L824 64 Q882 63 893 99.5 Q904 136 902 142 L902 198 L968 198 Q985 199 988.5 210.5 Q992 222 992 224 Q987 244 976 250 Q965 256 964 256 L898 256 L898 314 Q893 371 860.5 383.5 Q828 396 824 394 L546 394 L546 464 L816 464 Q869 466 882.5 499.5 Q896 533 894 538 L894 582 Q886 638 853 650 Q820 662 816 660 L546 660 L546 714 L938 714 Q956 716 962 730 Q968 744 968 746 Q963 766 951 772 Q939 778 938 778 L546 778 L546 812 Q540 832 524 838 Q508 844 506 844 Q480 839 474 826 Q468 813 470 812 L470 778 L84 778 Q62 773 55.5 760 Q49 747 50 746 Q54 723 68 718 Q82 713 84 714 L470 714 L470 660 ZM796 522 L546 522 L546 602 L796 602 Q813 600 816.5 589.5 Q820 579 820 578 L820 546 Q818 528 807.5 524.5 Q797 521 796 522 ZM196 578 Q195 595 208 598.5 Q221 602 224 602 L470 602 L470 522 L220 522 Q202 523 198.5 533.5 Q195 544 196 546 L196 578 ZM832 308 L832 256 L546 256 L546 330 L808 330 Q825 328 828.5 318.5 Q832 309 832 308 ZM808 126 L546 126 L546 198 L828 198 L828 146 Q826 129 817.5 127 Q809 125 808 126 Z" /><glyph glyph-name="uni4E8C" unicode="&#x4e8c;" d="M938 714 Q933 743 918 751 Q903 759 902 758 L142 758 Q113 752 105 734 Q97 716 98 714 Q100 686 117.5 680 Q135 674 138 676 L902 676 Q925 678 931.5 694.5 Q938 711 938 714 ZM984 6 Q978 30 961 37 Q944 44 942 44 L86 44 Q55 39 46.5 23.5 Q38 8 40 6 Q45 -22 64 -29.5 Q83 -37 86 -37 L942 -37 Q969 -31 976.5 -14 Q984 3 984 6 Z" /><glyph glyph-name="uni4E8E" unicode="&#x4e8e;" d="M106 432 Q77 426 69.5 409.5 Q62 393 64 394 Q68 365 87.5 358.5 Q107 352 110 354 L486 354 L486 16 Q457 -18 372.5 -3.5 Q288 11 278 16 Q249 23 236 13.5 Q223 4 224 2 Q220 -27 236.5 -40 Q253 -53 256 -53 Q363 -84 426.5 -79 Q490 -74 520.5 -51 Q551 -28 559.5 -7 Q568 14 568 16 L568 354 L938 354 Q962 356 969 373.5 Q976 391 976 394 Q970 418 955.5 425 Q941 432 942 432 L568 432 L568 702 L882 702 Q905 704 911.5 721.5 Q918 739 918 742 Q913 768 898 775 Q883 782 882 782 L146 782 Q117 776 110.5 760 Q104 744 106 742 Q108 713 125.5 706.5 Q143 700 146 702 L486 702 L486 432 L106 432 Z" /><glyph glyph-name="uni4E91" unicode="&#x4e91;" d="M898 770 Q892 794 876 801 Q860 808 858 808 L160 808 Q132 803 126 787.5 Q120 772 122 770 Q127 744 144 738 Q161 732 164 734 L858 734 Q884 736 891 751.5 Q898 767 898 770 ZM102 36 Q79 15 77.5 1.5 Q76 -12 78 -13 Q92 -27 115.5 -32 Q139 -37 142 -37 Q320 -36 425.5 -32.5 Q531 -29 534 -29 Q661 -22 751 -15.5 Q841 -9 846 -9 Q871 -65 866 -61 Q885 -90 906.5 -89.5 Q928 -89 930 -87 Q950 -71 947 -47 Q944 -23 942 -21 Q758 294 752 288 Q728 308 709.5 306.5 Q691 305 690 304 Q668 284 675.5 264.5 Q683 245 686 244 Q739 170 774.5 110.5 Q810 51 812 48 Q739 38 648.5 33 Q558 28 550 28 Q399 25 297.5 24 Q196 23 192 24 Q305 165 385.5 305 Q466 445 470 456 L922 456 Q946 458 953 473.5 Q960 489 960 492 Q955 516 939.5 523 Q924 530 922 530 L90 530 Q62 525 56 509.5 Q50 494 52 492 Q54 466 70.5 460 Q87 454 90 456 L384 456 Q296 290 202.5 166 Q109 42 102 36 Z" /><glyph glyph-name="uni4E92" unicode="&#x4e92;" d="M262 134 L690 134 L662 14 L90 14 Q62 9 54.5 -5 Q47 -19 48 -21 Q53 -50 70 -58 Q87 -66 90 -65 L960 -65 Q983 -59 989.5 -41 Q996 -23 996 -21 Q991 1 976 7.5 Q961 14 960 14 L752 14 L840 484 Q846 560 804 578.5 Q762 597 756 594 L350 594 L380 710 L926 710 Q953 712 960.5 729.5 Q968 747 968 750 Q962 779 945 787 Q928 795 926 794 L102 794 Q73 788 65.5 770 Q58 752 60 750 Q63 721 81 714.5 Q99 708 102 710 L286 710 L172 240 Q163 163 208.5 146.5 Q254 130 262 134 ZM266 244 L330 510 L730 510 Q757 494 752 484 L706 216 L294 216 Q271 217 267.5 229.5 Q264 242 266 244 Z" /><glyph glyph-name="uni4E94" unicode="&#x4e94;" d="M94 448 Q96 419 113.5 412.5 Q131 406 134 408 L360 408 L294 20 L86 20 Q55 15 46.5 2 Q38 -11 40 -13 Q45 -42 62 -50 Q79 -58 82 -57 L956 -57 Q998 -23 980 -2 Q962 19 956 20 L844 20 L844 398 Q839 468 798 481.5 Q757 495 752 492 L458 492 L486 706 L902 706 Q925 708 931.5 723.5 Q938 739 938 742 Q933 768 918 775 Q903 782 902 782 L118 782 Q89 776 82.5 760 Q76 744 78 742 Q80 716 97.5 710 Q115 704 118 706 L404 706 L372 492 L134 492 Q105 486 98.5 468 Q92 450 94 448 ZM760 362 L760 20 L376 20 L444 408 L714 408 Q749 407 755 386 Q761 365 760 362 Z" /><glyph glyph-name="uni4E9A" unicode="&#x4e9a;" d="M32 2 Q34 -26 48.5 -33.5 Q63 -41 66 -41 L938 -41 Q965 -35 974.5 -17.5 Q984 0 984 2 Q978 23 961 29.5 Q944 36 942 36 L674 36 L674 702 L898 702 Q927 704 935 721.5 Q943 739 942 742 Q936 771 920 779 Q904 787 902 786 L114 786 Q79 780 71.5 762 Q64 744 66 742 Q69 713 90 706.5 Q111 700 114 702 L354 702 L354 36 L70 36 Q45 31 38 17 Q31 3 32 2 ZM592 36 L436 36 L436 702 L592 702 L592 36 ZM902 530 Q905 565 890.5 577.5 Q876 590 874 590 Q843 592 833 572.5 Q823 553 824 550 Q783 371 749.5 275 Q716 179 714 178 Q701 142 712 127.5 Q723 113 726 114 Q752 109 769.5 126 Q787 143 788 146 Q807 193 827 257 Q847 321 864 383 Q881 445 891 486.5 Q901 528 902 530 ZM290 122 Q318 139 319 167 Q320 195 318 198 Q264 387 228.5 476.5 Q193 566 192 566 Q172 591 153.5 591 Q135 591 134 590 Q112 573 115.5 552 Q119 531 122 530 Q172 397 205 286.5 Q238 176 240 170 Q251 130 269.5 124.5 Q288 119 290 122 Z" /><glyph glyph-name="uni4E9B" unicode="&#x4e9b;" d="M698 284 L846 284 Q894 279 919.5 306.5 Q945 334 955 373.5 Q965 413 966.5 443.5 Q968 474 968 476 Q963 500 949 507 Q935 514 934 514 Q908 509 902 493.5 Q896 478 898 476 Q894 388 868.5 372.5 Q843 357 840 362 L714 362 Q668 362 659.5 385 Q651 408 654 412 L654 538 Q760 569 831.5 614 Q903 659 906 664 Q928 683 926 701.5 Q924 720 922 722 Q902 743 884.5 739.5 Q867 736 866 734 Q775 667 715.5 642.5 Q656 618 654 620 L654 798 Q649 819 633.5 825.5 Q618 832 616 832 Q587 827 580.5 813 Q574 799 576 798 L576 406 Q581 315 635.5 297 Q690 279 698 284 ZM212 354 L212 718 Q206 741 190 747.5 Q174 754 172 754 Q144 749 138 734 Q132 719 134 718 L134 346 Q122 341 122 342 Q83 337 86 338 Q58 329 52 311.5 Q46 294 48 292 Q56 269 73.5 265.5 Q91 262 94 264 Q246 280 374 316.5 Q502 353 510 358 Q538 369 540.5 387.5 Q543 406 542 408 Q528 433 508 433 Q488 433 486 432 Q381 394 388 402 L388 604 L498 604 Q521 606 527.5 623.5 Q534 641 534 644 Q529 670 514 677 Q499 684 498 684 L392 684 L392 794 Q387 818 371.5 823.5 Q356 829 354 828 Q325 825 318.5 810.5 Q312 796 314 794 L314 378 Q216 354 212 354 ZM870 170 Q865 196 849.5 203 Q834 210 832 210 L208 210 Q179 204 171 188 Q163 172 164 170 Q169 144 187 138 Q205 132 208 134 L832 134 Q856 136 863 151.5 Q870 167 870 170 ZM976 -37 Q970 -11 953 -5.5 Q936 0 934 -1 L114 -1 Q82 -3 73 -18.5 Q64 -34 66 -37 Q71 -63 91 -70 Q111 -77 114 -77 L934 -77 Q961 -71 968.5 -55 Q976 -39 976 -37 Z" /><glyph glyph-name="uni4EA4" unicode="&#x4ea4;" d="M440 790 Q463 743 466 738 L90 738 Q68 733 61.5 717.5 Q55 702 56 700 Q60 674 74 668 Q88 662 90 664 L926 664 Q950 666 955.5 681.5 Q961 697 960 700 Q957 724 942.5 731 Q928 738 926 738 L552 738 Q508 832 510 828 Q488 850 470.5 848 Q453 846 452 844 Q430 827 433.5 809 Q437 791 440 790 ZM266 408 Q327 294 385 223 Q443 152 448 150 Q296 53 189 27.5 Q82 2 78 6 Q48 -1 43 -21.5 Q38 -42 40 -45 Q48 -74 69.5 -78 Q91 -82 94 -81 Q264 -35 388 27 Q512 89 518 96 Q656 0 790 -43.5 Q924 -87 934 -87 Q964 -90 976 -74.5 Q988 -59 988 -57 Q991 -24 974.5 -12 Q958 0 956 -1 Q784 37 683 90.5 Q582 144 580 150 Q683 258 731.5 342.5 Q780 427 780 432 Q830 368 865 324.5 Q900 281 902 280 Q921 258 939.5 263.5 Q958 269 960 272 Q976 294 971 315 Q966 336 964 338 Q889 438 805 527.5 Q721 617 714 624 Q691 636 673 627 Q655 618 654 616 Q639 592 645 577 Q651 562 654 562 Q708 504 714 500 Q664 372 590.5 290 Q517 208 510 206 Q442 276 385.5 373 Q329 470 326 480 Q379 549 376 550 Q378 557 380 558 Q392 585 381 600 Q370 615 368 616 Q342 625 328 614.5 Q314 604 314 602 Q234 479 153 409 Q72 339 66 338 Q45 318 49 299.5 Q53 281 56 280 Q71 258 89.5 263.5 Q108 269 110 272 Q178 321 221 363 Q264 405 266 408 Z" /><glyph glyph-name="uni4EAB" unicode="&#x4eab;" d="M458 798 Q462 793 471 778 Q480 763 482 762 L90 762 Q51 730 67.5 707.5 Q84 685 90 684 L960 684 Q999 713 982 736.5 Q965 760 960 762 L568 762 Q534 834 534 832 Q514 856 494.5 855 Q475 854 474 852 Q450 835 452.5 817 Q455 799 458 798 ZM886 484 L886 554 Q878 612 847 625 Q816 638 812 636 L240 636 Q182 629 169.5 599.5 Q157 570 160 566 L160 496 Q164 435 193.5 424 Q223 413 228 416 L812 416 Q865 420 876.5 449.5 Q888 479 886 484 ZM240 526 Q239 560 253 567.5 Q267 575 270 574 L776 574 Q799 570 804 547.5 Q809 525 808 522 Q803 492 790 487 Q777 482 776 484 L282 484 Q249 484 243.5 503.5 Q238 523 240 526 ZM706 292 Q702 285 698 284 Q636 266 569.5 244 Q503 222 498 220 Q465 201 464 180 Q463 159 466 158 L106 158 Q82 153 75.5 138 Q69 123 70 122 Q74 97 89 91.5 Q104 86 106 88 L522 88 Q552 30 541 6.5 Q530 -17 526 -17 Q464 -45 384.5 -29 Q305 -13 298 -9 Q267 -3 255 -16.5 Q243 -30 244 -33 Q240 -59 257.5 -71 Q275 -83 278 -83 Q356 -100 409.5 -105.5 Q463 -111 466 -111 Q545 -100 578 -69 Q611 -38 615.5 -2.5 Q620 33 612.5 59.5 Q605 86 604 88 L938 88 Q962 90 967.5 104.5 Q973 119 972 122 Q969 145 954.5 151.5 Q940 158 938 158 L564 158 Q554 168 578.5 182 Q603 196 608 198 Q704 230 763 254 Q822 278 824 280 Q853 293 856 310.5 Q859 328 858 330 Q844 353 821 359.5 Q798 366 796 366 L192 366 Q167 361 161.5 346 Q156 331 158 330 Q160 305 174.5 299.5 Q189 294 192 296 L690 296 Q707 291 706 292 Z" /><glyph glyph-name="uni4EAC" unicode="&#x4eac;" d="M448 798 Q463 751 470 746 L82 746 Q54 740 48 724 Q42 708 44 706 Q46 678 62.5 672 Q79 666 82 668 L956 668 Q979 670 985.5 684.5 Q992 699 992 702 Q987 731 974 739 Q961 747 960 746 L556 746 Q547 772 535 798.5 Q523 825 522 828 Q505 853 486 853 Q467 853 466 852 Q442 835 443.5 817 Q445 799 448 798 ZM490 16 Q489 -30 427 -20 Q365 -10 356 -5 Q333 -2 321.5 -16 Q310 -30 310 -33 Q306 -62 318.5 -71.5 Q331 -81 334 -81 Q426 -105 476 -95.5 Q526 -86 546 -61 Q566 -36 569.5 -14 Q573 8 572 10 L572 272 L816 272 Q868 270 878 301.5 Q888 333 886 338 L886 518 Q884 575 850.5 585.5 Q817 596 812 594 L208 594 Q155 592 147 561 Q139 530 142 526 L142 358 Q141 290 179.5 279 Q218 268 224 272 L490 272 L490 16 ZM220 362 L220 492 Q219 513 234 517.5 Q249 522 252 522 L788 522 Q799 517 803.5 505 Q808 493 808 492 L808 366 Q806 346 795.5 343 Q785 340 784 342 L248 342 Q225 340 221.5 350 Q218 360 220 362 ZM346 142 Q359 163 349.5 180 Q340 197 338 198 Q313 212 295.5 204 Q278 196 278 194 Q201 104 127 52 Q53 0 48 -1 Q26 -17 29.5 -34 Q33 -51 36 -53 Q55 -73 73.5 -70 Q92 -67 94 -65 Q195 -2 268.5 67 Q342 136 346 142 ZM698 194 Q682 166 690.5 150 Q699 134 702 134 Q795 58 853.5 -9 Q912 -76 914 -81 Q933 -101 949.5 -95 Q966 -89 968 -87 Q986 -63 982 -44.5 Q978 -26 976 -25 Q884 78 821 137 Q758 196 756 198 Q730 209 714 202 Q698 195 698 194 Z" /><glyph glyph-name="uni4EAE" unicode="&#x4eae;" d="M440 794 Q458 753 458 754 L98 754 Q70 749 62.5 734 Q55 719 56 718 Q61 693 78 687.5 Q95 682 98 684 L944 684 Q969 686 975 700.5 Q981 715 980 718 Q977 741 961.5 747.5 Q946 754 944 754 L550 754 Q517 819 514 824 Q497 846 478 847.5 Q459 849 458 848 Q434 831 435.5 813 Q437 795 440 794 ZM858 488 L858 574 Q852 615 816.5 624 Q781 633 776 632 L266 632 Q204 626 190.5 605 Q177 584 180 582 L180 480 Q179 440 217.5 433 Q256 426 262 428 L780 428 Q838 429 849 456 Q860 483 858 488 ZM252 530 Q249 561 267.5 566 Q286 571 290 570 L756 570 Q776 567 780 547.5 Q784 528 784 526 Q782 498 769.5 494 Q757 490 756 492 L286 492 Q258 491 254 509 Q250 527 252 530 ZM142 202 L142 272 Q139 295 157.5 300 Q176 305 180 304 L862 304 Q894 291 885.5 261 Q877 231 874 228 Q861 204 874 189 Q887 174 890 174 Q917 164 930.5 175.5 Q944 187 944 190 Q953 208 964 240 Q975 272 976 276 Q980 346 930.5 363 Q881 380 874 378 L164 378 Q89 373 75.5 338.5 Q62 304 66 300 L66 202 Q68 173 83.5 166.5 Q99 160 102 162 Q128 164 135 181.5 Q142 199 142 202 ZM44 -53 Q52 -74 73.5 -78.5 Q95 -83 98 -83 Q211 -74 272.5 -38.5 Q334 -3 359 40 Q384 83 388.5 115.5 Q393 148 392 150 Q391 170 404 174 Q417 178 420 178 L580 178 Q607 161 604 150 L604 48 Q604 -54 666 -72.5 Q728 -91 738 -87 L862 -87 Q955 -82 975.5 -31 Q996 20 992 28 Q986 57 970 65 Q954 73 952 72 Q921 69 914.5 53.5 Q908 38 910 36 Q902 -1 871 -7.5 Q840 -14 836 -13 L772 -13 Q693 -11 683 18 Q673 47 678 52 L678 170 Q676 228 642.5 239 Q609 250 604 248 L396 248 Q331 248 320.5 215.5 Q310 183 314 178 Q308 94 288 64 Q268 34 266 36 Q229 16 159 4 Q89 -8 82 -9 Q52 -14 47 -32 Q42 -50 44 -53 Z" /><glyph glyph-name="uni4EB2" unicode="&#x4eb2;" d="M134 742 Q105 737 98.5 722 Q92 707 94 706 Q96 681 113.5 675.5 Q131 670 134 672 L890 672 Q913 674 919.5 688.5 Q926 703 926 706 Q921 729 906 735.5 Q891 742 890 742 L542 742 Q533 758 512.5 792.5 Q492 827 490 832 Q470 848 453.5 844.5 Q437 841 436 840 Q417 821 421 805.5 Q425 790 428 790 Q456 739 454 742 L134 742 ZM294 182 Q300 210 288 224.5 Q276 239 274 240 Q248 246 235.5 230 Q223 214 224 212 Q188 120 137.5 65.5 Q87 11 82 10 Q59 -11 65 -29 Q71 -47 74 -49 Q96 -64 118 -53.5 Q140 -43 142 -41 Q221 33 257.5 104.5 Q294 176 294 182 ZM866 -29 Q890 -50 907.5 -44.5 Q925 -39 926 -37 Q940 -12 932 5.5 Q924 23 922 24 Q856 105 798.5 157.5 Q741 210 738 212 Q707 230 688.5 222 Q670 214 670 212 Q657 188 670 169.5 Q683 151 686 150 Q749 97 793.5 51 Q838 5 840 2 Q860 -24 866 -29 ZM384 504 Q397 513 395 530.5 Q393 548 392 550 Q330 650 326 652 Q307 668 291 664.5 Q275 661 274 660 Q256 643 261.5 628 Q267 613 270 612 Q332 527 334 518 Q348 497 350 504 L74 504 Q46 498 40 482 Q34 466 36 464 Q38 438 54.5 432 Q71 426 74 428 L466 428 L466 330 L126 330 Q94 325 85 309.5 Q76 294 78 292 Q83 266 103 260 Q123 254 126 256 L466 256 L466 10 Q469 -24 413.5 -18 Q358 -12 350 -9 Q317 -3 305 -18.5 Q293 -34 294 -37 Q291 -63 309 -73 Q327 -83 330 -83 Q418 -105 464 -95 Q510 -85 527 -60 Q544 -35 545.5 -13.5 Q547 8 546 10 L546 256 L890 256 Q913 258 919.5 273.5 Q926 289 926 292 Q924 316 910 323 Q896 330 894 330 L546 330 L546 428 L948 428 Q971 430 977.5 445.5 Q984 461 984 464 Q982 490 968 497 Q954 504 952 504 L678 504 Q697 532 713 568 Q729 604 730 608 Q736 637 722 650.5 Q708 664 706 664 Q679 667 668 650.5 Q657 634 658 632 Q602 503 592 504 L384 504 Z" /><glyph glyph-name="uni4EBA" unicode="&#x4eba;" d="M70 14 Q43 0 44 -21 Q45 -42 48 -45 Q63 -69 85 -68 Q107 -67 110 -65 Q237 8 317 106.5 Q397 205 440 299.5 Q483 394 498.5 456.5 Q514 519 514 522 Q542 389 605 279 Q668 169 738 88 Q808 7 857.5 -36.5 Q907 -80 910 -81 Q936 -94 953.5 -81 Q971 -68 972 -65 Q989 -31 978 -15 Q967 1 964 2 Q830 102 747.5 224.5 Q665 347 622.5 460 Q580 573 565.5 646 Q551 719 552 722 L552 794 Q547 821 527.5 828.5 Q508 836 506 836 Q471 830 463.5 813 Q456 796 458 794 L458 714 Q445 529 386 396 Q327 263 254 178.5 Q181 94 126.5 53.5 Q72 13 70 14 Z" /><glyph glyph-name="uni4EC1" unicode="&#x4ec1;" d="M160 432 Q164 435 168 444 L168 -65 Q170 -83 185.5 -89 Q201 -95 204 -95 Q230 -90 237 -78 Q244 -66 244 -65 L244 582 Q264 647 278.5 706 Q293 765 294 770 Q291 800 275.5 810 Q260 820 258 820 Q227 817 218.5 798.5 Q210 780 212 778 Q172 594 107 496 Q42 398 36 398 Q18 364 22 345 Q26 326 28 326 Q50 312 71 323.5 Q92 335 94 338 Q116 364 137 396.5 Q158 429 160 432 ZM938 700 Q932 724 916 731 Q900 738 898 738 L384 738 Q356 732 348.5 715 Q341 698 342 696 Q347 670 366 664 Q385 658 388 660 L902 660 Q927 662 933 679.5 Q939 697 938 700 ZM992 2 Q986 20 966 26 Q946 32 944 32 L342 32 Q313 27 305 15 Q297 3 298 2 Q303 -23 321 -30 Q339 -37 342 -37 L944 -37 Q975 -31 984 -15.5 Q993 0 992 2 Z" /><glyph glyph-name="uni4ECA" unicode="&#x4eca;" d="M110 484 Q282 555 377 635 Q472 715 474 722 Q499 751 521.5 740 Q544 729 546 726 Q690 603 820.5 541.5 Q951 480 960 480 Q983 474 993.5 490.5 Q1004 507 1004 510 Q1004 536 989 549 Q974 562 972 562 Q806 619 697 702 Q588 785 584 794 Q515 842 474 819.5 Q433 797 432 790 Q334 684 209.5 619.5 Q85 555 74 554 Q44 534 44.5 515.5 Q45 497 48 496 Q63 471 85 476 Q107 481 110 484 ZM756 440 Q754 463 742.5 473.5 Q731 484 730 484 Q570 526 447 538.5 Q324 551 318 550 Q288 547 278.5 531.5 Q269 516 270 514 Q272 492 289.5 485.5 Q307 479 310 480 Q469 467 590 441 Q711 415 718 412 Q740 411 748 424 Q756 437 756 440 ZM858 276 Q862 251 854 244 Q796 148 693.5 96 Q591 44 482.5 22.5 Q374 1 298.5 -2.5 Q223 -6 220 -5 Q191 -7 183 -24.5 Q175 -42 176 -45 Q181 -72 199 -79.5 Q217 -87 220 -87 Q429 -84 567.5 -39 Q706 6 786.5 66 Q867 126 900.5 171.5 Q934 217 934 220 Q968 314 927 339.5 Q886 365 878 362 L82 362 Q60 356 53.5 340 Q47 324 48 322 Q52 297 66 291.5 Q80 286 82 288 L828 288 Q859 279 858 276 Z" /><glyph glyph-name="uni4ECB" unicode="&#x4ecb;" d="M90 432 Q258 511 362 606 Q466 701 470 710 Q519 760 514 750 Q519 747 540 726 Q561 705 564 702 Q721 549 832 487 Q943 425 948 428 Q977 419 988.5 435.5 Q1000 452 1000 456 Q1006 491 990 504.5 Q974 518 972 518 Q834 575 731.5 663.5 Q629 752 624 762 Q563 823 536 836.5 Q509 850 510 848 Q486 843 454.5 812.5 Q423 782 420 778 Q290 640 174.5 574.5 Q59 509 52 510 Q30 494 33.5 472 Q37 450 40 448 Q53 426 70.5 428 Q88 430 90 432 ZM702 -87 Q731 -82 739 -68 Q747 -54 746 -53 L746 492 Q740 516 722 521.5 Q704 527 702 526 Q673 523 666.5 508.5 Q660 494 662 492 L662 -53 Q664 -74 681.5 -80.5 Q699 -87 702 -87 ZM86 -1 Q56 -15 54.5 -36.5 Q53 -58 56 -61 Q71 -87 95 -87.5 Q119 -88 122 -87 Q236 -38 280 16.5 Q324 71 322 76 Q340 119 350.5 188.5 Q361 258 365.5 329 Q370 400 371 448.5 Q372 497 372 500 Q366 521 347 525.5 Q328 530 326 530 Q297 525 290.5 511 Q284 497 286 496 Q283 297 264.5 212 Q246 127 244 130 Q210 57 151 27.5 Q92 -2 86 -1 Z" /><glyph glyph-name="uni4ECE" unicode="&#x4ece;" d="M356 -25 Q332 -47 335.5 -64.5 Q339 -82 342 -83 Q363 -101 384.5 -95 Q406 -89 408 -87 Q539 28 604.5 158 Q670 288 670 300 Q737 111 827 19 Q917 -73 926 -73 Q954 -86 970.5 -76.5 Q987 -67 988 -65 Q1000 -37 987 -18 Q974 1 972 2 Q874 78 820.5 167 Q767 256 744 336.5 Q721 417 716.5 468.5 Q712 520 714 522 L714 800 Q708 826 690 833 Q672 840 670 840 Q642 834 636 818 Q630 802 632 800 L632 522 Q626 405 585 305.5 Q544 206 490.5 132 Q437 58 397.5 17 Q358 -24 356 -25 ZM52 -25 Q78 -34 97.5 -19 Q117 -4 118 -1 Q227 175 271 293 Q315 411 314 416 Q360 354 399.5 281 Q439 208 442 202 Q457 168 477.5 169.5 Q498 171 500 174 Q524 194 521 217.5 Q518 241 516 244 Q455 359 398.5 435 Q342 511 338 514 Q341 552 343 588.5 Q345 625 346 628 Q349 679 351 724.5 Q353 770 354 774 Q348 801 330 808.5 Q312 816 310 816 Q278 810 273 793 Q268 776 270 774 Q276 630 244.5 498 Q213 366 167.5 262 Q122 158 86 97.5 Q50 37 48 36 Q29 7 39 -8.5 Q49 -24 52 -25 Z" /><glyph glyph-name="uni4ED6" unicode="&#x4ed6;" d="M380 770 Q355 764 349.5 748 Q344 732 346 730 L346 492 L270 468 Q240 454 238.5 435.5 Q237 417 240 416 Q254 395 274.5 395.5 Q295 396 298 398 L346 408 L346 60 Q342 4 366.5 -26 Q391 -56 425 -68 Q459 -80 485.5 -81.5 Q512 -83 514 -83 L804 -83 Q873 -85 910 -56.5 Q947 -28 962 11 Q977 50 978.5 81 Q980 112 980 114 Q975 137 959.5 143.5 Q944 150 942 150 Q913 148 906.5 134 Q900 120 902 118 Q902 8 847 -5.5 Q792 -19 784 -13 L530 -13 Q440 -13 427.5 41 Q415 95 420 104 L420 432 L600 488 L600 130 Q602 102 619.5 96 Q637 90 640 92 Q664 94 671 110.5 Q678 127 678 130 L678 510 L840 558 Q873 569 880 551 Q887 533 886 530 L886 464 Q884 336 875.5 299.5 Q867 263 866 268 Q854 246 813.5 253.5 Q773 261 768 264 Q737 264 727 247 Q717 230 718 228 Q717 200 735 190.5 Q753 181 756 182 Q854 164 889 179 Q924 194 922 198 Q949 233 955 315.5 Q961 398 960 408 L960 570 Q950 649 901 651 Q852 653 846 648 L678 598 L678 794 Q673 818 657.5 825 Q642 832 640 832 Q611 827 604.5 811.5 Q598 796 600 794 L600 574 L420 514 L420 730 Q414 756 398 763 Q382 770 380 770 ZM150 416 L150 -57 Q152 -81 168.5 -88 Q185 -95 188 -95 Q217 -90 225 -74.5 Q233 -59 232 -57 L232 578 Q236 596 240 602 Q285 776 286 782 Q286 807 270 817.5 Q254 828 252 828 Q219 831 209 816.5 Q199 802 200 800 Q156 599 98.5 494.5 Q41 390 36 390 Q20 362 28.5 344 Q37 326 40 326 Q63 312 80 323.5 Q97 335 98 338 Q122 366 135.5 390 Q149 414 150 416 Z" /><glyph glyph-name="uni4ED8" unicode="&#x4ed8;" d="M346 570 L788 570 L788 40 Q781 3 740 -5.5 Q699 -14 648 -7.5 Q597 -1 558 8.5 Q519 18 518 20 Q488 24 476.5 13.5 Q465 3 466 2 Q462 -24 476.5 -36.5 Q491 -49 494 -49 Q627 -89 704.5 -87.5 Q782 -86 784 -83 Q843 -63 857.5 -16.5 Q872 30 870 36 L870 570 L976 570 Q1015 599 998 622.5 Q981 646 976 648 L870 648 L870 786 Q837 826 813 808.5 Q789 791 788 786 L788 648 L346 648 Q322 642 315.5 626 Q309 610 310 608 Q314 580 329 574 Q344 568 346 570 ZM608 112 Q630 124 631.5 143.5 Q633 163 632 166 Q602 276 534 376.5 Q466 477 458 484 Q437 501 417 497 Q397 493 396 492 Q377 470 383 453 Q389 436 392 436 Q469 330 512 237 Q555 144 556 138 Q567 114 586 112 Q605 110 608 112 ZM184 480 L184 -41 Q186 -64 201.5 -70.5 Q217 -77 220 -77 Q246 -72 252.5 -57 Q259 -42 258 -41 L258 608 Q283 666 302 725.5 Q321 785 322 790 Q325 812 308.5 822 Q292 832 290 832 Q262 832 252.5 819 Q243 806 244 804 Q192 639 123 527.5 Q54 416 48 412 Q32 386 38.5 370 Q45 354 48 354 Q68 338 86 348.5 Q104 359 106 362 Q194 485 184 480 Z" /><glyph glyph-name="uni4EE3" unicode="&#x4ee3;" d="M322 420 L572 460 Q576 414 585 377 Q594 340 596 338 Q633 182 682 92.5 Q731 3 777.5 -37.5 Q824 -78 854 -89 Q884 -100 886 -99 Q919 -91 940 -56 Q961 -21 972 21.5 Q983 64 987.5 96 Q992 128 992 130 Q986 150 970 158 Q954 166 952 166 Q927 164 920 150 Q913 136 914 134 Q901 33 888 10 Q875 -13 874 -9 Q825 13 788 72 Q751 131 725.5 199.5 Q700 268 687 317.5 Q674 367 674 370 Q670 377 668 393.5 Q666 410 666 412 Q657 452 657 462.5 Q657 473 658 472 L952 514 Q977 519 981 539 Q985 559 984 562 Q975 587 957.5 593 Q940 599 938 598 L644 554 Q626 654 622.5 720.5 Q619 787 620 790 Q611 820 592.5 828.5 Q574 837 572 836 Q544 827 538 807.5 Q532 788 534 786 Q538 718 548 633.5 Q558 549 560 542 L306 504 Q277 495 272.5 474.5 Q268 454 270 452 Q278 426 298.5 422 Q319 418 322 420 ZM164 416 L164 -45 Q166 -72 183.5 -79.5 Q201 -87 204 -87 Q233 -81 241 -64 Q249 -47 248 -45 L248 578 Q255 603 256 604 Q301 773 302 778 Q302 803 285 813.5 Q268 824 266 824 Q235 827 225 813.5 Q215 800 216 798 Q178 609 108.5 480 Q39 351 32 346 Q19 318 28 301 Q37 284 40 284 Q63 271 78 282 Q93 293 94 296 Q116 328 139 370 Q162 412 164 416 ZM918 624 Q930 649 921 668 Q912 687 910 688 Q840 749 793.5 780 Q747 811 746 812 Q721 819 707.5 809.5 Q694 800 694 798 Q684 774 693.5 762 Q703 750 706 750 Q780 701 822.5 665 Q865 629 866 628 Q887 610 902 615.5 Q917 621 918 624 Z" /><glyph glyph-name="uni4EE4" unicode="&#x4ee4;" d="M40 394 Q58 372 79 375.5 Q100 379 102 382 Q268 475 378.5 591 Q489 707 494 718 Q526 750 522 746 Q523 743 535.5 727.5 Q548 712 550 710 Q678 545 797.5 456 Q917 367 926 366 Q954 351 968.5 363 Q983 375 984 378 Q993 406 978 422.5 Q963 439 960 440 Q882 479 814.5 537.5 Q747 596 695 654.5 Q643 713 613.5 752.5 Q584 792 584 794 Q558 829 542 837 Q526 845 526 844 Q506 843 486.5 823 Q467 803 466 800 Q317 619 193 535 Q69 451 62 452 Q35 432 36 413.5 Q37 395 40 394 ZM718 424 Q721 450 704.5 463 Q688 476 686 476 Q578 504 478.5 520.5 Q379 537 372 538 Q341 535 332.5 520.5 Q324 506 326 504 Q328 478 346.5 472 Q365 466 368 468 Q485 451 573 429.5 Q661 408 666 406 Q695 396 706.5 408.5 Q718 421 718 424 ZM748 264 Q750 250 746 248 Q652 155 571.5 103.5 Q491 52 486 52 Q350 145 350 146 Q316 158 299 147 Q282 136 282 134 Q273 110 288 95 Q303 80 306 80 Q377 32 458 -28.5 Q539 -89 546 -95 Q575 -116 595 -108.5 Q615 -101 616 -99 Q628 -75 615 -54.5 Q602 -34 600 -33 Q582 -17 576 -13 Q554 7 556 6 Q687 87 760.5 159 Q834 231 836 236 Q867 310 825.5 331 Q784 352 776 350 L196 350 Q172 344 165.5 328 Q159 312 160 310 Q165 285 181 279.5 Q197 274 200 276 L730 276 Q751 267 748 264 Z" /><glyph glyph-name="uni4EE5" unicode="&#x4ee5;" d="M188 40 Q314 105 413 184.5 Q512 264 518 272 Q536 294 528 313 Q520 332 518 334 Q493 352 474 342 Q455 332 454 330 Q354 239 278.5 188.5 Q203 138 200 138 Q185 130 182 139 Q179 148 180 150 L180 782 Q175 800 159.5 806 Q144 812 142 812 Q116 807 110 795 Q104 783 106 782 L106 92 Q113 34 148 34.5 Q183 35 188 40 ZM248 -17 Q210 -22 202 -42 Q194 -62 196 -65 Q205 -89 229 -94.5 Q253 -100 256 -99 Q393 -83 487.5 -44.5 Q582 -6 639.5 37.5 Q697 81 722.5 112.5 Q748 144 748 146 Q813 70 862 -0.5 Q911 -71 914 -77 Q930 -97 950 -91 Q970 -85 972 -83 Q990 -64 984 -45 Q978 -26 976 -25 Q900 87 847 154.5 Q794 222 792 224 Q816 284 831 376.5 Q846 469 853.5 562.5 Q861 656 863.5 719.5 Q866 783 866 786 Q860 813 841 820.5 Q822 828 820 828 Q791 822 784.5 805 Q778 788 780 786 Q773 440 726.5 304 Q680 168 674 174 Q632 112 562.5 74.5 Q493 37 421 17 Q349 -3 299.5 -10 Q250 -17 248 -17 ZM580 406 Q601 426 597.5 446 Q594 466 592 468 Q511 601 445 676.5 Q379 752 376 754 Q352 766 333.5 759 Q315 752 314 750 Q298 731 306.5 716.5 Q315 702 318 702 Q418 589 471.5 506.5 Q525 424 526 420 Q542 396 560 399.5 Q578 403 580 406 Z" /><glyph glyph-name="uni4EEC" unicode="&#x4eec;" d="M608 652 Q624 671 619 689.5 Q614 708 612 710 Q567 759 529.5 790.5 Q492 822 490 824 Q462 836 447 829 Q432 822 432 820 Q417 797 429 783.5 Q441 770 444 770 Q491 731 521 698.5 Q551 666 552 664 Q571 639 588.5 644 Q606 649 608 652 ZM854 668 L854 40 Q850 3 804 7.5 Q758 12 752 16 Q717 22 703 11.5 Q689 1 690 -1 Q690 -30 710 -43.5 Q730 -57 734 -57 Q816 -81 860 -71 Q904 -61 921 -34.5 Q938 -8 940 15 Q942 38 942 40 L942 702 Q938 770 902.5 783.5 Q867 797 862 794 L678 794 Q650 788 644 770 Q638 752 640 750 Q642 718 658.5 711 Q675 704 678 706 L824 706 Q848 706 851.5 688 Q855 670 854 668 ZM404 -83 Q433 -79 441 -63 Q449 -47 448 -45 L448 648 Q442 677 424 685 Q406 693 404 692 Q375 686 368.5 668 Q362 650 364 648 L364 -41 Q366 -69 383.5 -76.5 Q401 -84 404 -83 ZM168 444 L168 -57 Q170 -84 189.5 -91.5 Q209 -99 212 -99 Q241 -93 249 -76 Q257 -59 256 -57 L256 590 Q286 674 298 727 Q310 780 310 782 Q313 815 298.5 827.5 Q284 840 282 840 Q251 840 241 821 Q231 802 232 800 Q191 624 123 519 Q55 414 48 412 Q23 382 30 362 Q37 342 40 342 Q63 327 83.5 340.5 Q104 354 106 358 Q167 434 168 444 Z" /><glyph glyph-name="uni4EF6" unicode="&#x4ef6;" d="M466 770 Q463 794 446.5 801 Q430 808 428 808 Q399 805 391 790.5 Q383 776 384 774 Q360 626 311.5 549 Q263 472 258 472 Q240 447 244.5 431.5 Q249 416 252 416 Q270 401 289 407 Q308 413 310 416 Q355 458 388.5 520.5 Q422 583 424 590 L600 590 L600 308 L334 308 Q299 302 291.5 286 Q284 270 286 268 Q289 242 310 236 Q331 230 334 232 L600 232 L600 -77 Q631 -113 653.5 -95.5 Q676 -78 678 -73 L678 232 L942 232 Q969 234 976.5 249.5 Q984 265 984 268 Q975 294 957.5 301 Q940 308 938 308 L678 308 L678 590 L926 590 Q950 592 955.5 606.5 Q961 621 960 624 Q955 650 939.5 657 Q924 664 922 664 L678 664 L678 808 Q673 831 657.5 837.5 Q642 844 640 844 Q611 839 604.5 826 Q598 813 600 812 L600 664 L448 664 Q455 695 460 730.5 Q465 766 466 770 ZM154 506 L154 -53 Q156 -74 170.5 -80.5 Q185 -87 188 -87 Q214 -82 221 -68 Q228 -54 228 -53 L228 636 Q240 672 248.5 713 Q257 754 258 758 Q265 777 266 778 Q266 808 252 820 Q238 832 236 832 Q203 832 193 816 Q183 800 184 798 Q149 650 95 565.5 Q41 481 36 480 Q20 452 26.5 434 Q33 416 36 416 Q59 402 77.5 413.5 Q96 425 98 428 Q122 456 137.5 480 Q153 504 154 506 Z" /><glyph glyph-name="uni4EFB" unicode="&#x4efb;" d="M346 692 Q439 689 507.5 692 Q576 695 580 696 L580 428 L306 428 Q277 422 270.5 405 Q264 388 266 386 Q268 357 285.5 350.5 Q303 344 306 346 L580 346 L580 10 L318 10 Q289 7 282.5 -7.5 Q276 -22 278 -25 Q280 -51 297.5 -58 Q315 -65 318 -65 L934 -65 Q952 -59 958 -43 Q964 -27 964 -25 Q959 0 947 5.5 Q935 11 934 10 L662 10 L662 346 L972 346 Q997 348 1003 365.5 Q1009 383 1008 386 Q1005 413 989.5 420.5 Q974 428 972 428 L662 428 L662 700 Q759 701 828.5 708.5 Q898 716 902 718 Q927 723 933 739 Q939 755 938 758 Q930 788 913 794.5 Q896 801 894 800 Q804 786 734.5 779.5 Q665 773 662 774 Q568 768 459.5 766.5 Q351 765 342 766 Q316 760 310 744 Q304 728 306 726 Q311 701 327 695.5 Q343 690 346 692 ZM150 460 L150 -45 Q152 -71 166.5 -77.5 Q181 -84 184 -83 Q210 -79 217 -63 Q224 -47 224 -45 L224 624 Q245 672 259 721 Q273 770 274 774 Q277 805 263.5 818.5 Q250 832 248 832 Q218 837 206.5 820 Q195 803 196 800 Q147 631 90 534 Q33 437 28 436 Q16 404 23 385 Q30 366 32 366 Q55 351 75.5 364.5 Q96 378 98 382 Q151 455 150 460 Z" /><glyph glyph-name="uni4EFD" unicode="&#x4efd;" d="M32 314 Q57 305 73 316 Q89 327 90 330 Q136 405 134 408 L134 -81 Q136 -102 150.5 -108.5 Q165 -115 168 -115 Q191 -110 197.5 -96 Q204 -82 204 -81 L204 550 Q227 611 255 700 Q283 789 286 798 Q286 820 273 828 Q260 836 258 836 Q230 842 220.5 832 Q211 822 212 820 Q151 596 91.5 484.5 Q32 373 28 374 Q17 346 23.5 330 Q30 314 32 314 ZM262 -9 Q232 -25 232.5 -44 Q233 -63 236 -65 Q254 -85 276.5 -82 Q299 -79 302 -77 Q392 -44 445.5 26.5 Q499 97 524 176 Q549 255 556.5 311 Q564 367 564 370 L780 370 Q797 368 800.5 357.5 Q804 347 804 346 Q799 124 784 63 Q769 2 768 10 Q746 -26 690 -11 Q634 4 628 10 Q595 12 579 0.5 Q563 -11 564 -13 Q561 -42 580.5 -55.5 Q600 -69 604 -69 Q739 -108 787 -80 Q835 -52 832 -45 Q849 -21 858.5 42 Q868 105 872 178.5 Q876 252 877 305.5 Q878 359 878 362 Q875 426 834.5 438.5 Q794 451 788 448 L388 448 Q363 442 357.5 426 Q352 410 354 408 Q356 380 370.5 374 Q385 368 388 370 L486 370 Q479 252 445 177.5 Q411 103 369 62 Q327 21 295 6 Q263 -9 262 -9 ZM752 794 Q739 820 719.5 822.5 Q700 825 698 824 Q672 810 672 790.5 Q672 771 674 770 Q737 583 827 483 Q917 383 926 382 Q952 360 969.5 367.5 Q987 375 988 378 Q1000 404 989 423.5 Q978 443 976 444 Q857 545 804 664 Q751 783 752 794 ZM526 824 Q496 827 484.5 811.5 Q473 796 474 794 Q427 625 342 536.5 Q257 448 248 448 Q223 426 228 408.5 Q233 391 236 390 Q254 371 275 379 Q296 387 298 390 Q369 438 418 501.5 Q467 565 496.5 626 Q526 687 539 727.5 Q552 768 552 770 Q555 800 541.5 812 Q528 824 526 824 Z" /><glyph glyph-name="uni4F01" unicode="&#x4f01;" d="M208 428 Q179 423 172.5 407.5 Q166 392 168 390 L168 16 L78 16 Q47 12 38.5 0.5 Q30 -11 32 -13 Q37 -36 56 -42.5 Q75 -49 78 -49 L938 -49 Q962 -44 967.5 -29 Q973 -14 972 -13 Q969 6 954.5 11 Q940 16 938 16 L542 16 L542 280 L894 280 Q920 282 927 296.5 Q934 311 934 314 Q928 340 912 347 Q896 354 894 354 L542 354 L542 570 Q536 594 520 599.5 Q504 605 502 604 Q473 601 466.5 586.5 Q460 572 462 570 L462 16 L248 16 L248 390 Q242 414 226 421 Q210 428 208 428 ZM90 460 Q162 481 232 522.5 Q302 564 359.5 608.5 Q417 653 451 684.5 Q485 716 486 718 Q513 740 510 738 Q515 735 531 719.5 Q547 704 550 702 Q709 558 821 509 Q933 460 938 464 Q966 457 977 471 Q988 485 988 488 Q991 516 976.5 529 Q962 542 960 542 Q825 595 719 674 Q613 753 608 762 Q550 809 527.5 821 Q505 833 506 832 Q490 825 460.5 799 Q431 773 428 770 Q279 637 174.5 586 Q70 535 66 538 Q39 521 36.5 503 Q34 485 36 484 Q49 458 68.5 458 Q88 458 90 460 Z" /><glyph glyph-name="uni4F0A" unicode="&#x4f0a;" d="M244 480 Q246 451 266.5 444.5 Q287 438 290 440 L534 440 L534 252 L318 252 Q285 246 275 229 Q265 212 266 210 Q271 181 291 174.5 Q311 168 314 170 L534 170 Q525 53 448 16.5 Q371 -20 360 -17 Q327 -28 323.5 -49 Q320 -70 322 -73 Q336 -96 360.5 -98 Q385 -100 388 -99 Q475 -75 522 -32.5 Q569 10 588 56.5 Q607 103 610 135.5 Q613 168 612 170 L844 170 Q897 173 908.5 215 Q920 257 918 264 L918 440 L968 440 Q997 442 1005 459.5 Q1013 477 1012 480 Q1003 507 984.5 514.5 Q966 522 964 522 L918 522 L918 684 Q915 770 874.5 787 Q834 804 828 800 L334 800 Q301 796 291 778 Q281 760 282 758 Q287 729 307 722.5 Q327 716 330 718 L530 718 L530 522 L290 522 Q256 516 249 499 Q242 482 244 480 ZM840 680 L840 522 L608 522 L608 718 L812 718 Q832 718 836 700 Q840 682 840 680 ZM812 252 L612 252 L612 440 L840 440 L840 288 Q838 262 825.5 256 Q813 250 812 252 ZM126 440 Q128 447 130 448 L130 -69 Q132 -90 146.5 -96.5 Q161 -103 164 -103 Q190 -98 197 -84 Q204 -70 204 -69 L204 586 Q231 659 246 718.5 Q261 778 262 782 Q262 807 248 817.5 Q234 828 232 828 Q202 831 192.5 816.5 Q183 802 184 800 Q141 626 85 529.5 Q29 433 24 432 Q16 405 21 387.5 Q26 370 28 370 Q49 357 65 368 Q81 379 82 382 Q95 396 109.5 416.5 Q124 437 126 440 Z" /><glyph glyph-name="uni4F0F" unicode="&#x4f0f;" d="M258 522 Q263 494 281 488 Q299 482 302 484 L538 484 Q524 351 481 258.5 Q438 166 387.5 108.5 Q337 51 300 25 Q263 -1 262 -1 Q239 -20 244 -39.5 Q249 -59 252 -61 Q270 -78 291 -74 Q312 -70 314 -69 Q408 -9 464.5 68.5 Q521 146 549.5 221 Q578 296 587 346 Q596 396 596 398 Q632 277 688.5 185.5 Q745 94 802 33 Q859 -28 897.5 -59 Q936 -90 938 -91 Q961 -101 976 -93 Q991 -85 992 -83 Q1007 -57 998.5 -41 Q990 -25 988 -25 Q897 42 830.5 128 Q764 214 721 295 Q678 376 656.5 429 Q635 482 636 484 L956 484 Q981 486 987 502.5 Q993 519 992 522 Q986 548 970 555 Q954 562 952 562 L624 562 L624 786 Q618 807 600 813.5 Q582 820 580 820 Q549 815 542.5 801 Q536 787 538 786 L538 562 L302 562 Q273 556 265 540 Q257 524 258 522 ZM894 620 Q906 641 899 658 Q892 675 890 676 Q828 729 778 762.5 Q728 796 726 798 Q699 803 686 793 Q673 783 674 782 Q664 760 675.5 747 Q687 734 690 734 Q761 688 803 651 Q845 614 846 612 Q864 598 878.5 607.5 Q893 617 894 620 ZM142 436 L142 -69 Q144 -87 160.5 -93 Q177 -99 180 -99 Q206 -94 213 -80 Q220 -66 220 -65 L220 562 Q260 644 279 705 Q298 766 298 770 Q298 792 281 802 Q264 812 262 812 Q234 816 224.5 805.5 Q215 795 216 794 Q168 635 102 535.5 Q36 436 24 424 Q10 400 19.5 381.5 Q29 363 32 362 Q55 346 72 356.5 Q89 367 90 370 Q137 427 142 436 Z" /><glyph glyph-name="uni4F11" unicode="&#x4f11;" d="M258 612 Q260 587 277.5 581.5 Q295 576 298 578 L534 578 Q502 502 455.5 429 Q409 356 362.5 296.5 Q316 237 284.5 201.5 Q253 166 252 166 Q230 141 237.5 122.5 Q245 104 248 104 Q271 85 289.5 95 Q308 105 310 108 Q412 220 476 324 Q540 428 542 436 L542 -61 Q544 -82 560.5 -86.5 Q577 -91 580 -91 Q609 -86 617 -72 Q625 -58 624 -57 L624 456 Q656 386 705 322.5 Q754 259 803.5 208.5 Q853 158 886.5 129 Q920 100 922 100 Q951 78 969 83.5 Q987 89 988 92 Q1003 113 991 134.5 Q979 156 976 158 Q959 168 943 184 Q927 200 926 202 Q755 363 695.5 468.5 Q636 574 640 578 L922 578 Q943 580 949.5 594.5 Q956 609 956 612 Q951 638 937 645 Q923 652 922 652 L624 652 L624 790 Q618 811 600 817.5 Q582 824 580 824 Q552 819 546 805 Q540 791 542 790 L542 652 L298 652 Q269 646 262.5 630 Q256 614 258 612 ZM130 456 L130 -49 Q132 -76 148.5 -82 Q165 -88 168 -87 Q194 -84 201 -67.5 Q208 -51 208 -49 L208 590 Q217 614 226 639.5 Q235 665 236 668 Q269 756 270 758 Q276 792 261 806 Q246 820 244 820 Q214 825 202.5 807 Q191 789 192 786 Q143 620 86 532 Q29 444 24 444 Q14 414 18 394 Q22 374 24 374 Q43 356 59.5 367 Q76 378 78 382 Q134 453 130 456 Z" /><glyph glyph-name="uni4F18" unicode="&#x4f18;" d="M322 602 Q293 596 286.5 580 Q280 564 282 562 Q284 536 301.5 530 Q319 524 322 526 L466 526 Q426 277 354 139 Q282 1 274 -1 Q256 -31 263.5 -46 Q271 -61 274 -61 Q299 -67 319.5 -53 Q340 -39 342 -37 Q397 33 436 127.5 Q475 222 499 312.5 Q523 403 534.5 463 Q546 523 546 526 L644 526 Q618 512 612 498.5 Q606 485 608 484 L608 48 Q613 -24 652.5 -41.5 Q692 -59 698 -57 L850 -57 Q899 -57 927.5 -30 Q956 -3 969 33 Q982 69 985 96.5 Q988 124 988 126 Q982 155 966 163 Q950 171 948 170 Q923 164 917.5 146 Q912 128 914 126 Q904 46 876.5 29 Q849 12 846 16 L738 16 Q698 17 691 40.5 Q684 64 686 68 L686 484 Q684 506 670 516 Q656 526 654 526 L942 526 Q966 528 971.5 543.5 Q977 559 976 562 Q973 588 958.5 595 Q944 602 942 602 L552 602 Q558 652 562.5 706.5 Q567 761 568 766 Q570 805 572 808 Q567 834 551.5 841 Q536 848 534 848 Q507 845 500 829.5 Q493 814 494 812 Q493 726 486 665 Q479 604 478 602 L322 602 ZM800 648 Q818 629 833.5 633 Q849 637 850 640 Q868 662 864 680 Q860 698 858 700 Q775 782 768 790 Q744 801 729 794 Q714 787 714 786 Q701 764 708 747 Q715 730 718 730 Q745 698 748 696 Q804 645 800 648 ZM32 358 Q54 345 71.5 356 Q89 367 90 370 Q154 449 158 460 L158 -53 Q160 -74 174.5 -78.5 Q189 -83 192 -83 Q218 -79 225 -64.5 Q232 -50 232 -49 L232 598 Q252 639 272 708.5 Q292 778 294 786 Q297 819 284.5 831.5 Q272 844 270 844 Q239 847 229 829 Q219 811 220 808 Q184 654 112 538 Q40 422 32 416 Q18 390 24 374 Q30 358 32 358 Z" /><glyph glyph-name="uni4F1A" unicode="&#x4f1a;" d="M114 504 Q254 560 359 633.5 Q464 707 470 714 Q524 759 518 750 Q526 747 547.5 727.5 Q569 708 572 706 Q709 594 814.5 551 Q920 508 926 510 Q954 504 967 517.5 Q980 531 980 534 Q983 566 968.5 580 Q954 594 952 594 Q805 631 697 708 Q589 785 584 794 Q544 829 530.5 837 Q517 845 518 844 Q500 841 473 820.5 Q446 800 444 798 Q309 693 196.5 635.5 Q84 578 78 578 Q48 561 46.5 540 Q45 519 48 518 Q63 497 87 499.5 Q111 502 114 504 ZM792 488 Q789 512 773.5 519 Q758 526 756 526 L232 526 Q200 521 191 505.5 Q182 490 184 488 Q189 459 209 452.5 Q229 446 232 448 L756 448 Q781 450 787 467.5 Q793 485 792 488 ZM126 16 Q103 2 101.5 -12.5 Q100 -27 102 -29 Q110 -52 128.5 -58.5 Q147 -65 150 -65 Q296 -61 404 -57 Q512 -53 518 -53 Q652 -46 734.5 -37.5 Q817 -29 820 -29 Q824 -38 828 -41 Q848 -77 850 -77 Q869 -99 888.5 -94 Q908 -89 910 -87 Q931 -68 925.5 -47 Q920 -26 918 -25 Q839 79 789 143.5 Q739 208 738 210 Q713 227 694 220.5 Q675 214 674 212 Q656 191 663.5 173 Q671 155 674 154 Q763 45 768 36 Q590 17 431 13 Q272 9 262 10 Q247 10 248 10 Q252 18 256 20 Q334 99 398 176.5 Q462 254 466 260 L930 260 Q954 262 959.5 279.5 Q965 297 964 300 Q961 324 946.5 331 Q932 338 930 338 L82 338 Q60 333 53.5 317.5 Q47 302 48 300 Q52 271 66 264.5 Q80 258 82 260 L364 260 Q282 159 206.5 89 Q131 19 126 16 Z" /><glyph glyph-name="uni4F20" unicode="&#x4f20;" d="M400 692 Q371 686 364.5 670 Q358 654 360 652 Q362 626 379.5 620 Q397 614 400 616 L538 616 Q517 524 514 514 L330 514 Q303 509 296 493.5 Q289 478 290 476 Q292 447 307.5 440.5 Q323 434 326 436 L494 436 Q488 415 481 387.5 Q474 360 474 358 Q464 314 466 318 Q451 259 479.5 248 Q508 237 514 240 L784 240 Q797 234 792 228 Q754 145 717 100.5 Q680 56 678 56 Q614 83 546.5 100 Q479 117 474 118 Q445 119 434 106.5 Q423 94 424 92 Q423 68 437 57.5 Q451 47 454 48 Q510 35 575.5 11.5 Q641 -12 701 -37 Q761 -62 799.5 -80 Q838 -98 840 -99 Q868 -108 882.5 -98.5 Q897 -89 898 -87 Q907 -63 895.5 -48 Q884 -33 882 -33 Q855 -17 822.5 -4 Q790 9 788 10 Q760 23 756 28 Q805 85 838.5 155 Q872 225 874 232 Q884 270 879.5 285 Q875 300 874 300 Q861 312 834 315 Q807 318 804 318 L564 318 Q551 316 551 324 Q551 332 552 334 Q556 366 565 399.5 Q574 433 576 436 L952 436 Q978 438 985 455.5 Q992 473 992 476 Q986 500 970 507 Q954 514 952 514 L594 514 Q597 530 601.5 547.5 Q606 565 606 566 Q618 615 618 616 L902 616 Q927 618 933 633.5 Q939 649 938 652 Q935 678 919.5 685 Q904 692 902 692 L628 692 Q640 747 640 758 Q648 805 648 804 Q645 830 629.5 837 Q614 844 612 844 Q583 842 575 828 Q567 814 568 812 Q561 769 555.5 731.5 Q550 694 550 692 L400 692 ZM192 492 L192 -65 Q194 -89 209.5 -96 Q225 -103 228 -103 Q252 -98 259 -82.5 Q266 -67 266 -65 L266 632 Q314 792 314 794 Q317 822 300.5 833 Q284 844 282 844 Q254 844 244.5 827 Q235 810 236 808 Q198 648 130.5 536 Q63 424 56 420 Q37 388 45 369 Q53 350 56 350 Q79 341 99.5 356 Q120 371 122 374 Q144 406 167 447 Q190 488 192 492 Z" /><glyph glyph-name="uni4F30" unicode="&#x4f30;" d="M274 652 Q276 623 291.5 616.5 Q307 610 310 612 L564 612 L564 406 L396 406 Q337 401 326 369.5 Q315 338 318 334 L318 2 Q323 -51 360.5 -63 Q398 -75 404 -73 L846 -73 Q909 -68 921 -36.5 Q933 -5 930 -1 L930 330 Q922 382 886 395 Q850 408 846 406 L648 406 L648 612 L944 612 Q967 614 973.5 631.5 Q980 649 980 652 Q975 681 960 689 Q945 697 944 696 L648 696 L648 800 Q642 823 624 829.5 Q606 836 604 836 Q575 831 568.5 816 Q562 801 564 800 L564 696 L314 696 Q287 690 280 672 Q273 654 274 652 ZM396 28 L396 288 Q391 295 392 296 Q394 317 411.5 321.5 Q429 326 432 326 L820 326 Q838 321 842 309 Q846 297 846 296 L846 32 Q844 13 832.5 9 Q821 5 820 6 L432 6 Q406 7 400 16.5 Q394 26 396 28 ZM138 444 L138 -41 Q140 -69 154.5 -76.5 Q169 -84 172 -83 Q201 -79 209 -63 Q217 -47 216 -45 L216 594 Q245 675 257.5 725.5 Q270 776 270 778 Q273 811 255.5 821.5 Q238 832 236 832 Q203 832 193 812.5 Q183 793 184 790 Q152 640 95 549 Q38 458 32 456 Q19 428 26 407.5 Q33 387 36 386 Q56 367 74 377 Q92 387 94 390 Q134 436 138 444 Z" /><glyph glyph-name="uni4F34" unicode="&#x4f34;" d="M302 440 Q306 415 321 409.5 Q336 404 338 406 L572 406 L572 248 L302 248 Q273 243 266.5 227.5 Q260 212 262 210 Q264 184 281.5 178 Q299 172 302 174 L572 174 L572 -61 Q574 -85 591.5 -90.5 Q609 -96 612 -95 Q638 -92 644.5 -77.5 Q651 -63 650 -61 L650 174 L944 174 Q973 176 981 191.5 Q989 207 988 210 Q982 234 964 241 Q946 248 944 248 L650 248 L650 406 L898 406 Q927 408 935 422.5 Q943 437 942 440 Q936 466 918 473 Q900 480 898 480 L650 480 L650 800 Q646 820 630 826 Q614 832 612 832 Q583 827 576.5 814 Q570 801 572 800 L572 480 L338 480 Q314 474 307.5 458 Q301 442 302 440 ZM154 488 L154 -37 Q156 -66 172.5 -74 Q189 -82 192 -81 Q218 -75 225 -57 Q232 -39 232 -37 L232 598 Q260 680 273 732 Q286 784 286 786 Q286 813 272 822.5 Q258 832 256 832 Q226 832 216.5 817 Q207 802 208 800 Q166 654 106 568 Q46 482 40 480 Q21 449 25 428.5 Q29 408 32 408 Q55 391 75.5 400 Q96 409 98 412 Q150 480 154 488 ZM416 526 Q429 496 446.5 493 Q464 490 466 492 Q491 505 493 528 Q495 551 494 554 Q413 762 408 770 Q391 793 371 794 Q351 795 350 794 Q325 780 326 760 Q327 740 330 738 Q369 641 372 632 Q421 520 416 526 ZM918 742 Q921 768 904.5 781 Q888 794 886 794 Q856 796 845.5 782 Q835 768 836 766 Q803 672 769.5 610 Q736 548 734 546 Q721 519 732 505.5 Q743 492 746 492 Q772 485 789.5 496 Q807 507 808 510 Q850 579 883 657 Q916 735 918 742 Z" /><glyph glyph-name="uni4F46" unicode="&#x4f46;" d="M918 178 L918 730 Q916 780 885 791 Q854 802 850 800 L396 800 Q337 795 326 762.5 Q315 730 318 726 L318 178 Q320 127 357 118 Q394 109 400 112 L850 112 Q896 113 907.5 143 Q919 173 918 178 ZM392 696 Q391 711 404 714.5 Q417 718 420 718 L816 718 Q851 709 844 700 L844 492 L392 492 L392 696 ZM996 -33 Q991 -7 978 -2 Q965 3 964 2 L286 2 Q261 0 255.5 -15 Q250 -30 252 -33 Q254 -59 268.5 -66 Q283 -73 286 -73 L964 -73 Q984 -67 990 -51 Q996 -35 996 -33 ZM142 406 Q144 409 146 412 L146 -61 Q148 -82 162.5 -88.5 Q177 -95 180 -95 Q206 -90 213 -76 Q220 -62 220 -61 L220 562 Q244 642 256.5 709.5 Q269 777 270 782 Q270 810 254 821 Q238 832 236 832 Q206 832 196.5 816 Q187 800 188 798 Q156 612 102.5 504 Q49 396 44 394 Q28 363 36.5 344.5 Q45 326 48 326 Q71 314 88 324.5 Q105 335 106 338 Q118 355 129.5 379 Q141 403 142 406 ZM812 186 L420 186 Q397 187 393.5 197.5 Q390 208 392 210 L392 416 L844 416 L844 206 Q839 189 826 187 Q813 185 812 186 Z" /><glyph glyph-name="uni4F4D" unicode="&#x4f4d;" d="M146 468 L146 -49 Q148 -69 164.5 -75 Q181 -81 184 -81 Q210 -76 217 -61 Q224 -46 224 -45 L224 604 Q293 780 294 786 Q297 811 284.5 823.5 Q272 836 270 836 Q241 839 230 826.5 Q219 814 220 812 Q161 642 95 540 Q29 438 24 436 Q15 409 20.5 391.5 Q26 374 28 374 Q52 359 68.5 371 Q85 383 86 386 Q143 461 146 468 ZM534 782 Q536 768 538 766 Q575 703 580 700 L318 700 Q294 694 287.5 678 Q281 662 282 660 Q284 634 298 628 Q312 622 314 624 L938 624 Q956 626 962 641.5 Q968 657 968 660 Q963 686 951 693 Q939 700 938 700 L666 700 Q650 732 628 774 Q606 816 604 820 Q584 842 565.5 840 Q547 838 546 836 Q521 816 526 799.5 Q531 783 534 782 ZM298 -77 L952 -77 Q977 -71 983 -55 Q989 -39 988 -37 Q985 -8 969.5 -2.5 Q954 3 952 2 L760 2 Q814 197 841.5 347 Q869 497 870 506 Q867 529 852.5 539.5 Q838 550 836 550 Q807 550 799 537 Q791 524 792 522 Q754 282 715.5 143 Q677 4 674 2 L298 2 Q272 0 266 -17 Q260 -34 262 -37 Q264 -63 279.5 -70 Q295 -77 298 -77 ZM486 68 Q509 78 514 95 Q519 112 518 114 Q488 294 457 410 Q426 526 424 530 Q410 552 391.5 551.5 Q373 551 372 550 Q351 533 351.5 517 Q352 501 354 500 Q400 338 422 219.5 Q444 101 444 96 Q451 70 467.5 68 Q484 66 486 68 Z" /><glyph glyph-name="uni4F4F" unicode="&#x4f4f;" d="M502 790 Q542 731 568 700 L316 700 Q275 695 275 661.5 Q275 628 316 624 L570 624 L570 380 L322 380 Q281 375 281 342.5 Q281 310 322 306 L570 306 L570 -3 L284 -3 Q245 -7 245 -40.5 Q245 -74 284 -79 L928 -79 Q967 -74 967 -40.5 Q967 -7 928 -3 L642 -3 L642 306 L888 306 Q927 310 927 342.5 Q927 375 888 380 L642 380 L642 624 L920 624 Q957 628 957 661.5 Q957 695 920 700 L660 700 Q627 751 564 830 Q537 856 509.5 839.5 Q482 823 502 790 ZM134 358 L134 -63 Q138 -99 168.5 -99 Q199 -99 204 -63 L204 544 Q247 688 258 796 Q257 835 225 837.5 Q193 840 184 806 Q148 540 32 316 Q18 283 42.5 267.5 Q67 252 94 282 Q115 314 134 358 Z" /><glyph glyph-name="uni4F50" unicode="&#x4f50;" d="M298 672 Q303 643 321 636.5 Q339 630 342 632 L522 632 Q470 477 379 370.5 Q288 264 278 260 Q254 232 256.5 215 Q259 198 262 198 Q281 176 302.5 183.5 Q324 191 326 194 Q390 251 422 291.5 Q454 332 454 334 L620 334 L620 6 L334 6 Q305 3 297 -13.5 Q289 -30 290 -33 Q295 -59 313 -66 Q331 -73 334 -73 L968 -73 Q991 -67 997.5 -51 Q1004 -35 1004 -33 Q999 -4 984 1.5 Q969 7 968 6 L702 6 L702 334 L944 334 Q964 336 970 353.5 Q976 371 976 374 Q971 398 958 405 Q945 412 944 412 L510 412 Q551 486 577 556 Q603 626 604 632 L952 632 Q975 634 981.5 651.5 Q988 669 988 672 Q983 696 968 703 Q953 710 952 710 L624 710 Q630 733 636.5 764 Q643 795 644 798 Q617 847 585.5 830.5 Q554 814 552 808 Q538 715 534 710 L342 710 Q313 705 305 689.5 Q297 674 298 672 ZM138 444 Q153 469 150 464 L150 -61 Q152 -82 166.5 -88.5 Q181 -95 184 -95 Q210 -90 217 -76 Q224 -62 224 -61 L224 594 Q243 637 261.5 698 Q280 759 282 766 Q289 780 290 782 Q296 813 280 826.5 Q264 840 262 840 Q228 840 217.5 821 Q207 802 208 800 Q173 670 110 564 Q47 458 40 452 Q21 417 25 397.5 Q29 378 32 378 Q55 363 75.5 375 Q96 387 98 390 Q105 401 120.5 421 Q136 441 138 444 Z" /><glyph glyph-name="uni4F53" unicode="&#x4f53;" d="M270 640 Q275 614 293 608 Q311 602 314 604 L552 604 Q473 411 365.5 279 Q258 147 248 142 Q226 115 233.5 95.5 Q241 76 244 76 Q267 58 287.5 69 Q308 80 310 84 Q428 215 497 335 Q566 455 568 464 L568 162 L424 162 Q395 156 388.5 140 Q382 124 384 122 Q389 97 407 91.5 Q425 86 428 88 L568 88 L568 -73 Q570 -100 587.5 -107.5 Q605 -115 608 -115 Q634 -106 641 -88.5 Q648 -71 648 -69 L648 88 L800 88 Q826 90 833 104.5 Q840 119 840 122 Q834 148 818 155 Q802 162 800 162 L648 162 L648 460 Q717 325 807 219 Q897 113 906 108 Q935 78 955 83 Q975 88 976 92 Q996 118 983.5 141 Q971 164 968 166 Q809 319 731 456.5 Q653 594 654 604 L930 604 Q954 606 959.5 621.5 Q965 637 964 640 Q959 666 943.5 673 Q928 680 926 680 L648 680 L648 804 Q642 833 626 841 Q610 849 608 848 Q579 842 572.5 824 Q566 806 568 804 L568 680 L310 680 Q281 674 274.5 658 Q268 642 270 640 ZM142 464 L142 -61 Q144 -88 158.5 -94 Q173 -100 176 -99 Q202 -96 209 -79.5 Q216 -63 216 -61 L216 612 Q223 633 224 636 Q248 693 262.5 738 Q277 783 278 786 Q281 817 267.5 830.5 Q254 844 252 844 Q219 847 207 829 Q195 811 196 808 Q144 641 88 541.5 Q32 442 28 440 Q16 408 21 389 Q26 370 28 370 Q54 355 73.5 368.5 Q93 382 94 386 Q104 401 122 430.5 Q140 460 142 464 Z" /><glyph glyph-name="uni4F55" unicode="&#x4f55;" d="M600 28 Q570 31 557.5 19.5 Q545 8 546 6 Q539 -25 554 -37 Q569 -49 572 -49 Q704 -89 774.5 -76.5 Q845 -64 872.5 -27.5 Q900 9 903.5 43 Q907 77 906 80 L906 696 L976 696 Q1015 722 998 745 Q981 768 976 770 L322 770 Q293 764 285 748 Q277 732 278 730 Q283 705 301 699.5 Q319 694 322 696 L828 696 L828 76 Q832 31 799.5 17 Q767 3 720.5 6.5 Q674 10 637.5 18 Q601 26 600 28 ZM368 252 L368 468 Q366 506 392.5 512.5 Q419 519 424 518 L608 518 Q643 515 651 494.5 Q659 474 658 472 L658 252 Q655 218 638.5 211 Q622 204 620 206 L412 206 Q375 203 370 225.5 Q365 248 368 252 ZM734 216 L734 504 Q728 571 691.5 584 Q655 597 650 594 L376 594 Q317 583 304 545.5 Q291 508 294 504 L294 216 Q294 151 333.5 140.5 Q373 130 380 134 L648 134 Q712 133 724.5 171.5 Q737 210 734 216 ZM130 366 L130 -53 Q132 -73 148.5 -78 Q165 -83 168 -83 Q194 -79 201 -66.5 Q208 -54 208 -53 L208 542 Q254 758 252 762 Q252 790 237 801 Q222 812 220 812 Q190 812 180.5 796 Q171 780 172 778 Q140 559 88.5 459.5 Q37 360 32 362 Q18 331 22 313.5 Q26 296 28 296 Q50 280 69 290.5 Q88 301 90 304 Q128 354 130 366 Z" /><glyph glyph-name="uni4F5B" unicode="&#x4f5b;" d="M468 800 L468 714 L310 714 Q283 709 276 693.5 Q269 678 270 676 Q272 650 287.5 644 Q303 638 306 640 L468 640 L468 538 L330 538 Q278 533 266.5 504.5 Q255 476 258 472 L258 338 Q261 287 293 278 Q325 269 330 272 L464 272 Q446 129 374.5 68.5 Q303 8 294 10 Q267 0 263.5 -17.5 Q260 -35 262 -37 Q276 -67 296 -69 Q316 -71 318 -69 Q395 -35 440.5 20 Q486 75 507.5 133 Q529 191 535.5 230.5 Q542 270 542 272 L662 272 L662 -57 Q664 -78 681.5 -84.5 Q699 -91 702 -91 Q725 -86 731.5 -72 Q738 -58 738 -57 L738 272 L870 272 Q890 266 898 250 Q906 234 906 232 Q908 145 895.5 104 Q883 63 865.5 52 Q848 41 834 43.5 Q820 46 820 48 Q790 54 778.5 40 Q767 26 768 24 Q764 2 778.5 -9 Q793 -20 796 -21 Q882 -43 913.5 -22.5 Q945 -2 944 2 Q958 17 966.5 57 Q975 97 978.5 142.5 Q982 188 983 221 Q984 254 984 256 Q983 325 939.5 337 Q896 349 890 346 L738 346 L738 460 L886 460 Q936 461 947 493 Q958 525 956 530 L956 648 Q951 698 920.5 707 Q890 716 886 714 L738 714 L738 798 Q733 816 718 822 Q703 828 702 828 Q673 823 666.5 811 Q660 799 662 798 L662 714 L542 714 L542 804 Q508 837 488 821 Q468 805 468 800 ZM850 538 L738 538 L738 640 L850 640 Q870 638 874 625.5 Q878 613 878 612 L878 566 Q873 545 862 541 Q851 537 850 538 ZM662 640 L662 538 L542 538 L542 640 L662 640 ZM662 460 L662 346 L542 346 L542 460 L662 460 ZM364 460 L468 460 L468 346 L364 346 Q342 345 339 358 Q336 371 338 374 L338 432 Q337 452 349.5 456 Q362 460 364 460 ZM126 456 L126 -45 Q128 -70 144.5 -76 Q161 -82 164 -81 Q190 -75 197 -59 Q204 -43 204 -41 L204 582 Q274 785 266 778 Q269 803 253.5 813.5 Q238 824 236 824 Q206 827 194.5 813.5 Q183 800 184 798 Q133 638 84 555 Q35 472 32 472 Q19 447 26 428 Q33 409 36 408 Q56 391 76 400 Q96 409 98 412 Q124 449 126 456 Z" /><glyph glyph-name="uni4F5C" unicode="&#x4f5c;" d="M158 448 L158 -45 Q160 -71 176.5 -77.5 Q193 -84 196 -83 Q222 -79 229 -63 Q236 -47 236 -45 L236 616 Q255 685 264.5 730.5 Q274 776 274 778 Q271 811 256.5 821.5 Q242 832 240 832 Q211 829 203 808.5 Q195 788 196 786 Q168 618 111 514.5 Q54 411 48 408 Q26 378 33.5 360 Q41 342 44 342 Q67 329 85.5 342 Q104 355 106 358 Q127 384 142 414.5 Q157 445 158 448 ZM314 366 Q341 359 356 375 Q371 391 372 394 Q412 475 438.5 569 Q465 663 466 672 L568 672 L568 -69 Q570 -93 587.5 -100 Q605 -107 608 -107 Q634 -102 641 -86.5 Q648 -71 648 -69 L648 100 L948 100 Q971 102 977.5 118.5 Q984 135 984 138 Q979 164 964 171 Q949 178 948 178 L648 178 L648 386 L910 386 Q933 388 938.5 404.5 Q944 421 944 424 Q940 450 925.5 457 Q911 464 910 464 L648 464 L648 672 L944 672 Q967 674 973.5 690.5 Q980 707 980 710 Q975 736 960 743 Q945 750 944 750 L482 750 Q482 765 482 774 Q484 806 486 808 Q483 831 468.5 837.5 Q454 844 452 844 Q423 842 415 829.5 Q407 817 408 816 Q396 670 351.5 550.5 Q307 431 302 424 Q289 395 300 380.5 Q311 366 314 366 Z" /><glyph glyph-name="uni4F60" unicode="&#x4f60;" d="M458 632 L890 632 Q912 629 913.5 614.5 Q915 600 914 598 Q896 512 890 510 Q880 481 891.5 466.5 Q903 452 906 452 Q934 439 948.5 452 Q963 465 964 468 Q984 515 994 565 Q1004 615 1004 620 Q993 675 957.5 689.5 Q922 704 918 702 L482 702 Q486 729 490 738 Q504 780 506 786 Q504 811 490 821.5 Q476 832 474 832 Q446 835 436.5 820.5 Q427 806 428 804 Q381 649 325.5 552 Q270 455 266 452 Q248 424 253.5 407 Q259 390 262 390 Q287 377 306 388 Q325 399 326 402 Q385 483 421 555 Q457 627 458 632 ZM138 390 L138 -69 Q140 -90 156.5 -96.5 Q173 -103 176 -103 Q202 -98 209 -84 Q216 -70 216 -69 L216 590 Q233 668 240.5 721.5 Q248 775 248 778 Q245 802 227.5 811 Q210 820 208 820 Q179 817 171 802.5 Q163 788 164 786 Q147 602 96.5 487.5 Q46 373 40 370 Q27 342 34 325 Q41 308 44 308 Q67 292 82 301.5 Q97 311 98 314 Q113 331 125 359 Q137 387 138 390 ZM534 452 Q531 481 515.5 492.5 Q500 504 498 504 Q466 503 458 488.5 Q450 474 452 472 Q428 322 379.5 193 Q331 64 326 56 Q313 24 326 11.5 Q339 -1 342 -1 Q370 -10 386.5 0.5 Q403 11 404 14 Q476 179 505.5 311.5 Q535 444 534 452 ZM796 500 Q771 483 772 464 Q773 445 776 444 Q837 286 871 156.5 Q905 27 906 20 Q914 -3 931.5 -4.5 Q949 -6 952 -5 Q980 7 982.5 24.5 Q985 42 984 44 Q937 251 894.5 364.5 Q852 478 850 480 Q834 500 815.5 500.5 Q797 501 796 500 ZM624 564 L624 48 Q625 8 599 -6.5 Q573 -21 502 6 Q472 12 459.5 -3 Q447 -18 448 -21 Q444 -53 459.5 -65 Q475 -77 478 -77 Q609 -119 658.5 -80.5 Q708 -42 706 14 L706 564 Q700 598 664.5 598 Q629 598 624 564 Z" /><glyph glyph-name="uni4F7F" unicode="&#x4f7f;" d="M850 328 L666 328 L666 508 L850 508 Q870 506 874 492.5 Q878 479 878 478 L878 364 Q876 338 863.5 332 Q851 326 850 328 ZM142 440 L142 -61 Q144 -82 158.5 -88.5 Q173 -95 176 -95 Q202 -90 209 -76 Q216 -62 216 -61 L216 602 Q240 672 254.5 723.5 Q269 775 270 778 Q273 811 255.5 823.5 Q238 836 236 836 Q203 836 193 818 Q183 800 184 798 Q147 641 97.5 538 Q48 435 44 432 Q28 402 34.5 384 Q41 366 44 366 Q70 351 87.5 363 Q105 375 106 378 Q118 397 129.5 417.5 Q141 438 142 440 ZM380 470 Q379 494 394 501 Q409 508 412 508 L588 508 L588 328 L412 328 Q386 327 382 340 Q378 353 380 356 L380 470 ZM388 210 Q359 240 333 221 Q307 202 326 170 Q381 96 448 46 Q378 4 290 -9 Q244 -20 248.5 -50 Q253 -80 298 -79 Q419 -58 514 2 Q704 -99 966 -79 Q1002 -72 1002 -40 Q1002 -8 966 -7 Q742 -28 572 56 Q649 135 666 254 L886 254 Q933 259 943.5 294.5 Q954 330 952 336 L952 524 Q944 564 913 574.5 Q882 585 878 584 L666 584 L666 670 L938 670 Q962 672 969 686.5 Q976 701 976 704 Q971 730 955.5 737 Q940 744 938 744 L666 744 L666 800 Q661 826 645.5 833 Q630 840 628 840 Q599 837 592.5 821.5 Q586 806 588 804 L588 744 L338 744 Q306 738 297 722 Q288 706 290 704 Q295 679 315 673.5 Q335 668 338 670 L588 670 L588 584 L372 584 Q319 579 311 547.5 Q303 516 306 512 L306 336 Q306 271 351.5 260.5 Q397 250 404 254 L588 254 Q569 153 508 94 Q442 138 388 210 Z" /><glyph glyph-name="uni4F8B" unicode="&#x4f8b;" d="M376 412 Q379 428 387 447 Q395 466 396 468 Q420 534 420 538 L542 538 Q558 533 563 519 Q568 505 568 504 Q563 483 564 480 Q559 386 547 324 Q535 262 534 260 Q381 412 376 412 ZM658 758 Q653 784 639 791 Q625 798 624 798 L302 798 Q275 792 268 776 Q261 760 262 758 Q266 732 281 726 Q296 720 298 722 L360 722 Q351 539 288 419.5 Q225 300 216 296 Q200 271 206.5 253.5 Q213 236 216 236 Q240 220 254.5 228.5 Q269 237 270 240 Q283 255 290 264 Q346 335 342 338 Q377 309 423 254.5 Q469 200 474 194 Q495 173 498 170 Q455 84 380.5 40 Q306 -4 298 -5 Q270 -16 269 -35 Q268 -54 270 -57 Q286 -83 307 -83.5 Q328 -84 330 -83 Q446 -34 511 63 Q576 160 604 267.5 Q632 375 638.5 450.5 Q645 526 644 530 Q636 586 602 600 Q568 614 564 612 L428 612 L436 722 L628 722 Q646 724 652 739.5 Q658 755 658 758 ZM746 10 Q716 8 704.5 -5.5 Q693 -19 694 -21 Q693 -47 710 -58 Q727 -69 730 -69 Q818 -88 866 -79 Q914 -70 934 -49 Q954 -28 957 -10 Q960 8 960 10 L960 770 Q955 791 939.5 797.5 Q924 804 922 804 Q896 799 890 785 Q884 771 886 770 L886 20 Q872 -10 813 -2 Q754 6 746 10 ZM746 774 Q720 769 714 754 Q708 739 710 738 L710 158 Q712 135 727.5 130 Q743 125 746 126 Q770 130 777 145 Q784 160 784 162 L784 738 Q779 761 763.5 767.5 Q748 774 746 774 ZM114 444 L114 -61 Q116 -88 131.5 -94 Q147 -100 150 -99 Q171 -96 177.5 -79.5 Q184 -63 184 -61 L184 590 Q211 663 225 717 Q239 771 240 774 Q240 807 227 819.5 Q214 832 212 832 Q182 829 170.5 810.5 Q159 792 160 790 Q113 613 70 528 Q27 443 24 444 Q16 419 21 402.5 Q26 386 28 386 Q49 367 63 375 Q77 383 78 386 Q88 400 100 420.5 Q112 441 114 444 Z" /><glyph glyph-name="uni4F9B" unicode="&#x4f9b;" d="M440 816 Q411 811 404.5 797 Q398 783 400 782 L400 648 L286 648 Q264 642 257.5 626 Q251 610 252 608 Q256 580 270 574 Q284 568 286 570 L400 570 L400 346 L282 346 Q254 340 246.5 323 Q239 306 240 304 Q245 278 264 272 Q283 266 286 268 L942 268 Q972 270 980.5 287.5 Q989 305 988 308 Q982 332 963 339 Q944 346 942 346 L800 346 L800 570 L938 570 Q962 572 967.5 588.5 Q973 605 972 608 Q964 634 947.5 641 Q931 648 930 648 L800 648 L800 790 Q794 814 776 819.5 Q758 825 756 824 Q728 821 722 806.5 Q716 792 718 790 L718 648 L482 648 L482 786 Q476 807 459 811.5 Q442 816 440 816 ZM28 366 Q47 353 65.5 366 Q84 379 86 382 Q136 443 138 448 L138 -69 Q140 -90 154.5 -94.5 Q169 -99 172 -99 Q198 -94 205 -80 Q212 -66 212 -65 L212 566 Q234 629 251.5 691 Q269 753 270 758 Q273 791 259.5 803.5 Q246 816 244 816 Q217 816 206 796.5 Q195 777 196 774 Q158 618 98 526 Q38 434 32 432 Q18 402 22 384 Q26 366 28 366 ZM718 570 L718 346 L482 346 L482 570 L718 570 ZM976 -87 Q994 -66 990 -48 Q986 -30 984 -29 Q897 78 828 141 Q759 204 756 206 Q729 217 711.5 208.5 Q694 200 694 198 Q681 176 694 159 Q707 142 710 142 Q790 63 856 -7.5 Q922 -78 926 -83 Q943 -101 958.5 -95 Q974 -89 976 -87 ZM530 138 Q544 168 538 184.5 Q532 201 530 202 Q502 218 484 209 Q466 200 466 198 Q388 89 324.5 41.5 Q261 -6 258 -5 Q231 -24 234 -43.5 Q237 -63 240 -65 Q261 -85 284.5 -80 Q308 -75 310 -73 Q416 3 472.5 68 Q529 133 530 138 Z" /><glyph glyph-name="uni4F9D" unicode="&#x4f9d;" d="M542 786 Q582 714 584 714 L306 714 Q267 684 283.5 660.5 Q300 637 306 636 L542 636 Q466 464 368.5 378 Q271 292 262 292 Q239 269 244 251 Q249 233 252 232 Q273 214 294.5 219.5 Q316 225 318 228 Q368 265 376 272 L376 -25 Q381 -96 422.5 -96 Q464 -96 470 -91 Q535 -57 605.5 -11 Q676 35 682 40 Q700 62 694 80 Q688 98 686 100 Q664 120 646.5 115 Q629 110 628 108 Q561 51 518 26 Q475 1 474 2 Q447 0 454 10 L454 350 Q517 422 554 493 Q591 564 592 570 Q618 421 674 303 Q730 185 791.5 101.5 Q853 18 896.5 -25 Q940 -68 942 -69 Q965 -83 982 -75 Q999 -67 1000 -65 Q1015 -40 1006.5 -22.5 Q998 -5 996 -5 Q899 76 834.5 173.5 Q770 271 768 280 Q865 356 914 412.5 Q963 469 964 472 Q976 496 969 512.5 Q962 529 960 530 Q936 545 921 534.5 Q906 524 906 522 Q849 455 793.5 405.5 Q738 356 734 354 Q695 467 676 547.5 Q657 628 658 632 L960 632 Q980 634 986 651.5 Q992 669 992 672 Q987 699 972 706.5 Q957 714 956 714 L678 714 Q618 823 616 824 Q596 846 576.5 844 Q557 842 556 840 Q532 820 535.5 803.5 Q539 787 542 786 ZM134 440 Q141 447 142 448 L142 -73 Q144 -91 160.5 -97 Q177 -103 180 -103 Q206 -98 213 -84 Q220 -70 220 -69 L220 582 Q245 637 264.5 702.5 Q284 768 286 774 Q288 788 290 790 Q293 818 276.5 829 Q260 840 258 840 Q230 840 220.5 825 Q211 810 212 808 Q165 633 101.5 533 Q38 433 32 432 Q18 408 24 391 Q30 374 32 374 Q58 361 75.5 370 Q93 379 94 382 Q132 430 134 440 Z" /><glyph glyph-name="uni4FA7" unicode="&#x4fa7;" d="M368 210 L368 684 Q369 702 381.5 706 Q394 710 396 710 L550 710 Q566 708 571 696.5 Q576 685 576 684 L576 220 Q578 189 593.5 180.5 Q609 172 612 174 Q638 179 644.5 198 Q651 217 650 220 L650 722 Q648 773 618 782.5 Q588 792 584 790 L360 790 Q309 785 300 755.5 Q291 726 294 722 L294 210 Q296 181 311.5 174.5 Q327 168 330 170 Q354 172 361 189.5 Q368 207 368 210 ZM266 -5 Q242 -27 245.5 -45 Q249 -63 252 -65 Q272 -79 292 -73 Q312 -67 314 -65 Q452 54 485.5 180.5 Q519 307 514 318 L514 602 Q508 629 492 636.5 Q476 644 474 644 Q446 638 440 621 Q434 604 436 602 L436 318 Q422 162 349 79 Q276 -4 266 -5 ZM686 -61 Q701 -38 694.5 -20 Q688 -2 686 -1 Q556 133 550 134 Q525 147 507.5 141 Q490 135 490 134 Q474 110 482.5 95 Q491 80 494 80 Q630 -47 632 -57 Q649 -76 666.5 -69.5 Q684 -63 686 -61 ZM44 420 Q70 409 89.5 423 Q109 437 110 440 Q124 468 126 472 L126 -61 Q128 -85 144.5 -92 Q161 -99 164 -99 Q190 -94 197 -78.5 Q204 -63 204 -61 L204 612 Q231 684 244.5 735.5 Q258 787 258 790 Q261 818 247.5 829 Q234 840 232 840 Q202 840 192.5 823 Q183 806 184 804 Q147 666 97.5 580 Q48 494 44 492 Q25 456 33 438 Q41 420 44 420 ZM862 -9 Q850 -13 824.5 -4.5 Q799 4 796 6 Q766 10 753.5 -0.5 Q741 -11 742 -13 Q735 -43 748 -58 Q761 -73 764 -73 Q836 -99 876 -91 Q916 -83 933 -59 Q950 -35 953 -13.5 Q956 8 956 10 L956 798 Q951 822 935.5 827.5 Q920 833 918 832 Q889 829 882.5 814.5 Q876 800 878 798 L878 28 Q877 1 870 -4.5 Q863 -10 862 -9 ZM764 118 Q790 123 797 141 Q804 159 804 162 L804 714 Q798 739 782 745 Q766 751 764 750 Q739 747 733.5 731.5 Q728 716 730 714 L730 158 Q732 129 746.5 122.5 Q761 116 764 118 Z" /><glyph glyph-name="uni4FA8" unicode="&#x4fa8;" d="M584 726 Q556 648 552 640 L346 640 Q317 635 309 619.5 Q301 604 302 602 Q307 576 325 570 Q343 564 346 566 L518 566 Q450 478 378.5 437.5 Q307 397 302 398 Q273 381 270.5 362 Q268 343 270 342 Q281 318 302 319 Q323 320 326 322 Q457 368 535.5 461.5 Q614 555 616 566 L658 566 Q744 430 833 375 Q922 320 930 322 Q961 313 974.5 324 Q988 335 988 338 Q997 368 982 383 Q967 398 964 398 Q861 438 804.5 498.5 Q748 559 748 566 L934 566 Q955 568 961.5 583.5 Q968 599 968 602 Q963 626 949 633 Q935 640 934 640 L640 640 Q648 675 650 680 Q669 729 670 734 Q881 756 886 766 Q914 776 916.5 793 Q919 810 918 812 Q906 837 887 841 Q868 845 866 844 Q690 810 547 801 Q404 792 396 794 Q367 788 359.5 770 Q352 752 354 750 Q358 724 377.5 718 Q397 712 400 714 Q460 714 519.5 719.5 Q579 725 584 726 ZM350 -33 Q334 -54 340.5 -70 Q347 -86 350 -87 Q368 -102 387 -95.5 Q406 -89 408 -87 Q501 0 523 114.5 Q545 229 542 240 L542 350 Q536 373 518 379.5 Q500 386 498 386 Q469 381 462.5 366 Q456 351 458 350 L458 240 Q451 104 403.5 36 Q356 -32 350 -33 ZM792 -103 Q818 -97 825 -80 Q832 -63 832 -61 L832 346 Q826 371 810 377 Q794 383 792 382 Q763 379 756.5 363.5 Q750 348 752 346 L752 -61 Q754 -88 771.5 -95.5 Q789 -103 792 -103 ZM36 366 Q56 347 76 357 Q96 367 98 370 Q150 427 154 436 L154 -65 Q156 -89 172.5 -94.5 Q189 -100 192 -99 Q218 -96 225 -81.5 Q232 -67 232 -65 L232 558 Q275 645 296.5 723.5 Q318 802 318 808 Q315 837 299.5 846.5 Q284 856 282 856 Q257 859 248 842.5 Q239 826 240 824 Q188 635 121 535.5 Q54 436 48 436 Q23 406 28 386 Q33 366 36 366 Z" /><glyph glyph-name="uni4FAF" unicode="&#x4faf;" d="M118 420 Q142 444 142 444 L142 -49 Q144 -73 160.5 -80 Q177 -87 180 -87 Q206 -82 213 -66.5 Q220 -51 220 -49 L220 574 Q247 637 262 701 Q277 765 278 770 Q278 795 264 805.5 Q250 816 248 816 Q218 816 208.5 802 Q199 788 200 786 Q169 645 111.5 552 Q54 459 48 456 Q32 428 38.5 413 Q45 398 48 398 Q68 379 84.5 387 Q101 395 102 398 Q113 415 118 420 ZM760 672 L752 604 L302 604 Q278 600 271.5 584 Q265 568 266 566 Q270 540 285 534 Q300 528 302 530 L956 530 Q995 558 978 580 Q961 602 956 604 L836 604 L846 706 Q849 766 811.5 777 Q774 788 768 786 L376 786 Q354 780 347.5 764 Q341 748 342 746 Q346 720 360 714 Q374 708 376 710 L734 710 Q755 707 758 690.5 Q761 674 760 672 ZM302 296 Q321 283 337 290 Q353 297 354 300 Q380 327 401 357 Q422 387 424 390 L588 390 L588 284 L290 284 Q266 278 260.5 262 Q255 246 256 244 Q259 219 273.5 213.5 Q288 208 290 210 L580 210 Q556 152 511 112 Q466 72 417 47.5 Q368 23 333.5 12 Q299 1 298 2 Q272 -8 270 -25.5 Q268 -43 270 -45 Q280 -70 298 -74 Q316 -78 318 -77 Q468 -32 549.5 44.5 Q631 121 632 130 Q730 7 836.5 -39 Q943 -85 952 -83 Q975 -84 985.5 -71.5 Q996 -59 996 -57 Q1000 -30 990.5 -19 Q981 -8 980 -9 Q811 42 741 121.5 Q671 201 674 210 L948 210 Q971 212 977.5 226.5 Q984 241 984 244 Q979 270 964 277 Q949 284 948 284 L666 284 L666 390 L926 390 Q944 392 950 406.5 Q956 421 956 424 Q951 450 939 457 Q927 464 926 464 L458 464 Q462 493 451.5 505.5 Q441 518 440 518 Q410 524 398.5 511 Q387 498 388 496 Q361 429 332.5 391.5 Q304 354 302 354 Q286 329 292.5 312.5 Q299 296 302 296 Z" /><glyph glyph-name="uni4FBF" unicode="&#x4fbf;" d="M948 354 L948 590 Q939 637 899 649 Q859 661 854 660 L658 660 L658 734 L960 734 Q980 736 986 750 Q992 764 992 766 Q990 790 977.5 797 Q965 804 964 804 L310 804 Q281 799 274.5 785 Q268 771 270 770 Q272 744 289.5 738 Q307 732 310 734 L584 734 L584 660 L376 660 Q316 652 301.5 621 Q287 590 290 586 L290 346 Q290 287 331.5 276 Q373 265 380 268 L576 268 Q573 202 552.5 160.5 Q532 119 530 118 Q464 159 422.5 194 Q381 229 380 232 Q356 244 337.5 233 Q319 222 318 220 Q302 199 312.5 184.5 Q323 170 326 170 Q347 147 356 142 Q392 114 431 87.5 Q470 61 474 60 Q416 22 353.5 1 Q291 -20 286 -21 Q258 -23 252 -38.5 Q246 -54 248 -57 Q253 -78 270 -84.5 Q287 -91 290 -91 Q409 -69 476.5 -27 Q544 15 546 20 Q679 -40 810.5 -69.5 Q942 -99 952 -99 Q978 -96 985 -77.5 Q992 -59 992 -57 Q986 -25 968 -18 Q950 -11 948 -13 Q810 5 705.5 42 Q601 79 596 84 Q633 149 644 206.5 Q655 264 654 268 L862 268 Q926 270 938.5 309 Q951 348 948 354 ZM160 798 Q132 661 86 570 Q40 479 36 476 Q23 445 32 428.5 Q41 412 44 412 Q64 401 80.5 413 Q97 425 98 428 Q110 444 119.5 463 Q129 482 130 484 L130 -57 Q132 -81 148.5 -86.5 Q165 -92 168 -91 Q194 -86 201 -70.5 Q208 -55 208 -53 L208 628 Q217 680 220 684 Q244 782 244 782 Q244 807 227 817.5 Q210 828 208 828 Q178 828 168.5 814 Q159 800 160 798 ZM844 334 L658 334 L658 428 L874 428 L874 374 Q872 342 858.5 337 Q845 332 844 334 ZM368 378 L368 428 L584 428 L584 334 L412 334 Q375 331 370 352.5 Q365 374 368 378 ZM584 594 L584 496 L368 496 L368 558 Q368 583 388 589 Q408 595 412 594 L584 594 ZM874 550 L874 496 L658 496 L658 594 L832 594 Q862 588 868.5 570 Q875 552 874 550 Z" /><glyph glyph-name="uni4FC3" unicode="&#x4fc3;" d="M584 28 Q482 86 451 143.5 Q420 201 424 206 Q426 257 428 264 Q438 356 436 362 Q430 391 414 399 Q398 407 396 406 Q367 400 360.5 384 Q354 368 356 366 Q352 182 308 68.5 Q264 -45 258 -49 Q249 -73 260 -85.5 Q271 -98 274 -99 Q301 -105 315 -94 Q329 -83 330 -81 Q348 -39 363.5 -1 Q379 37 380 40 Q399 92 400 96 Q472 15 539.5 -19 Q607 -53 612 -53 Q655 -67 699.5 -74 Q744 -81 748 -81 Q809 -85 886.5 -86 Q964 -87 972 -87 Q992 -82 998 -66.5 Q1004 -51 1004 -49 Q999 -20 986 -13.5 Q973 -7 972 -9 Q951 -6 923.5 -5 Q896 -4 894 -5 Q794 -4 729 0.5 Q664 5 662 6 L662 228 L926 228 Q950 230 955.5 247.5 Q961 265 960 268 Q957 294 942.5 301 Q928 308 926 308 L662 308 L662 488 L862 488 Q913 490 924.5 525 Q936 560 934 566 L934 734 Q929 781 894 791.5 Q859 802 854 800 L376 800 Q317 796 306 770.5 Q295 745 298 742 L298 566 Q297 504 329.5 494 Q362 484 368 488 L584 488 L584 28 ZM372 612 L372 680 Q370 715 395 721 Q420 727 424 726 L824 726 Q848 720 853.5 703 Q859 686 858 684 L858 608 Q858 572 838.5 566 Q819 560 816 562 L424 562 Q384 562 377 585 Q370 608 372 612 ZM114 432 Q138 463 138 464 L138 -69 Q140 -87 154.5 -93 Q169 -99 172 -99 Q198 -94 205 -80 Q212 -66 212 -65 L212 602 Q226 648 228 656 Q263 772 262 778 Q265 811 249.5 823.5 Q234 836 232 836 Q199 833 187 812.5 Q175 792 176 790 Q131 616 83 533.5 Q35 451 32 452 Q18 424 24 405 Q30 386 32 386 Q55 371 72 383 Q89 395 90 398 Q111 425 114 432 Z" /><glyph glyph-name="uni4FC4" unicode="&#x4fc4;" d="M138 444 L138 -57 Q140 -84 156.5 -90 Q173 -96 176 -95 Q202 -92 209 -75.5 Q216 -59 216 -57 L216 578 Q237 639 253 707.5 Q269 776 270 782 Q270 812 254 822 Q238 832 236 832 Q203 829 193 810.5 Q183 792 184 790 Q152 639 95 543 Q38 447 32 444 Q17 414 21.5 396 Q26 378 28 378 Q54 363 73.5 375 Q93 387 94 390 Q134 436 138 444 ZM910 608 Q923 624 921 641 Q919 658 918 660 Q880 710 854.5 743 Q829 776 828 778 Q803 790 785.5 781 Q768 772 768 770 Q755 751 764 736.5 Q773 722 776 722 Q855 612 862 608 Q878 593 893 599 Q908 605 910 608 ZM266 268 Q235 259 228.5 240.5 Q222 222 224 220 Q235 196 255 194 Q275 192 278 194 Q300 196 310 198 Q396 211 396 212 L396 48 Q389 -2 344.5 1.5 Q300 5 294 10 Q265 12 252 0.5 Q239 -11 240 -13 Q236 -39 251.5 -52 Q267 -65 270 -65 Q405 -93 438 -46.5 Q471 0 466 10 L466 228 Q508 232 552 247 Q596 262 600 264 Q625 277 627 294.5 Q629 312 628 314 Q614 336 595.5 337.5 Q577 339 576 338 Q471 305 466 308 L466 476 L650 476 Q650 458 651.5 434 Q653 410 654 408 Q666 274 675.5 217 Q685 160 686 162 Q635 108 582.5 78 Q530 48 526 48 Q500 31 500 15.5 Q500 0 502 -1 Q518 -23 538 -21 Q558 -19 560 -17 Q634 13 675.5 43 Q717 73 718 76 Q772 -52 830.5 -80 Q889 -108 894 -103 Q955 -79 968.5 6.5 Q982 92 980 104 Q972 125 957.5 131.5 Q943 138 942 138 Q916 136 910 122.5 Q904 109 906 108 Q904 24 890 8 Q876 -8 874 -5 Q837 13 809 69.5 Q781 126 780 134 Q839 204 877.5 276 Q916 348 918 354 Q927 386 915.5 401 Q904 416 902 416 Q874 425 860 410.5 Q846 396 846 394 Q812 311 782.5 269.5 Q753 228 752 228 Q744 269 737 344 Q730 419 730 428 Q730 473 730 476 L952 476 Q972 478 978 492.5 Q984 507 984 510 Q979 536 966 543 Q953 550 952 550 L726 550 Q723 593 722 633 Q721 673 722 676 Q722 772 722 782 Q716 809 698 815 Q680 821 678 820 Q650 815 646 799.5 Q642 784 644 782 Q644 719 644 672.5 Q644 626 644 624 Q644 599 644 575 Q644 551 644 550 L466 550 L466 714 Q529 720 538 726 Q550 728 550 730 Q573 743 575 761.5 Q577 780 576 782 Q565 803 546.5 804 Q528 805 526 804 Q454 785 393.5 779 Q333 773 330 774 Q301 766 294.5 749 Q288 732 290 730 Q298 708 316.5 703.5 Q335 699 338 700 L396 706 L396 550 L278 550 Q247 544 238.5 528 Q230 512 232 510 Q237 485 256 479.5 Q275 474 278 476 L396 476 L396 292 Q260 265 266 268 Z" /><glyph glyph-name="uni4FDD" unicode="&#x4fdd;" d="M270 366 Q250 358 242.5 341 Q235 324 236 322 Q237 306 250.5 302.5 Q264 299 266 300 L546 300 Q471 202 361 130.5 Q251 59 240 56 Q221 40 225 25.5 Q229 11 232 10 Q248 -11 264 -10.5 Q280 -10 282 -9 Q430 68 495.5 137.5 Q561 207 560 212 L560 -65 Q562 -86 577.5 -90.5 Q593 -95 596 -95 Q622 -90 629 -76 Q636 -62 636 -61 L636 212 Q725 107 831.5 42.5 Q938 -22 948 -25 Q972 -31 985.5 -17 Q999 -3 1000 -1 Q1009 21 999.5 34 Q990 47 988 48 Q809 133 732.5 213.5 Q656 294 658 300 L956 300 Q976 301 982 314.5 Q988 328 988 330 Q983 353 968 359.5 Q953 366 952 366 L636 366 L636 472 L840 472 Q893 476 906.5 508.5 Q920 541 918 546 L918 730 Q913 786 878.5 798 Q844 810 840 808 L368 808 Q309 803 298 768.5 Q287 734 290 730 L290 550 Q294 493 324.5 481 Q355 469 360 472 L560 472 L560 366 L270 366 ZM364 594 L364 696 Q363 723 382 729 Q401 735 404 734 L796 734 Q830 730 837.5 708.5 Q845 687 844 684 L844 590 Q838 558 820 551 Q802 544 800 546 L412 546 Q374 546 368 568 Q362 590 364 594 ZM126 448 L126 -53 Q128 -80 144.5 -86 Q161 -92 164 -91 Q190 -88 197 -71.5 Q204 -55 204 -53 L204 586 Q233 659 245.5 713 Q258 767 258 770 Q258 803 242 815.5 Q226 828 224 828 Q191 825 181 804.5 Q171 784 172 782 Q143 632 88.5 543 Q34 454 28 452 Q16 424 21 405 Q26 386 28 386 Q50 370 67.5 380.5 Q85 391 86 394 Q121 437 126 448 Z" /><glyph glyph-name="uni4FE1" unicode="&#x4fe1;" d="M158 468 L158 -53 Q160 -80 176.5 -87.5 Q193 -95 196 -95 Q222 -89 229 -72 Q236 -55 236 -53 L236 608 Q255 681 268 734 Q281 787 282 790 Q282 815 266 825.5 Q250 836 248 836 Q218 839 208.5 824.5 Q199 810 200 808 Q166 649 108 544 Q50 439 44 436 Q25 404 35 387 Q45 370 48 370 Q71 361 89.5 376 Q108 391 110 394 Q155 459 158 468 ZM960 -13 L960 174 Q954 230 918.5 242 Q883 254 878 252 L404 252 Q339 247 326.5 216.5 Q314 186 318 182 L318 -1 Q320 -58 359 -70.5 Q398 -83 404 -81 L882 -81 Q940 -78 951 -47.5 Q962 -17 960 -13 ZM396 16 L396 146 Q395 166 410 170 Q425 174 428 174 L850 174 Q873 171 878 155.5 Q883 140 882 138 L882 16 Q880 0 866 -2.5 Q852 -5 850 -5 L424 -5 Q401 -3 397.5 5.5 Q394 14 396 16 ZM942 518 Q936 544 920 551 Q904 558 902 558 L364 558 Q336 552 330 536 Q324 520 326 518 Q328 493 344.5 487.5 Q361 482 364 484 L898 484 Q927 486 935 500.5 Q943 515 942 518 ZM944 370 Q940 397 924 404.5 Q908 412 906 412 L368 412 Q340 407 334 391.5 Q328 376 330 374 Q332 345 348.5 338.5 Q365 332 368 334 L902 334 Q930 336 937.5 351.5 Q945 367 944 370 ZM1008 680 Q1002 704 984 711 Q966 718 964 718 L678 718 Q622 823 624 820 Q604 844 582.5 841 Q561 838 560 836 Q537 816 542 797.5 Q547 779 550 778 Q583 715 584 718 L306 718 Q277 713 269 697.5 Q261 682 262 680 Q264 654 281.5 648 Q299 642 302 644 L964 644 Q993 646 1001 661.5 Q1009 677 1008 680 Z" /><glyph glyph-name="uni5019" unicode="&#x5019;" d="M792 692 L784 612 L412 612 Q385 607 378 591.5 Q371 576 372 574 Q374 548 388 542 Q402 536 404 538 L944 538 Q970 540 977 555.5 Q984 571 984 574 Q981 598 965.5 605 Q950 612 948 612 L862 612 L870 710 Q866 767 822 779.5 Q778 792 772 790 L466 790 Q438 784 432 768 Q426 752 428 750 Q433 724 450 718 Q467 712 470 714 L768 714 Q790 712 791.5 702.5 Q793 693 792 692 ZM412 288 Q433 284 447 297.5 Q461 311 462 314 Q471 331 482 353 Q493 375 494 378 L640 378 L640 268 L424 268 Q398 262 392 246 Q386 230 388 228 Q393 203 409 197.5 Q425 192 428 194 L628 194 Q569 75 473.5 37 Q378 -1 368 2 Q346 -2 343 -18 Q340 -34 342 -37 Q349 -62 365.5 -68 Q382 -74 384 -73 Q528 -39 606.5 40.5 Q685 120 686 130 Q755 38 845 -20.5 Q935 -79 944 -81 Q974 -91 989 -79 Q1004 -67 1004 -65 Q1013 -35 998 -20 Q983 -5 980 -5 Q854 52 793.5 120 Q733 188 734 194 L956 194 Q979 196 984 210.5 Q989 225 988 228 Q983 254 968 261 Q953 268 952 268 L718 268 L718 378 L930 378 Q951 380 957.5 394.5 Q964 409 964 412 Q962 438 948.5 445 Q935 452 934 452 L518 452 Q518 454 521.5 471.5 Q525 489 526 492 Q524 516 510 523 Q496 530 494 530 Q467 528 460 514.5 Q453 501 454 500 Q444 437 423 390.5 Q402 344 400 342 Q390 313 399.5 300 Q409 287 412 288 ZM310 36 Q330 41 336 57 Q342 73 342 76 L342 684 Q337 708 322 713.5 Q307 719 306 718 Q283 710 278 693.5 Q273 677 274 676 L274 68 Q276 42 291.5 38 Q307 34 310 36 ZM134 448 L134 -41 Q136 -67 150.5 -74 Q165 -81 168 -81 Q194 -75 201 -59 Q208 -43 208 -41 L208 594 Q232 659 246.5 714.5 Q261 770 262 774 Q265 804 251.5 816 Q238 828 236 828 Q206 828 196.5 810 Q187 792 188 790 Q145 623 92.5 530 Q40 437 36 436 Q20 409 25 391.5 Q30 374 32 374 Q54 361 71.5 372 Q89 383 90 386 Q108 404 120.5 425 Q133 446 134 448 Z" /><glyph glyph-name="uni5047" unicode="&#x5047;" d="M356 -53 L356 104 L564 104 Q584 106 590 120.5 Q596 135 596 138 Q591 161 578 167.5 Q565 174 564 174 L356 174 L356 300 L550 300 Q571 302 577.5 316.5 Q584 331 584 334 Q579 357 565 363.5 Q551 370 550 370 L356 370 L356 492 L502 492 Q554 491 564 527.5 Q574 564 572 570 L572 722 Q570 777 538 788.5 Q506 800 502 798 L354 798 Q302 794 292.5 760 Q283 726 286 722 L286 -53 Q288 -74 303.5 -80.5 Q319 -87 322 -87 Q345 -82 350.5 -68 Q356 -54 356 -53 ZM356 700 Q356 718 369 722 Q382 726 384 726 L474 726 Q494 724 498 712.5 Q502 701 502 700 L502 594 Q500 571 489.5 566 Q479 561 478 562 L356 562 L356 700 ZM874 700 L874 594 Q872 571 861.5 567.5 Q851 564 850 566 L662 566 Q640 561 633.5 546 Q627 531 628 530 Q632 505 646 499.5 Q660 494 662 496 L866 496 Q927 495 937 531.5 Q947 568 944 574 L944 734 Q942 784 908.5 793 Q875 802 870 800 L666 800 Q641 796 634 781.5 Q627 767 628 766 Q633 740 648.5 734 Q664 728 666 730 L850 730 Q864 725 869 713 Q874 701 874 700 ZM840 338 Q855 336 856.5 325.5 Q858 315 858 314 Q838 259 808.5 217.5 Q779 176 776 174 Q758 196 752 206 Q691 291 694 296 Q677 313 659 312 Q641 311 640 310 Q620 295 623 278 Q626 261 628 260 Q707 109 718 112 Q647 47 593.5 22.5 Q540 -2 538 -1 Q507 -15 507 -35 Q507 -55 510 -57 Q527 -83 548.5 -83 Q570 -83 572 -81 Q662 -30 718 7.5 Q774 45 776 48 Q825 9 877 -24.5 Q929 -58 934 -61 Q957 -73 972 -64 Q987 -55 988 -53 Q1003 -23 992.5 -8.5 Q982 6 980 6 Q919 32 878 70 Q837 108 836 112 Q846 127 850 134 Q914 235 935.5 290 Q957 345 956 346 Q958 393 919 403.5 Q880 414 874 412 L650 412 Q625 407 619.5 391.5 Q614 376 616 374 Q621 348 636.5 342 Q652 336 654 338 L836 338 Q838 338 840 338 ZM134 460 L134 -45 Q136 -72 152.5 -78 Q169 -84 172 -83 Q198 -80 205 -63.5 Q212 -47 212 -45 L212 636 Q218 648 224.5 677 Q231 706 232 710 Q241 765 244 766 Q247 799 232.5 811.5 Q218 824 216 824 Q183 821 173 802.5 Q163 784 164 782 Q125 612 82 535 Q39 458 36 460 Q20 429 25 409.5 Q30 390 32 390 Q54 372 71.5 383 Q89 394 90 398 Q136 454 134 460 Z" /><glyph glyph-name="uni505A" unicode="&#x505a;" d="M106 476 L106 -53 Q108 -77 125.5 -84 Q143 -91 146 -91 Q170 -86 177 -70.5 Q184 -55 184 -53 L184 608 Q232 773 232 774 Q232 796 219 806 Q206 816 204 816 Q175 819 167 807.5 Q159 796 160 794 Q132 654 82.5 564.5 Q33 475 28 472 Q17 447 23.5 431.5 Q30 416 32 416 Q53 404 67 414.5 Q81 425 82 428 Q88 438 96.5 456 Q105 474 106 476 ZM266 628 L364 628 L364 460 L310 460 Q268 452 259 419 Q250 386 252 382 L252 14 Q255 -31 280.5 -40.5 Q306 -50 310 -49 L474 -49 Q525 -45 536.5 -17.5 Q548 10 546 14 L546 382 Q542 438 514 450 Q486 462 482 460 L440 460 L440 628 L560 628 Q580 630 586 645.5 Q592 661 592 664 Q587 690 574 696.5 Q561 703 560 702 L440 702 L440 790 Q434 808 418 814 Q402 820 400 820 Q374 815 368 803 Q362 791 364 790 L364 702 L266 702 Q227 672 243.5 650.5 Q260 629 266 628 ZM588 310 Q612 304 627.5 317.5 Q643 331 644 334 Q655 362 669.5 404.5 Q684 447 686 452 Q700 342 726.5 267.5 Q753 193 756 190 Q717 102 653.5 44 Q590 -14 584 -17 Q562 -39 569.5 -57 Q577 -75 580 -77 Q602 -94 622 -88.5 Q642 -83 644 -81 Q702 -26 751 40.5 Q800 107 804 114 Q850 41 892.5 -8.5 Q935 -58 938 -61 Q955 -78 972.5 -72.5 Q990 -67 992 -65 Q1010 -40 1006 -22.5 Q1002 -5 1000 -5 Q923 74 883.5 138 Q844 202 844 206 Q889 350 905.5 484 Q922 618 922 628 L964 628 Q1006 659 988 683.5 Q970 708 964 710 L734 710 Q736 724 737 745.5 Q738 767 738 770 Q732 791 716 797.5 Q700 804 698 804 Q669 802 662.5 788.5 Q656 775 658 774 Q647 578 613.5 474 Q580 370 576 370 Q563 340 574 325 Q585 310 588 310 ZM730 632 L854 632 Q838 453 816 366 Q794 279 792 280 Q747 438 737.5 533.5 Q728 629 730 632 ZM326 52 L326 346 Q322 374 339.5 380.5 Q357 387 360 386 L436 386 Q460 380 465.5 364 Q471 348 470 346 L470 48 Q468 23 456.5 18.5 Q445 14 444 16 L354 16 Q333 18 329 33.5 Q325 49 326 52 Z" /><glyph glyph-name="uni505C" unicode="&#x505c;" d="M552 848 Q531 831 535 813 Q539 795 542 794 Q549 775 550 774 Q564 747 564 750 L290 750 Q269 745 263 730 Q257 715 258 714 Q262 689 275 683.5 Q288 678 290 680 L944 680 Q978 706 963 727 Q948 748 944 750 L650 750 Q633 778 632 782 Q610 833 612 828 Q592 850 572.5 849.5 Q553 849 552 848 ZM326 202 L326 280 Q325 300 338 304 Q351 308 354 308 L866 308 Q912 302 903 257 Q894 212 890 206 Q881 176 896 162.5 Q911 149 914 150 Q939 143 953 159 Q967 175 968 178 Q993 252 988 293.5 Q983 335 963.5 352.5 Q944 370 925.5 374 Q907 378 906 378 L318 378 Q265 373 255 342.5 Q245 312 248 308 L248 202 Q250 173 266.5 166.5 Q283 160 286 162 Q312 164 319 181.5 Q326 199 326 202 ZM440 -1 Q410 4 396.5 -9 Q383 -22 384 -25 Q380 -51 394.5 -64 Q409 -77 412 -77 Q518 -101 574.5 -92.5 Q631 -84 653.5 -59.5 Q676 -35 679.5 -13.5 Q683 8 682 10 L682 166 L840 166 Q878 194 861.5 216 Q845 238 840 240 L384 240 Q362 235 355.5 219.5 Q349 204 350 202 Q354 176 368 170 Q382 164 384 166 L604 166 L604 24 Q605 -2 581 -10 Q557 -18 524.5 -15.5 Q492 -13 466.5 -7 Q441 -1 440 -1 ZM898 468 L898 586 Q895 619 874 626 Q853 633 850 632 L350 632 Q312 629 306 608.5 Q300 588 302 586 L302 468 Q305 433 326 425.5 Q347 418 350 420 L850 420 Q884 423 891.5 444 Q899 465 898 468 ZM372 506 L372 546 Q373 557 383.5 561.5 Q394 566 396 566 L808 566 Q830 553 828 546 L828 506 Q815 483 808 488 L396 488 Q378 486 374.5 495 Q371 504 372 506 ZM106 424 Q125 457 126 460 L126 -49 Q128 -73 142.5 -80 Q157 -87 160 -87 Q186 -82 193 -66.5 Q200 -51 200 -49 L200 602 Q255 759 256 770 Q258 800 244 812 Q230 824 228 824 Q198 827 186.5 809.5 Q175 792 176 790 Q136 642 82.5 546.5 Q29 451 24 448 Q12 416 19 399 Q26 382 28 382 Q54 373 73.5 388 Q93 403 94 406 Q103 419 106 424 Z" /><glyph glyph-name="uni5065" unicode="&#x5065;" d="M114 456 L114 -69 Q116 -90 131.5 -96.5 Q147 -103 150 -103 Q174 -98 181 -84 Q188 -70 188 -69 L188 594 Q206 665 216.5 725.5 Q227 786 228 790 Q225 812 209.5 820 Q194 828 192 828 Q164 828 156.5 815 Q149 802 150 800 Q126 653 81.5 560 Q37 467 32 464 Q19 436 26 421 Q33 406 36 406 Q56 393 72.5 403 Q89 413 90 416 Q114 451 114 456 ZM454 554 L650 554 L650 484 L518 484 Q494 479 487.5 464 Q481 449 482 448 Q486 422 501 416 Q516 410 518 412 L650 412 L650 338 L518 338 Q497 333 491 319 Q485 305 486 304 Q490 278 503 272 Q516 266 518 268 L650 268 L650 194 L490 194 Q451 163 467.5 141 Q484 119 490 118 L650 118 L650 28 Q652 14 667.5 9.5 Q683 5 686 6 Q728 20 722 28 L722 118 L952 118 Q975 120 981.5 135.5 Q988 151 988 154 Q983 180 968 187 Q953 194 952 194 L722 194 L722 268 L922 268 Q940 270 946 285.5 Q952 301 952 304 Q947 325 935 331.5 Q923 338 922 338 L722 338 L722 412 L882 412 Q934 413 944 449.5 Q954 486 952 492 L952 554 L976 554 Q1010 582 995 604 Q980 626 976 628 L952 628 L952 700 Q947 747 918.5 757.5 Q890 768 886 766 L722 766 L722 804 Q716 824 700 828 Q684 832 682 832 Q659 827 654 814 Q649 801 650 800 L650 766 L510 766 Q473 738 488.5 717.5 Q504 697 510 696 L650 696 L650 628 L454 628 Q415 598 431.5 576.5 Q448 555 454 554 ZM882 628 L722 628 L722 696 L850 696 Q887 681 882 672 L882 628 ZM854 484 L722 484 L722 554 L882 554 L882 510 Q877 491 866 487 Q855 483 854 484 ZM396 472 L330 472 Q305 469 310 472 Q311 487 318 496 Q321 500 329 512 Q337 524 338 526 Q371 584 402 639.5 Q433 695 436 700 Q457 759 423.5 775.5 Q390 792 384 790 L286 790 Q261 785 254 770 Q247 755 248 754 Q250 728 264.5 722 Q279 716 282 718 L330 718 Q358 714 356 710 Q358 695 354 692 Q330 648 299 599 Q268 550 266 546 Q226 482 232 488 Q203 430 234.5 414.5 Q266 399 274 402 L350 402 Q371 397 377.5 386 Q384 375 384 374 Q376 275 363.5 219 Q351 163 350 162 Q320 237 308.5 286.5 Q297 336 298 338 Q290 357 273.5 358 Q257 359 256 358 Q233 347 231.5 333 Q230 319 232 318 Q254 214 282.5 149.5 Q311 85 314 84 Q238 -27 228 -33 Q212 -54 218.5 -70 Q225 -86 228 -87 Q251 -102 268 -95.5 Q285 -89 286 -87 Q314 -55 338 -19.5 Q362 16 364 20 Q422 -30 477.5 -48 Q533 -66 538 -65 Q576 -71 646 -75 Q716 -79 789.5 -80.5 Q863 -82 914 -82.5 Q965 -83 968 -83 Q988 -79 994 -63 Q1000 -47 1000 -45 Q995 -16 982 -9.5 Q969 -3 968 -5 Q744 -6 650.5 1 Q557 8 560 10 Q480 21 440 56 Q400 91 400 96 Q434 191 444.5 292 Q455 393 454 402 Q450 452 424.5 463 Q399 474 396 472 Z" /><glyph glyph-name="uni5085" unicode="&#x5085;" d="M102 420 Q114 444 114 444 L114 -57 Q116 -78 131.5 -84.5 Q147 -91 150 -91 Q174 -86 181 -72 Q188 -58 188 -57 L188 578 Q215 643 229 700.5 Q243 758 244 762 Q244 790 229 801 Q214 812 212 812 Q185 815 174 799.5 Q163 784 164 782 Q130 636 81 552.5 Q32 469 28 468 Q12 400 24 398 Q51 380 70 391 Q89 402 90 406 Q99 414 102 420 ZM538 436 L538 390 L334 390 L334 436 L538 436 ZM256 710 Q259 688 271.5 683.5 Q284 679 286 680 L538 680 L538 620 L346 620 Q285 613 272 583.5 Q259 554 262 550 L262 240 Q264 215 279.5 209.5 Q295 204 298 206 Q321 208 327.5 222.5 Q334 237 334 240 L334 326 L538 326 L538 232 Q540 213 554.5 207 Q569 201 572 202 Q595 206 601.5 218 Q608 230 608 232 L608 326 L828 326 L828 248 Q830 220 844.5 214 Q859 208 862 210 Q885 212 891.5 228.5 Q898 245 898 248 L898 542 Q889 595 851 608.5 Q813 622 808 620 L608 620 L608 680 L902 680 Q909 662 910 656 Q922 641 922 644 Q935 622 950.5 624 Q966 626 968 628 Q987 644 988 661 Q989 678 988 680 Q974 704 956.5 729.5 Q939 755 938 758 Q917 790 914 798 Q897 813 880 811 Q863 809 862 808 Q841 796 842.5 781.5 Q844 767 846 766 Q854 753 862 746 L608 746 L608 798 Q603 814 588 819 Q573 824 572 824 Q547 819 541.5 809 Q536 799 538 798 L538 746 L286 746 Q265 741 260 726 Q255 711 256 710 ZM356 554 L538 554 L538 500 L334 500 L334 534 Q345 556 356 554 ZM462 -65 Q475 -77 489.5 -75.5 Q504 -74 506 -73 Q528 -57 527.5 -43 Q527 -29 526 -29 Q506 1 484.5 23.5 Q463 46 462 48 Q444 61 428.5 55 Q413 49 412 48 Q393 29 397 19.5 Q401 10 404 10 Q427 -18 432 -25 Q459 -60 462 -65 ZM828 530 L828 500 L608 500 L608 554 L808 554 Q830 539 828 530 ZM828 390 L608 390 L608 436 L828 436 L828 390 ZM212 122 Q217 97 235 91.5 Q253 86 256 88 L760 88 L760 -1 Q752 -33 701.5 -24.5 Q651 -16 644 -13 Q611 -4 599 -17 Q587 -30 588 -33 Q585 -57 603 -69 Q621 -81 624 -81 Q704 -102 748.5 -94 Q793 -86 812.5 -65 Q832 -44 836 -25 Q840 -6 840 -5 L840 88 L964 88 Q984 90 990 104.5 Q996 119 996 122 Q991 145 978 151.5 Q965 158 964 158 L840 158 L840 206 Q834 230 818 235.5 Q802 241 800 240 Q771 237 764.5 222.5 Q758 208 760 206 L760 158 L256 158 Q227 153 219 138 Q211 123 212 122 Z" /><glyph glyph-name="uni50BB" unicode="&#x50bb;" d="M342 700 L342 488 Q349 438 378.5 426 Q408 414 412 416 L858 416 Q909 420 920.5 451.5 Q932 483 930 488 L930 692 Q925 753 893.5 764.5 Q862 776 858 774 L670 774 Q672 783 674 786 Q681 799 682 800 Q688 829 674 842.5 Q660 856 658 856 Q629 859 616 844.5 Q603 830 604 828 Q592 802 592 800 Q580 770 580 774 L424 774 Q365 766 352 735 Q339 704 342 700 ZM818 554 Q738 597 748 596 Q809 626 816 632 Q836 648 836.5 663 Q837 678 836 680 Q819 697 802 695 Q785 693 784 692 Q714 656 689 642.5 Q664 629 666 630 Q598 657 541.5 675 Q485 693 482 694 Q453 695 442 684 Q431 673 432 672 Q425 648 438 637.5 Q451 627 454 628 Q477 618 504 611 Q531 604 534 604 Q562 596 564 598 Q542 588 520.5 581 Q499 574 498 574 Q460 562 458 562 Q434 551 432 535 Q430 519 432 518 Q442 497 459 497.5 Q476 498 478 500 Q561 520 610.5 538 Q660 556 662 558 Q779 505 788 500 Q812 487 825.5 494 Q839 501 840 504 Q843 524 831.5 538.5 Q820 553 818 554 ZM424 522 L424 672 Q423 693 437 697.5 Q451 702 454 702 L816 702 Q840 699 845.5 684.5 Q851 670 850 668 L850 514 Q848 492 834.5 489 Q821 486 820 488 L452 488 Q429 487 425.5 503 Q422 519 424 522 ZM310 84 Q326 64 346 67 Q366 70 368 72 Q393 82 415.5 96 Q438 110 440 112 Q554 13 564 16 Q468 -6 383.5 -19 Q299 -32 294 -33 Q267 -38 263.5 -56 Q260 -74 262 -77 Q264 -99 281.5 -102.5 Q299 -106 302 -105 Q470 -77 555.5 -48.5 Q641 -20 644 -17 Q739 -62 845 -84.5 Q951 -107 960 -107 Q989 -104 998.5 -89.5 Q1008 -75 1008 -73 Q1002 -44 984 -36 Q966 -28 964 -29 Q854 -15 790.5 0.5 Q727 16 726 18 Q817 67 856 104.5 Q895 142 894 144 Q917 197 886.5 213 Q856 229 850 228 L560 228 Q573 243 580 252 Q592 276 581 291.5 Q570 307 568 308 Q547 316 532.5 307 Q518 298 518 296 Q460 211 401 172 Q342 133 338 134 Q310 117 309 101 Q308 85 310 84 ZM164 444 L164 -69 Q166 -96 181.5 -103.5 Q197 -111 200 -111 Q229 -106 237 -90.5 Q245 -75 244 -73 L244 578 Q278 653 295.5 706 Q313 759 314 762 Q320 801 304 816.5 Q288 832 286 832 Q251 831 237 810 Q223 789 224 786 Q171 619 112 522.5 Q53 426 48 424 Q32 403 42.5 385 Q53 367 56 366 Q76 350 94 356.5 Q112 363 114 366 Q138 394 150.5 418 Q163 442 164 444 ZM506 162 L788 162 Q803 155 800 154 Q796 145 792 142 Q747 109 702 85 Q657 61 654 60 Q576 97 540.5 128.5 Q505 160 506 162 ZM266 244 Q280 224 300 225 Q320 226 322 228 Q414 255 483 294.5 Q552 334 556 338 Q578 357 577.5 374.5 Q577 392 576 394 Q558 408 539.5 403.5 Q521 399 520 398 Q439 344 369.5 317.5 Q300 291 296 292 Q269 278 266.5 261.5 Q264 245 266 244 ZM926 236 Q951 220 963.5 230.5 Q976 241 976 244 Q981 265 968.5 280 Q956 295 954 296 Q875 340 803.5 370 Q732 400 728 402 Q695 404 684 393.5 Q673 383 674 382 Q670 355 686.5 344 Q703 333 706 334 Q784 308 852.5 273.5 Q921 239 926 236 Z" /><glyph glyph-name="uni50CF" unicode="&#x50cf;" d="M674 688 Q665 679 662 676 Q637 659 609.5 642 Q582 625 580 624 L342 624 Q298 621 289 600.5 Q280 580 282 578 L282 464 Q282 419 308 411 Q334 403 338 406 L510 406 Q456 350 367.5 328.5 Q279 307 270 308 Q242 299 238 280.5 Q234 262 236 260 Q244 237 263.5 233.5 Q283 230 286 232 Q428 260 492.5 300.5 Q557 341 556 346 Q597 292 596 292 Q496 222 391 195 Q286 168 278 170 Q250 159 246 141 Q242 123 244 122 Q255 100 275 99 Q295 98 298 100 Q442 132 533.5 177.5 Q625 223 628 228 Q642 193 644 186 Q528 102 415 70 Q302 38 294 40 Q261 29 255.5 16 Q250 3 252 2 Q262 -25 284.5 -27.5 Q307 -30 310 -29 Q454 2 550 54 Q646 106 650 112 Q647 51 622 22.5 Q597 -6 564.5 -14 Q532 -22 507.5 -19.5 Q483 -17 482 -17 Q457 -13 448 -27.5 Q439 -42 440 -45 Q442 -71 458.5 -81 Q475 -91 478 -91 Q618 -102 667.5 -49 Q717 4 714 14 Q727 62 725 121 Q723 180 722 186 Q764 199 768 206 Q812 94 866.5 42.5 Q921 -9 926 -9 Q951 -27 967 -19 Q983 -11 984 -9 Q996 10 985 28 Q974 46 972 48 Q896 102 865 168 Q834 234 836 240 Q885 268 913 292 Q941 316 942 318 Q959 337 952.5 353 Q946 369 944 370 Q923 391 908.5 385.5 Q894 380 894 378 Q830 319 768 289.5 Q706 260 702 260 Q675 315 644.5 359 Q614 403 612 406 L906 406 Q939 407 948 437 Q957 467 956 472 L956 566 Q950 605 929 615 Q908 625 906 624 L706 624 Q747 655 774.5 679.5 Q802 704 804 706 Q825 743 816 750 Q805 764 789 769 Q773 774 772 774 L556 774 Q574 800 566 819.5 Q558 839 556 840 Q532 855 513.5 844.5 Q495 834 494 832 Q426 769 353 731 Q280 693 274 692 Q250 675 248 658 Q246 641 248 640 Q260 617 279.5 617.5 Q299 618 302 620 Q366 643 414.5 671 Q463 699 466 702 L666 702 Q686 701 682 700 Q678 691 674 688 ZM32 394 Q53 381 69 390 Q85 399 86 402 Q136 467 138 476 L138 -53 Q140 -74 156.5 -78.5 Q173 -83 176 -83 Q202 -79 209 -64.5 Q216 -50 216 -49 L216 612 Q218 626 220 628 Q230 641 247 699.5 Q264 758 266 766 Q269 802 255.5 815 Q242 828 240 828 Q207 830 195 811.5 Q183 793 184 790 Q157 657 96 555 Q35 453 28 448 Q17 423 23.5 408.5 Q30 394 32 394 ZM376 558 L576 558 Q555 476 552 472 L376 472 Q360 471 356.5 484 Q353 497 354 500 L354 530 Q355 550 364.5 554 Q374 558 376 558 ZM862 472 L636 472 Q645 502 649.5 529 Q654 556 654 558 L862 558 Q876 556 879 543.5 Q882 531 882 530 L882 500 Q878 477 870 473.5 Q862 470 862 472 Z" /><glyph glyph-name="uni513F" unicode="&#x513f;" d="M714 -65 L874 -65 Q950 -56 966.5 -0.5 Q983 55 980 64 L980 130 Q974 164 957 171.5 Q940 179 938 178 Q909 172 902.5 150 Q896 128 898 126 L898 64 Q895 25 874 16.5 Q853 8 850 10 L746 10 Q700 12 691.5 32.5 Q683 53 686 56 L686 790 Q680 814 663 821 Q646 828 644 828 Q615 823 608.5 807.5 Q602 792 604 790 L604 32 Q603 -45 654.5 -57 Q706 -69 714 -65 ZM248 126 Q213 65 147 25 Q81 -15 74 -17 Q48 -33 52.5 -52 Q57 -71 60 -73 Q81 -90 102.5 -86 Q124 -82 126 -81 Q240 -12 282 42 Q324 96 322 100 Q339 138 348.5 197.5 Q358 257 362 318 Q366 379 367 420.5 Q368 462 368 464 L368 800 Q363 825 347.5 831 Q332 837 330 836 Q301 833 294.5 817.5 Q288 802 290 800 L290 412 Q287 261 268.5 192.5 Q250 124 248 126 Z" /><glyph glyph-name="uni5143" unicode="&#x5143;" d="M906 742 Q901 771 886 779 Q871 787 870 786 L164 786 Q139 780 133.5 762 Q128 744 130 742 Q132 713 146.5 706.5 Q161 700 164 702 L870 702 Q893 704 899.5 721.5 Q906 739 906 742 ZM82 10 Q55 -3 54.5 -22.5 Q54 -42 56 -45 Q71 -69 91.5 -68 Q112 -67 114 -65 Q220 -19 278.5 49.5 Q337 118 362 187.5 Q387 257 392 304.5 Q397 352 396 354 L396 452 L584 452 L584 36 Q591 -39 642.5 -57.5 Q694 -76 702 -73 L840 -73 Q894 -72 922.5 -37.5 Q951 -3 961 43 Q971 89 971.5 124.5 Q972 160 972 162 Q963 188 945.5 195 Q928 202 926 202 Q897 196 892.5 178 Q888 160 890 158 Q893 36 855.5 16 Q818 -4 812 2 L742 2 Q687 11 673 39.5 Q659 68 662 72 L662 452 L938 452 Q962 454 969 471.5 Q976 489 976 492 Q971 516 955.5 523 Q940 530 938 530 L98 530 Q70 525 62.5 509.5 Q55 494 56 492 Q61 463 78 456.5 Q95 450 98 452 L318 452 L318 346 Q316 258 281 194.5 Q246 131 199.5 90 Q153 49 118 29 Q83 9 82 10 Z" /><glyph glyph-name="uni5145" unicode="&#x5145;" d="M408 794 Q412 776 416 770 Q438 733 436 738 L82 738 Q54 732 46.5 715 Q39 698 40 696 Q45 670 62 664 Q79 658 82 660 L354 660 Q272 566 201 506 Q130 446 126 444 Q98 419 97 400.5 Q96 382 98 382 Q110 361 135.5 357 Q161 353 164 354 Q302 354 302 354 Q297 248 260.5 180 Q224 112 177.5 74 Q131 36 96 20.5 Q61 5 60 6 Q34 -7 34 -26.5 Q34 -46 36 -49 Q49 -71 68.5 -70.5 Q88 -70 90 -69 Q197 -33 258.5 34.5 Q320 102 347.5 175.5 Q375 249 382 300 Q389 351 388 354 Q457 354 503.5 357.5 Q550 361 552 362 L552 28 Q562 -45 618 -64 Q674 -83 682 -81 L820 -81 Q876 -85 906 -56 Q936 -27 948.5 14 Q961 55 962.5 87.5 Q964 120 964 122 Q958 151 941 159 Q924 167 922 166 Q893 160 886.5 142 Q880 124 882 122 Q880 25 848 10 Q816 -5 812 -1 L702 -1 Q660 4 649 24.5 Q638 45 640 48 L640 366 Q827 378 816 378 Q827 360 832 354 Q862 316 866 314 Q885 290 902.5 293.5 Q920 297 922 300 Q939 321 935 342.5 Q931 364 930 366 Q810 516 763 573 Q716 630 718 628 Q695 643 677 636.5 Q659 630 658 628 Q640 607 647.5 590.5 Q655 574 658 574 Q693 534 725 494.5 Q757 455 760 452 Q657 443 581 439 Q505 435 502 436 Q405 430 326.5 430.5 Q248 431 244 432 Q229 429 232 432 Q233 441 240 444 Q337 529 393.5 592.5 Q450 656 452 660 L918 660 Q942 662 947.5 679.5 Q953 697 952 700 Q947 724 931.5 731 Q916 738 914 738 L526 738 Q473 834 474 832 Q455 851 436 848 Q417 845 416 844 Q394 827 399.5 811 Q405 795 408 794 Z" /><glyph glyph-name="uni5149" unicode="&#x5149;" d="M44 412 Q46 387 60.5 381.5 Q75 376 78 378 L314 378 Q307 244 283.5 187 Q260 130 246 120 Q210 75 143.5 43 Q77 11 70 10 Q43 0 42.5 -19 Q42 -38 44 -41 Q59 -69 79.5 -70 Q100 -71 102 -69 Q271 -10 331.5 98 Q392 206 396 378 L564 378 L564 64 Q572 -41 634.5 -59.5 Q697 -78 706 -73 L836 -73 Q891 -71 920 -37 Q949 -3 959.5 40.5 Q970 84 971 118 Q972 152 972 154 Q967 179 951.5 185 Q936 191 934 190 Q905 187 898.5 171.5 Q892 156 894 154 Q892 37 858.5 18.5 Q825 0 820 6 L726 6 Q662 9 653 36.5 Q644 64 648 68 L648 378 L934 378 Q955 380 959.5 394.5 Q964 409 964 412 Q959 438 945 445 Q931 452 930 452 L550 452 L550 786 Q544 807 526 813.5 Q508 820 506 820 Q477 815 470.5 801 Q464 787 466 786 L466 452 L82 452 Q57 446 50 430 Q43 414 44 412 ZM682 488 Q707 473 726 485 Q745 497 746 500 Q784 550 827 621 Q870 692 874 700 Q883 728 871.5 742.5 Q860 757 858 758 Q835 767 821.5 753.5 Q808 740 808 738 Q756 645 717.5 595.5 Q679 546 678 546 Q659 518 669 503 Q679 488 682 488 ZM322 492 Q345 510 342.5 531 Q340 552 338 554 Q217 744 216 746 Q193 767 174 763.5 Q155 760 154 758 Q132 738 137.5 720.5 Q143 703 146 702 Q196 631 228 574 Q260 517 262 514 Q281 487 300.5 488 Q320 489 322 492 Z" /><glyph glyph-name="uni514B" unicode="&#x514b;" d="M440 586 L224 586 Q148 583 136.5 547 Q125 511 130 506 L130 326 Q132 270 171 259.5 Q210 249 216 252 L306 252 Q302 172 265.5 121.5 Q229 71 181 43.5 Q133 16 97 5.5 Q61 -5 60 -5 Q37 -15 35.5 -33 Q34 -51 36 -53 Q46 -72 63 -75 Q80 -78 82 -77 Q189 -54 251.5 -2 Q314 50 343 108 Q372 166 380.5 208 Q389 250 388 252 L568 252 L568 10 Q571 -56 631.5 -70 Q692 -84 702 -81 L878 -81 Q917 -86 939 -60 Q961 -34 970.5 3 Q980 40 982 69 Q984 98 984 100 Q981 127 963.5 136.5 Q946 146 944 146 Q916 143 908.5 126.5 Q901 110 902 108 Q896 24 878 11 Q860 -2 858 2 L702 2 Q660 4 652.5 20.5 Q645 37 648 40 L648 252 L788 252 Q844 254 856 287.5 Q868 321 866 326 L866 510 Q863 567 826 577.5 Q789 588 784 586 L518 586 L528 672 L922 672 Q949 674 956.5 688.5 Q964 703 964 706 Q958 732 941 739 Q924 746 922 746 L538 746 L546 812 Q540 837 524 843 Q508 849 506 848 Q477 845 470.5 829.5 Q464 814 466 812 L458 746 L90 746 Q59 740 50.5 724 Q42 708 44 706 Q49 681 68 675.5 Q87 670 90 672 L450 672 L440 586 ZM208 358 L208 480 Q207 498 226 504 Q245 510 248 510 L756 510 Q779 508 784 496.5 Q789 485 788 484 L788 358 Q786 332 773.5 328 Q761 324 760 326 L244 326 Q218 328 212 342 Q206 356 208 358 Z" /><glyph glyph-name="uni514D" unicode="&#x514d;" d="M454 296 L262 296 Q232 295 227 311 Q222 327 224 330 L224 448 Q226 468 242.5 474 Q259 480 262 480 L474 480 Q469 464 470 460 Q461 367 457 330.5 Q453 294 454 296 ZM670 -81 L866 -81 Q947 -72 963 -5 Q979 62 976 72 Q970 102 953 110.5 Q936 119 934 118 Q902 115 895 96.5 Q888 78 890 76 Q891 15 863.5 7 Q836 -1 832 2 L678 2 Q630 5 621.5 26.5 Q613 48 616 52 L616 186 Q610 204 594 210 Q578 216 576 216 Q548 211 542 199 Q536 187 538 186 L538 16 Q546 -51 603.5 -67 Q661 -83 670 -81 ZM52 456 Q67 437 91 443 Q115 449 118 452 Q137 461 138 464 Q150 471 150 472 L150 296 Q151 238 183 227.5 Q215 217 220 220 L424 220 Q387 158 330.5 115 Q274 72 217 45.5 Q160 19 121.5 7 Q83 -5 82 -5 Q49 -19 45.5 -39 Q42 -59 44 -61 Q58 -84 82.5 -86 Q107 -88 110 -87 Q219 -56 297 -6 Q375 44 423.5 95.5 Q472 147 495 182.5 Q518 218 518 220 L832 220 Q879 222 889.5 262 Q900 302 898 308 L898 484 Q896 539 862.5 547.5 Q829 556 824 554 L612 554 Q679 668 678 672 Q699 736 657.5 752 Q616 768 608 766 L400 766 Q409 780 412 782 Q421 813 409.5 830 Q398 847 396 848 Q366 859 351.5 843 Q337 827 338 824 Q251 663 165.5 589.5 Q80 516 74 518 Q45 497 47 477 Q49 457 52 456 ZM784 296 L538 296 Q547 353 551.5 414 Q556 475 556 480 L784 480 Q812 480 816.5 463 Q821 446 820 444 L820 330 Q817 302 801.5 298 Q786 294 784 296 ZM584 664 Q563 628 539.5 592 Q516 556 514 554 L244 554 Q283 594 317 637 Q351 680 354 684 L568 684 Q588 682 584 680 Q587 669 584 664 Z" /><glyph glyph-name="uni5165" unicode="&#x5165;" d="M52 6 Q33 -12 43 -31.5 Q53 -51 56 -53 Q76 -71 94 -63 Q112 -55 114 -53 Q229 44 306 158.5 Q383 273 427.5 376.5 Q472 480 491 546.5 Q510 613 510 616 Q556 445 624 318.5 Q692 192 760 108.5 Q828 25 874 -16 Q920 -57 922 -57 Q945 -74 962 -68.5 Q979 -63 980 -61 Q1009 -5 958 16 Q809 127 711.5 323 Q614 519 556 664 Q522 736 478.5 776.5 Q435 817 404 832 Q379 840 370 815.5 Q361 791 374 776 Q431 738 452 700 Q408 518 342.5 387 Q277 256 210.5 171.5 Q144 87 98.5 46 Q53 5 52 6 Z" /><glyph glyph-name="uni5168" unicode="&#x5168;" d="M168 206 Q173 180 191 174 Q209 168 212 170 L478 170 L478 2 L110 2 Q81 0 74.5 -15 Q68 -30 70 -33 Q72 -59 89.5 -66 Q107 -73 110 -73 L926 -73 Q950 -67 955.5 -51 Q961 -35 960 -33 Q957 -7 942.5 -2 Q928 3 926 2 L556 2 L556 170 L820 170 Q844 172 851 187.5 Q858 203 858 206 Q852 230 835 237 Q818 244 816 244 L556 244 L556 394 L840 394 Q864 396 869.5 410.5 Q875 425 874 428 Q869 454 853.5 461 Q838 468 836 468 L184 468 Q156 462 148.5 446 Q141 430 142 428 Q147 403 164 397.5 Q181 392 184 394 L478 394 L478 244 L212 244 Q183 239 175 223.5 Q167 208 168 206 ZM902 468 Q933 455 948.5 468 Q964 481 964 484 Q970 512 953.5 528.5 Q937 545 934 546 Q792 607 705 675.5 Q618 744 616 750 Q602 759 600 762 Q559 800 540 808.5 Q521 817 522 816 Q508 814 491.5 800.5 Q475 787 474 786 Q460 769 444.5 754 Q429 739 428 738 Q308 633 204 587 Q100 541 94 542 Q61 525 59 507 Q57 489 60 488 Q73 463 96 464 Q119 465 122 468 Q291 532 408 620.5 Q525 709 530 718 Q658 594 775.5 531 Q893 468 902 468 Z" /><glyph glyph-name="uni516B" unicode="&#x516b;" d="M412 754 Q409 783 389.5 791 Q370 799 368 798 Q343 797 336 780.5 Q329 764 330 762 Q310 564 267 418.5 Q224 273 176.5 177 Q129 81 95 34 Q61 -13 60 -13 Q39 -43 48.5 -62.5 Q58 -82 62 -83 Q93 -92 115 -77.5 Q137 -63 138 -61 Q220 47 274 184.5 Q328 322 358 451.5 Q388 581 400 665.5 Q412 750 412 754 ZM960 -83 Q981 -61 973.5 -37.5 Q966 -14 964 -13 Q878 92 824 223.5 Q770 355 740.5 478.5 Q711 602 700 682.5 Q689 763 690 766 Q682 793 665.5 797 Q649 801 648 800 Q616 796 611 778 Q606 760 608 758 Q626 560 671.5 406.5 Q717 253 768 147 Q819 41 855.5 -13.5 Q892 -68 894 -69 Q919 -94 938.5 -89.5 Q958 -85 960 -83 Z" /><glyph glyph-name="uni516C" unicode="&#x516c;" d="M490 -37 Q623 -27 719 -16 Q815 -5 820 -5 Q863 -86 862 -83 Q881 -107 902.5 -106 Q924 -105 926 -103 Q949 -86 947.5 -66 Q946 -46 944 -45 Q876 77 800 189.5 Q724 302 718 310 Q698 328 678.5 322 Q659 316 658 314 Q637 290 642 273 Q647 256 650 256 Q784 69 780 60 Q573 36 421 29.5 Q269 23 262 24 Q237 21 240 24 Q246 37 252 44 Q372 180 451.5 314.5 Q531 449 534 460 Q543 493 531.5 509.5 Q520 526 518 526 Q488 535 473 520.5 Q458 506 458 504 Q419 421 366 339.5 Q313 258 261 190.5 Q209 123 174 82 Q139 41 138 40 Q110 13 109 -3.5 Q108 -20 110 -21 Q125 -38 152.5 -43.5 Q180 -49 184 -49 Q293 -45 388 -41 Q483 -37 490 -37 ZM36 288 Q57 269 80.5 275 Q104 281 106 284 Q192 340 254 420 Q316 500 355.5 578.5 Q395 657 413.5 710 Q432 763 432 766 Q438 797 422 810.5 Q406 824 404 824 Q374 830 361.5 813.5 Q349 797 350 794 Q273 563 169.5 457.5 Q66 352 56 354 Q28 328 30.5 308.5 Q33 289 36 288 ZM662 798 Q643 824 622 826.5 Q601 829 600 828 Q575 813 576 792.5 Q577 772 580 770 Q703 500 816.5 388 Q930 276 938 280 Q969 261 986 271 Q1003 281 1004 284 Q1013 310 998 331 Q983 352 980 354 Q907 407 848.5 481 Q790 555 748.5 627 Q707 699 684.5 747.5 Q662 796 662 798 Z" /><glyph glyph-name="uni516D" unicode="&#x516d;" d="M420 774 Q470 663 470 660 L86 660 Q58 654 52 636 Q46 618 48 616 Q50 588 66.5 582 Q83 576 86 578 L948 578 Q971 580 977.5 596.5 Q984 613 984 616 Q982 645 968 653 Q954 661 952 660 L568 660 Q544 718 523.5 763.5 Q503 809 502 812 Q482 839 461.5 838.5 Q441 838 440 836 Q412 816 414.5 795.5 Q417 775 420 774 ZM384 428 Q387 454 369.5 467 Q352 480 350 480 Q320 483 310.5 468.5 Q301 454 302 452 Q242 241 144 121 Q46 1 36 -1 Q19 -26 22.5 -45 Q26 -64 28 -65 Q50 -82 71 -76.5 Q92 -71 94 -69 Q171 -2 226.5 81.5 Q282 165 316.5 244 Q351 323 367.5 374.5 Q384 426 384 428 ZM608 476 Q586 448 593.5 428 Q601 408 604 408 Q654 347 702.5 266.5 Q751 186 790.5 108.5 Q830 31 853.5 -20 Q877 -71 878 -73 Q892 -96 913.5 -96 Q935 -96 938 -95 Q961 -79 963 -60.5 Q965 -42 964 -41 Q879 172 782.5 318.5 Q686 465 678 472 Q653 490 631 484 Q609 478 608 476 Z" /><glyph glyph-name="uni5171" unicode="&#x5171;" d="M62 620 Q64 592 79.5 586 Q95 580 98 582 L266 582 L266 342 L78 342 Q47 337 38.5 321.5 Q30 306 32 304 Q37 275 56 268.5 Q75 262 78 264 L934 264 Q958 266 965 283.5 Q972 301 972 304 Q967 328 951.5 335 Q936 342 934 342 L738 342 L738 582 L906 582 Q929 584 935.5 600.5 Q942 617 942 620 Q937 646 922 653 Q907 660 906 660 L738 660 L738 782 Q732 803 714 809.5 Q696 816 694 816 Q665 811 658.5 797 Q652 783 654 782 L654 660 L346 660 L346 782 Q340 806 324 813 Q308 820 306 820 Q277 815 270.5 799.5 Q264 784 266 782 L266 660 L98 660 Q72 654 66 638 Q60 622 62 620 ZM654 582 L654 342 L346 342 L346 582 L654 582 ZM980 -65 Q992 -34 983 -16.5 Q974 1 972 2 Q878 81 796.5 143.5 Q715 206 710 210 Q679 223 661.5 211.5 Q644 200 644 198 Q634 173 646.5 155.5 Q659 138 662 138 Q771 52 846.5 -7 Q922 -66 926 -69 Q949 -83 964 -75 Q979 -67 980 -65 ZM368 142 Q380 166 369 183.5 Q358 201 356 202 Q330 213 314 204.5 Q298 196 298 194 Q219 99 147 54 Q75 9 70 10 Q43 -9 44 -30 Q45 -51 48 -53 Q63 -79 85 -77 Q107 -75 110 -73 Q236 1 301.5 69 Q367 137 368 142 Z" /><glyph glyph-name="uni5173" unicode="&#x5173;" d="M94 570 Q96 544 113.5 538 Q131 532 134 534 L478 534 Q470 390 462 382 L114 382 Q85 376 78.5 358 Q72 340 74 338 Q76 310 93.5 304 Q111 298 114 300 L440 300 Q403 216 346 156.5 Q289 97 231.5 59 Q174 21 134.5 4 Q95 -13 94 -13 Q64 -27 62 -47 Q60 -67 62 -69 Q76 -92 99.5 -90.5 Q123 -89 126 -87 Q232 -45 308 16 Q384 77 431 138 Q478 199 500 240.5 Q522 282 522 284 Q570 185 636.5 117.5 Q703 50 767 10.5 Q831 -29 873.5 -47 Q916 -65 918 -65 Q952 -74 966 -60.5 Q980 -47 980 -45 Q988 -10 971.5 0 Q955 10 952 10 Q765 79 681.5 184 Q598 289 600 300 L952 300 Q978 302 985 318.5 Q992 335 992 338 Q986 367 970 375 Q954 383 952 382 L552 382 Q560 445 562 488.5 Q564 532 564 534 L942 534 Q966 536 971.5 551.5 Q977 567 976 570 Q973 594 958.5 601 Q944 608 942 608 L678 608 Q682 609 691 617.5 Q700 626 702 628 Q749 684 779.5 729.5 Q810 775 812 778 Q824 806 815 820.5 Q806 835 804 836 Q779 845 762.5 833.5 Q746 822 746 820 Q643 670 636 668 Q617 640 627 624 Q637 608 640 608 L134 608 Q105 603 98.5 587.5 Q92 572 94 570 ZM232 828 Q213 805 223 786 Q233 767 236 766 Q274 718 303 678 Q332 638 334 636 Q351 612 368.5 611 Q386 610 388 612 Q409 631 405.5 652.5 Q402 674 400 676 Q369 733 333 775 Q297 817 294 820 Q266 841 249 835.5 Q232 830 232 828 Z" /><glyph glyph-name="uni5174" unicode="&#x5174;" d="M542 424 Q566 432 571.5 454.5 Q577 477 576 480 Q544 628 510 712 Q476 796 474 798 Q455 821 436 819.5 Q417 818 416 816 Q391 800 394 781.5 Q397 763 400 762 Q449 663 471.5 568.5 Q494 474 494 468 Q502 433 520.5 427.5 Q539 422 542 424 ZM714 398 Q739 391 755 404 Q771 417 772 420 Q837 535 878.5 633 Q920 731 922 738 Q928 773 914 786.5 Q900 800 898 800 Q865 803 852 785.5 Q839 768 840 766 Q797 640 751 550 Q705 460 702 456 Q689 426 700 411.5 Q711 397 714 398 ZM302 402 Q324 417 323.5 437.5 Q323 458 322 460 Q268 595 215.5 668 Q163 741 160 742 Q139 755 122.5 751 Q106 747 106 746 Q90 727 95 711.5 Q100 696 102 696 Q170 609 210.5 520 Q251 431 252 424 Q264 400 282 400 Q300 400 302 402 ZM1000 326 Q995 352 980 359 Q965 366 964 366 L86 366 Q58 360 50.5 344 Q43 328 44 326 Q49 301 66 295.5 Q83 290 86 292 L964 292 Q987 294 993.5 308.5 Q1000 323 1000 326 ZM926 -91 Q946 -72 943 -53 Q940 -34 938 -33 Q862 70 788.5 147 Q715 224 710 228 Q682 244 665 239 Q648 234 648 232 Q632 211 641.5 194.5 Q651 178 654 178 Q736 95 799 14.5 Q862 -66 866 -73 Q888 -96 906 -94.5 Q924 -93 926 -91 ZM380 182 Q389 204 379.5 217.5 Q370 231 368 232 Q347 241 332.5 231.5 Q318 222 318 220 Q231 103 160.5 45 Q90 -13 86 -13 Q62 -35 64.5 -53 Q67 -71 70 -73 Q89 -90 110.5 -84.5 Q132 -79 134 -77 Q246 13 312 94.5 Q378 176 380 182 Z" /><glyph glyph-name="uni5176" unicode="&#x5176;" d="M742 656 L742 554 L302 554 L302 656 L742 656 ZM372 28 Q396 44 395 63 Q394 82 392 84 Q372 104 353.5 101 Q335 98 334 96 Q235 42 156.5 18.5 Q78 -5 74 -5 Q44 -15 41 -33 Q38 -51 40 -53 Q54 -77 74.5 -79.5 Q95 -82 98 -81 Q220 -40 294.5 -7 Q369 26 372 28 ZM984 -81 Q993 -53 983.5 -39 Q974 -25 972 -25 Q882 19 795 56 Q708 93 702 96 Q669 102 656 90 Q643 78 644 76 Q637 49 652 36 Q667 23 670 24 Q795 -18 864 -55 Q933 -92 934 -95 Q956 -104 969.5 -93.5 Q983 -83 984 -81 ZM742 308 L742 206 L302 206 L302 308 L742 308 ZM742 484 L742 378 L302 378 L302 484 L742 484 ZM98 726 Q72 721 66 707 Q60 693 62 692 Q64 666 79.5 660 Q95 654 98 656 L224 656 L224 206 L90 206 Q68 201 61.5 186 Q55 171 56 170 Q57 144 70.5 138 Q84 132 86 134 L960 134 Q977 136 982.5 151.5 Q988 167 988 170 Q983 193 972 199.5 Q961 206 960 206 L820 206 L820 656 L944 656 Q967 658 973.5 673.5 Q980 689 980 692 Q975 713 960 719.5 Q945 726 944 726 L820 726 L820 798 Q814 822 798 827.5 Q782 833 780 832 Q752 829 746 814.5 Q740 800 742 798 L742 726 L302 726 L302 800 Q296 823 280 829.5 Q264 836 262 836 Q234 831 228 816 Q222 801 224 800 L224 726 L98 726 Z" /><glyph glyph-name="uni5177" unicode="&#x5177;" d="M86 118 L952 118 Q972 120 978 135.5 Q984 151 984 154 Q979 180 966 187 Q953 194 952 194 L870 194 L870 692 Q861 754 823 769 Q785 784 780 782 L252 782 Q184 776 170 736.5 Q156 697 160 692 L160 194 L82 194 Q57 188 51.5 172 Q46 156 48 154 Q53 128 68.5 122 Q84 116 86 118 ZM960 -77 Q969 -52 959.5 -38.5 Q950 -25 948 -25 Q853 25 775.5 59.5 Q698 94 694 96 Q664 99 651.5 86.5 Q639 74 640 72 Q636 45 649.5 34 Q663 23 666 24 Q745 -5 824 -47.5 Q903 -90 910 -95 Q931 -101 945 -90 Q959 -79 960 -77 ZM342 20 Q362 42 357 60 Q352 78 350 80 Q327 101 309 93.5 Q291 86 290 84 Q230 36 153.5 13.5 Q77 -9 70 -9 Q45 -19 41.5 -37 Q38 -55 40 -57 Q51 -78 69.5 -81 Q88 -84 90 -83 Q183 -59 260 -21.5 Q337 16 342 20 ZM800 680 L800 632 L232 632 L232 684 Q231 702 243.5 706 Q256 710 258 710 L768 710 Q788 705 794 693 Q800 681 800 680 ZM232 484 L232 562 L800 562 L800 484 L232 484 ZM232 338 L232 416 L800 416 L800 338 L232 338 ZM800 194 L232 194 L232 264 L800 264 L800 194 Z" /><glyph glyph-name="uni517B" unicode="&#x517b;" d="M118 722 Q89 717 82.5 701.5 Q76 686 78 684 Q83 658 101 652 Q119 646 122 648 L482 648 Q473 606 471 597 Q469 588 470 590 L158 590 Q126 584 117 568 Q108 552 110 550 Q115 524 135 518 Q155 512 158 514 L454 514 Q435 462 432 456 L86 456 Q58 450 50.5 434 Q43 418 44 416 Q49 391 66 385.5 Q83 380 86 382 L368 382 Q293 309 190.5 261 Q88 213 78 212 Q47 202 40.5 183 Q34 164 36 162 Q44 139 65.5 137.5 Q87 136 90 138 Q141 151 210 185 Q279 219 286 224 Q293 226 294 228 Q288 95 252.5 27.5 Q217 -40 212 -41 Q193 -65 203 -81.5 Q213 -98 216 -99 Q246 -111 263.5 -100 Q281 -89 282 -87 Q344 0 359 105 Q374 210 372 220 Q370 246 358.5 253 Q347 260 346 260 Q404 300 436.5 339.5 Q469 379 470 382 L580 382 Q624 322 665.5 285.5 Q707 249 710 248 Q697 226 702 216 L702 -65 Q704 -92 721.5 -99.5 Q739 -107 742 -107 Q766 -101 773 -84 Q780 -67 780 -65 L780 206 Q832 176 879 166.5 Q926 157 930 158 Q954 157 963 172 Q972 187 972 190 Q969 215 954.5 225.5 Q940 236 938 236 Q814 263 742.5 319 Q671 375 670 382 L934 382 Q952 384 958 398.5 Q964 413 964 416 Q959 442 947 449 Q935 456 934 456 L514 456 Q526 486 526 492 Q530 509 534 514 L886 514 Q912 516 919 531.5 Q926 547 926 550 Q920 576 904 583 Q888 590 886 590 L552 590 Q559 656 560 648 L922 648 Q946 650 953 665.5 Q960 681 960 684 Q955 708 939.5 715 Q924 722 922 722 L730 722 Q745 747 748 754 Q765 778 764 778 Q773 801 763.5 816 Q754 831 752 832 Q731 844 716.5 835 Q702 826 702 824 Q633 726 636 722 L428 722 Q395 768 365.5 797.5 Q336 827 334 828 Q312 840 295 833 Q278 826 278 824 Q265 804 274 791 Q283 778 286 778 Q301 758 315 740.5 Q329 723 330 722 L118 722 Z" /><glyph glyph-name="uni517D" unicode="&#x517d;" d="M274 840 Q245 852 228.5 843 Q212 834 212 832 Q199 806 212 792 Q225 778 228 778 Q239 766 244 766 Q300 721 306 718 L172 718 Q119 713 109 682.5 Q99 652 102 648 L102 406 Q103 351 135 343 Q167 335 172 338 L858 338 Q909 337 920.5 369 Q932 401 930 406 L930 648 Q928 700 895 710 Q862 720 858 718 L726 718 Q743 734 760.5 755 Q778 776 780 778 Q784 782 788 786 Q803 809 794.5 824 Q786 839 784 840 Q759 852 742.5 843 Q726 834 726 832 Q665 765 640 740.5 Q615 716 616 718 L396 718 Q400 728 389 744 Q378 760 376 762 Q339 794 307.5 816.5 Q276 839 274 840 ZM176 616 Q178 636 192 642 Q206 648 208 648 L478 648 L478 566 L176 566 L176 616 ZM910 -33 L910 76 Q906 131 883.5 141.5 Q861 152 858 150 L180 150 Q133 146 126 122.5 Q119 99 122 96 L122 -13 Q123 -66 153 -77.5 Q183 -89 188 -87 L846 -87 Q886 -79 898.5 -57 Q911 -35 910 -33 ZM196 2 L196 56 Q195 73 212 76.5 Q229 80 232 80 L812 80 Q829 78 832.5 65.5 Q836 53 836 52 L836 2 Q834 -11 823.5 -14 Q813 -17 812 -17 L220 -17 Q200 -15 197 -7.5 Q194 0 196 2 ZM992 244 Q989 267 973.5 273.5 Q958 280 956 280 L74 280 Q46 275 38.5 260 Q31 245 32 244 Q37 219 54 213.5 Q71 208 74 210 L956 210 Q981 212 987 226.5 Q993 241 992 244 ZM176 496 L478 496 L478 408 L208 408 Q185 409 180 421.5 Q175 434 176 436 L176 496 ZM854 566 L552 566 L552 648 L828 648 Q844 643 849 630 Q854 617 854 616 L854 566 ZM854 436 Q849 415 839 411 Q829 407 828 408 L552 408 L552 496 L854 496 L854 436 Z" /><glyph glyph-name="uni5185" unicode="&#x5185;" d="M490 644 L192 644 Q122 641 110 606 Q98 571 102 566 L102 -41 Q104 -66 121.5 -72 Q139 -78 142 -77 Q169 -74 176.5 -58.5 Q184 -43 184 -41 L184 518 Q184 552 204 559.5 Q224 567 228 566 L482 566 Q467 469 428 401 Q389 333 344 290.5 Q299 248 266 228.5 Q233 209 232 210 Q204 190 204.5 170.5 Q205 151 208 150 Q225 125 246.5 130 Q268 135 270 138 Q405 222 458.5 293.5 Q512 365 510 370 Q644 268 708 207.5 Q772 147 772 146 Q800 122 821 126.5 Q842 131 844 134 Q857 159 847.5 181.5 Q838 204 836 206 Q729 304 636.5 372.5 Q544 441 538 444 Q548 485 553.5 524 Q559 563 560 566 L828 566 Q852 565 857.5 543 Q863 521 862 518 L862 36 Q855 -1 787 11 Q719 23 710 28 Q677 31 663 17.5 Q649 4 650 2 Q648 -24 665.5 -38 Q683 -52 686 -53 Q854 -93 900.5 -53.5 Q947 -14 942 -5 L942 546 Q937 621 896 634 Q855 647 850 644 L568 644 Q571 696 573 741.5 Q575 787 576 790 Q570 820 553 828.5 Q536 837 534 836 Q505 833 498.5 814.5 Q492 796 494 794 Q493 770 491.5 745 Q490 720 490 718 Q487 646 490 644 Z" /><glyph glyph-name="uni518C" unicode="&#x518c;" d="M74 382 L138 382 L138 322 Q130 192 93.5 89 Q57 -14 52 -21 Q39 -51 48 -66.5 Q57 -82 60 -83 Q88 -89 104.5 -76 Q121 -63 122 -61 Q184 70 201 189.5 Q218 309 216 318 L216 382 L380 382 L380 20 Q379 -7 339.5 2.5 Q300 12 294 16 Q265 22 252 11.5 Q239 1 240 -1 Q236 -25 251.5 -38.5 Q267 -52 270 -53 Q339 -79 378 -73 Q417 -67 434 -45.5 Q451 -24 454.5 -5 Q458 14 458 16 L458 382 L546 382 L546 300 Q538 115 530 114 Q519 59 501 22 Q483 -15 482 -17 Q467 -49 479 -65 Q491 -81 494 -81 Q524 -88 539.5 -72 Q555 -56 556 -53 Q604 45 615 166.5 Q626 288 624 300 L624 382 L808 382 L808 36 Q806 11 797.5 5 Q789 -1 788 -1 Q773 -2 748.5 3 Q724 8 722 10 Q686 15 673.5 4.5 Q661 -6 662 -9 Q662 -36 682 -50 Q702 -64 706 -65 Q778 -88 816.5 -78.5 Q855 -69 869 -43.5 Q883 -18 884.5 4 Q886 26 886 28 L886 382 L938 382 Q971 384 980 400.5 Q989 417 988 420 Q979 449 957.5 457 Q936 465 934 464 L886 464 L886 734 Q879 781 849.5 793 Q820 805 816 804 L620 804 Q564 799 553.5 764.5 Q543 730 546 726 L546 464 L458 464 L458 734 Q456 786 426 796 Q396 806 392 804 L208 804 Q157 799 146 764.5 Q135 730 138 726 L138 464 L74 464 Q49 458 43.5 440 Q38 422 40 420 Q42 392 56.5 386 Q71 380 74 382 ZM244 726 L356 726 Q386 710 380 700 L380 464 L216 464 L216 700 Q215 718 228 722 Q241 726 244 726 ZM654 726 L780 726 Q800 723 804 708.5 Q808 694 808 692 L808 464 L624 464 L624 696 Q625 717 638.5 721.5 Q652 726 654 726 Z" /><glyph glyph-name="uni518D" unicode="&#x518d;" d="M212 616 Q161 609 150 579.5 Q139 550 142 546 L142 236 L70 236 Q42 231 34.5 217 Q27 203 28 202 Q30 176 46.5 170 Q63 164 66 166 L142 166 L142 -41 Q144 -71 158.5 -79.5 Q173 -88 176 -87 Q202 -81 209 -62 Q216 -43 216 -41 L216 166 L824 166 L824 60 Q832 21 806.5 8.5 Q781 -4 743 -2 Q705 0 675 6.5 Q645 13 644 14 Q614 16 602.5 4.5 Q591 -7 592 -9 Q588 -35 604.5 -46 Q621 -57 624 -57 Q750 -85 798 -80 Q846 -75 844 -73 Q882 -51 890.5 1 Q899 53 898 60 L898 166 L972 166 Q992 168 996 183.5 Q1000 199 1000 202 Q995 223 982 229.5 Q969 236 968 236 L898 236 L898 542 Q895 597 856 607.5 Q817 618 812 616 L560 616 L560 700 L948 700 Q971 702 977.5 716.5 Q984 731 984 734 Q979 760 964 767 Q949 774 948 774 L94 774 Q69 768 62 752 Q55 736 56 734 Q58 709 72.5 703.5 Q87 698 90 700 L482 700 L482 616 L212 616 ZM262 546 L482 546 L482 428 L216 428 L216 506 Q221 532 240 539 Q259 546 262 546 ZM216 236 L216 358 L482 358 L482 236 L216 236 ZM560 236 L560 358 L824 358 L824 236 L560 236 ZM824 510 L824 428 L560 428 L560 546 L776 546 Q807 541 816 526 Q825 511 824 510 Z" /><glyph glyph-name="uni5199" unicode="&#x5199;" d="M278 264 L832 264 Q847 259 850.5 248 Q854 237 854 236 Q842 88 827.5 46.5 Q813 5 812 10 Q790 -16 737 -11.5 Q684 -7 678 -5 Q647 -2 635 -16 Q623 -30 624 -33 Q620 -62 637.5 -72.5 Q655 -83 658 -83 Q782 -107 827 -82.5 Q872 -58 870 -53 Q890 -29 904 22 Q918 73 926.5 129.5 Q935 186 938.5 226 Q942 266 942 268 Q940 323 903.5 333.5 Q867 344 862 342 L338 342 Q312 344 310 358 Q308 372 310 374 L334 496 L788 496 Q817 498 825 514.5 Q833 531 832 534 Q826 560 808 567 Q790 574 788 574 L346 574 L360 640 Q360 669 346 680.5 Q332 692 330 692 Q297 695 287 678.5 Q277 662 278 660 L216 342 Q204 283 237.5 272 Q271 261 278 264 ZM882 798 L138 798 Q79 794 69 760 Q59 726 62 722 L62 602 Q64 576 81.5 570 Q99 564 102 566 Q128 568 135 583.5 Q142 599 142 602 L142 692 Q141 710 155 716 Q169 722 172 722 L844 722 Q872 722 864.5 683.5 Q857 645 854 640 Q845 608 856 594.5 Q867 581 870 582 Q897 578 911 593.5 Q925 609 926 612 Q971 749 931 776.5 Q891 804 882 798 ZM792 112 Q787 136 774 143 Q761 150 760 150 L66 150 Q38 145 32 129.5 Q26 114 28 112 Q30 86 46.5 80 Q63 74 66 76 L760 76 Q780 78 786 93.5 Q792 109 792 112 Z" /><glyph glyph-name="uni51A0" unicode="&#x51a0;" d="M158 628 L158 700 Q157 721 173 725.5 Q189 730 192 730 L858 730 Q892 727 896 712.5 Q900 698 898 696 Q897 685 891.5 671 Q886 657 886 656 Q886 651 886 652 Q876 622 887.5 609.5 Q899 597 902 598 Q929 588 942.5 600.5 Q956 613 956 616 Q976 648 980 683.5 Q984 719 984 722 Q975 778 935 792 Q895 806 890 804 L146 804 Q94 797 84.5 769 Q75 741 78 738 L78 628 Q80 600 97.5 594 Q115 588 118 590 Q144 592 151 608.5 Q158 625 158 628 ZM776 174 Q774 128 708 132.5 Q642 137 632 142 Q602 142 592.5 126 Q583 110 584 108 Q583 76 598 67 Q613 58 616 60 Q714 42 765 55.5 Q816 69 834.5 96 Q853 123 854 145.5 Q855 168 854 170 L854 476 L944 476 Q967 478 973.5 494.5 Q980 511 980 514 Q975 540 960 547 Q945 554 944 554 L854 554 L854 632 Q849 657 833.5 663 Q818 669 816 668 Q787 665 780.5 649.5 Q774 634 776 632 L776 554 L556 554 Q528 548 522 532 Q516 516 518 514 Q520 486 536.5 480 Q553 474 556 476 L776 476 L776 174 ZM486 594 Q483 618 468.5 625 Q454 632 452 632 L216 632 Q190 627 184 611.5 Q178 596 180 594 Q182 568 197.5 562 Q213 556 216 558 L452 558 Q476 560 481.5 575.5 Q487 591 486 594 ZM48 -9 Q29 -30 35 -47 Q41 -64 44 -65 Q64 -79 82 -74.5 Q100 -70 102 -69 Q167 -18 202 57 Q237 132 251.5 208 Q266 284 268 335.5 Q270 387 270 390 L354 390 L354 68 Q348 10 373.5 -20 Q399 -50 436 -62 Q473 -74 502.5 -75.5 Q532 -77 534 -77 L772 -77 Q856 -80 900 -55.5 Q944 -31 961 4 Q978 39 979.5 66.5 Q981 94 980 96 Q974 117 957 123.5 Q940 130 938 130 Q906 128 899 114.5 Q892 101 894 100 Q891 24 833.5 11.5 Q776 -1 768 2 L546 2 Q453 4 438 39 Q423 74 428 80 L428 390 L478 390 Q498 392 504 406.5 Q510 421 510 424 Q505 450 492 457 Q479 464 478 464 L114 464 Q90 458 83.5 442 Q77 426 78 424 Q82 399 97 393.5 Q112 388 114 390 L192 390 Q185 186 121 88.5 Q57 -9 48 -9 ZM670 194 Q692 207 693.5 226.5 Q695 246 694 248 Q668 314 646.5 360 Q625 406 624 408 Q604 427 586.5 424 Q569 421 568 420 Q550 407 552 391 Q554 375 556 374 Q578 321 600 268.5 Q622 216 624 212 Q634 188 651 189.5 Q668 191 670 194 Z" /><glyph glyph-name="uni51AC" unicode="&#x51ac;" d="M98 598 Q71 575 73 553 Q75 531 78 530 Q98 509 121 514 Q144 519 146 522 Q204 558 249.5 597 Q295 636 298 640 Q338 578 388.5 528 Q439 478 444 476 Q322 407 202.5 365 Q83 323 74 322 Q45 306 47 282 Q49 258 52 256 Q67 228 91 228.5 Q115 229 118 232 Q287 291 402 353 Q517 415 522 420 Q676 316 801 271 Q926 226 934 228 Q964 222 976 241 Q988 260 988 264 Q988 296 969 307 Q950 318 948 318 Q790 359 692 412.5 Q594 466 592 472 Q692 551 745.5 613.5 Q799 676 800 680 Q834 754 795 775 Q756 796 748 794 L432 794 Q441 819 427.5 835 Q414 851 412 852 Q382 861 367.5 847.5 Q353 834 354 832 Q290 739 198.5 670 Q107 601 98 598 ZM678 146 Q684 176 672 192.5 Q660 209 658 210 Q583 251 520 277 Q457 303 454 304 Q419 309 405 295.5 Q391 282 392 280 Q386 250 403 236.5 Q420 223 424 224 Q490 198 554.5 165.5 Q619 133 624 130 Q649 119 663 131 Q677 143 678 146 ZM208 60 Q207 26 226 17 Q245 8 248 10 Q476 -10 623 -57.5 Q770 -105 776 -111 Q806 -117 821 -100.5 Q836 -84 836 -81 Q840 -48 823 -34 Q806 -20 804 -21 Q615 37 446 68 Q277 99 266 100 Q232 97 219.5 79.5 Q207 62 208 60 ZM682 672 Q623 603 574 564.5 Q525 526 522 526 Q458 573 410 633.5 Q362 694 360 700 Q369 706 372 710 L666 710 Q698 702 694 700 Q691 677 682 672 Z" /><glyph glyph-name="uni51B2" unicode="&#x51b2;" d="M232 322 Q232 348 219 359 Q206 370 204 370 Q174 370 165.5 357 Q157 344 158 342 Q124 184 87.5 93.5 Q51 3 48 2 Q38 -21 48.5 -36.5 Q59 -52 62 -53 Q89 -62 103 -50.5 Q117 -39 118 -37 Q173 70 202 190.5 Q231 311 232 322 ZM176 472 Q199 477 204 492.5 Q209 508 208 510 Q194 598 176.5 679 Q159 760 158 766 Q147 788 129 789.5 Q111 791 110 790 Q84 779 84 763 Q84 747 86 746 Q136 514 138 504 Q143 478 158.5 474 Q174 470 176 472 ZM290 590 L290 260 Q293 195 333.5 182.5 Q374 170 380 174 L588 174 L588 -77 Q590 -101 607.5 -106.5 Q625 -112 628 -111 Q655 -106 662.5 -90.5 Q670 -75 670 -73 L670 174 L870 174 Q943 174 957 213.5 Q971 253 968 260 L968 590 Q962 663 922.5 677 Q883 691 878 688 L670 688 L670 800 Q664 826 647 833 Q630 840 628 840 Q599 834 592.5 817 Q586 800 588 798 L588 688 L380 688 Q310 684 298 640 Q286 596 290 590 ZM372 562 Q372 595 392 602 Q412 609 416 608 L588 608 L588 252 L420 252 Q380 249 374.5 270.5 Q369 292 372 296 L372 562 ZM846 252 L670 252 L670 608 L840 608 Q873 605 880 588.5 Q887 572 886 570 L886 288 Q880 262 864 256 Q848 250 846 252 Z" /><glyph glyph-name="uni51B3" unicode="&#x51b3;" d="M188 440 Q210 454 209.5 477.5 Q209 501 208 504 Q158 639 133.5 691.5 Q109 744 110 742 Q90 767 73.5 767 Q57 767 56 766 Q34 749 37.5 730 Q41 711 44 710 Q137 479 138 476 Q149 444 167.5 441 Q186 438 188 440 ZM270 334 Q273 366 261.5 380 Q250 394 248 394 Q215 394 205 375 Q195 356 196 354 Q156 198 106 103 Q56 8 52 6 Q36 -23 44.5 -39.5 Q53 -56 56 -57 Q79 -69 97.5 -56 Q116 -43 118 -41 Q183 64 225.5 193 Q268 322 270 334 ZM302 660 Q304 634 321.5 628 Q339 622 342 624 L518 624 L518 394 L310 394 Q286 389 279.5 374 Q273 359 274 358 Q278 332 293 326 Q308 320 310 322 L514 322 Q494 234 448.5 170.5 Q403 107 352.5 66.5 Q302 26 265.5 6.5 Q229 -13 228 -13 Q200 -29 200.5 -50 Q201 -71 204 -73 Q223 -90 245.5 -86 Q268 -82 270 -81 Q443 18 507 128 Q571 238 568 248 Q603 166 659 104 Q715 42 772.5 -0.5 Q830 -43 869 -64.5 Q908 -86 910 -87 Q941 -102 958 -92.5 Q975 -83 976 -81 Q987 -53 973 -37 Q959 -21 956 -21 Q764 79 684.5 195 Q605 311 608 322 L952 322 Q975 324 981.5 339.5 Q988 355 988 358 Q983 381 968 387.5 Q953 394 952 394 L874 394 L874 612 Q869 672 834.5 685 Q800 698 796 696 L592 696 L592 808 Q586 828 570 834 Q554 840 552 840 Q527 835 521.5 822 Q516 809 518 808 L518 696 L342 696 Q313 691 306.5 676 Q300 661 302 660 ZM800 566 L800 394 L592 394 L592 624 L752 624 Q789 623 795 596.5 Q801 570 800 566 Z" /><glyph glyph-name="uni51C6" unicode="&#x51c6;" d="M506 832 Q476 838 464.5 822 Q453 806 454 804 Q395 661 306 577 Q217 493 208 492 Q183 472 184 452.5 Q185 433 188 432 Q204 408 223 410.5 Q242 413 244 416 Q277 434 310 465 Q343 496 346 500 L346 -61 Q348 -85 362.5 -92 Q377 -99 380 -99 Q409 -94 417 -78.5 Q425 -63 424 -61 L424 -57 L956 -57 Q979 -51 985.5 -35 Q992 -19 992 -17 Q987 5 972 10.5 Q957 16 956 16 L710 16 L710 154 L938 154 Q956 156 962 171.5 Q968 187 968 190 Q963 214 949 221 Q935 228 934 228 L710 228 L710 366 L930 366 Q948 368 954 383.5 Q960 399 960 402 Q955 426 943 433 Q931 440 930 440 L710 440 L710 566 L948 566 Q968 568 974 584.5 Q980 601 980 604 Q975 630 962 637 Q949 644 948 644 L718 644 Q728 657 726 664 Q689 803 682 808 Q665 830 645 829.5 Q625 829 624 828 Q601 811 601.5 795 Q602 779 604 778 Q640 654 640 644 L466 644 Q539 769 534 778 Q537 806 522.5 819 Q508 832 506 832 ZM452 566 L632 566 L632 440 L424 440 L424 534 Q423 557 436 562 Q449 567 452 566 ZM632 366 L632 228 L424 228 L424 366 L632 366 ZM150 542 Q157 516 173.5 516 Q190 516 192 518 Q217 534 221 553 Q225 572 224 574 Q201 655 180 711 Q159 767 158 770 Q138 790 118.5 790.5 Q99 791 98 790 Q73 773 76 754 Q79 735 82 734 Q98 695 119 630 Q140 565 142 558 Q149 541 150 542 ZM294 292 Q297 317 282.5 329.5 Q268 342 266 342 Q235 348 225 334 Q215 320 216 318 Q176 176 117 85.5 Q58 -5 52 -9 Q33 -34 43 -53 Q53 -72 56 -73 Q79 -83 97.5 -71 Q116 -59 118 -57 Q203 52 248 167 Q293 282 294 292 ZM424 154 L632 154 L632 16 L424 16 L424 154 Z" /><glyph glyph-name="uni51CC" unicode="&#x51cc;" d="M564 612 L286 612 Q261 607 254 593 Q247 579 248 578 Q252 552 266 546 Q280 540 282 542 L938 542 Q959 544 965.5 558 Q972 572 972 574 Q967 598 955 605 Q943 612 942 612 L640 612 L640 680 L882 680 Q908 682 915 696.5 Q922 711 922 714 Q916 737 900 743.5 Q884 750 882 750 L640 750 L640 786 Q634 804 618 810 Q602 816 600 816 Q574 814 568 802.5 Q562 791 564 790 L564 750 L342 750 Q310 745 301 730 Q292 715 294 714 Q299 689 317 683.5 Q335 678 338 680 L564 680 L564 612 ZM248 334 Q251 369 236.5 381.5 Q222 394 220 394 Q190 397 180.5 379 Q171 361 172 358 Q131 178 89 93.5 Q47 9 44 10 Q31 -13 38 -28.5 Q45 -44 48 -45 Q74 -57 91.5 -48 Q109 -39 110 -37 Q172 68 209.5 195 Q247 322 248 334 ZM176 472 Q199 477 204 494 Q209 511 208 514 Q194 604 176.5 682 Q159 760 158 766 Q147 788 129 789.5 Q111 791 110 790 Q84 779 84 763 Q84 747 86 746 Q110 643 123.5 575.5 Q137 508 138 506 Q143 481 158.5 475.5 Q174 470 176 472 ZM256 292 Q274 276 295 281 Q316 286 318 288 Q396 339 451.5 395 Q507 451 510 456 Q522 480 513 496.5 Q504 513 502 514 Q477 526 462.5 517 Q448 508 448 506 Q384 428 328.5 389 Q273 350 270 350 Q246 330 249.5 311.5 Q253 293 256 292 ZM898 300 Q922 278 938.5 283.5 Q955 289 956 292 Q971 312 962.5 332 Q954 352 952 354 Q863 439 805.5 480.5 Q748 522 746 522 Q716 531 701 521.5 Q686 512 686 510 Q676 484 689.5 470 Q703 456 706 456 Q771 413 832 359 Q893 305 898 300 ZM244 96 Q262 77 283 81 Q304 85 306 88 Q339 109 375.5 141.5 Q412 174 416 178 Q464 104 498 69.5 Q532 35 534 36 Q422 6 335 -3.5 Q248 -13 244 -13 Q212 -18 203 -34 Q194 -50 196 -53 Q204 -80 224.5 -86 Q245 -92 248 -91 Q396 -80 497.5 -44.5 Q599 -9 604 -5 Q701 -52 810.5 -75.5 Q920 -99 930 -99 Q957 -96 964.5 -81.5 Q972 -67 972 -65 Q972 -38 956 -31 Q940 -24 938 -25 Q828 -8 754 13 Q680 34 678 36 Q752 95 793.5 158.5 Q835 222 836 228 Q854 298 820 317 Q786 336 780 334 L538 334 Q546 358 535 373.5 Q524 389 522 390 Q497 396 481.5 384 Q466 372 466 370 Q393 258 327.5 205.5 Q262 153 258 154 Q234 132 237.5 114.5 Q241 97 244 96 ZM612 76 Q557 116 514.5 173 Q472 230 470 236 Q479 247 482 252 Q494 264 494 264 L726 264 Q755 258 752 252 Q752 232 746 224 Q700 150 657.5 113 Q615 76 612 76 Z" /><glyph glyph-name="uni51CF" unicode="&#x51cf;" d="M286 648 L286 342 Q275 190 239.5 89 Q204 -12 200 -17 Q190 -38 203.5 -49 Q217 -60 220 -61 Q246 -65 258 -55.5 Q270 -46 270 -45 Q332 76 349 203.5 Q366 331 364 342 L364 628 Q365 645 377.5 650.5 Q390 656 392 656 L670 656 Q670 564 675.5 497.5 Q681 431 682 428 Q692 347 704 278.5 Q716 210 718 206 Q635 113 553.5 56.5 Q472 0 466 -1 Q442 -17 445.5 -36 Q449 -55 452 -57 Q470 -77 489 -77.5 Q508 -78 510 -77 Q616 -8 680 50 Q744 108 746 112 Q795 -37 837 -74.5 Q879 -112 882 -107 Q912 -99 932 -57.5 Q952 -16 963.5 35.5 Q975 87 979.5 125.5 Q984 164 984 166 Q979 189 964 197.5 Q949 206 948 206 Q923 204 916 191.5 Q909 179 910 178 Q903 140 902 138 Q892 48 883 29 Q874 10 874 14 Q847 41 827.5 107 Q808 173 808 182 Q880 285 912 349.5 Q944 414 944 416 Q951 440 941.5 453.5 Q932 467 930 468 Q903 480 890 471 Q877 462 878 460 Q833 361 806.5 323.5 Q780 286 780 288 Q768 360 762 410.5 Q756 461 756 464 Q750 532 748.5 592 Q747 652 748 656 L866 656 Q875 633 886 614 Q897 595 898 594 Q914 574 930 575 Q946 576 948 578 Q967 591 966 608.5 Q965 626 964 628 Q942 679 902 746 Q862 813 858 820 Q840 836 824.5 834.5 Q809 833 808 832 Q786 818 788 804.5 Q790 791 792 790 Q802 770 814 752.5 Q826 735 828 734 L746 734 L746 820 Q740 840 724 846 Q708 852 706 852 Q677 847 670.5 834 Q664 821 666 820 L666 734 L372 734 Q312 723 297.5 687.5 Q283 652 286 648 ZM654 530 Q649 556 637 563 Q625 570 624 570 L428 570 Q399 564 392.5 548 Q386 532 388 530 Q390 505 407.5 499.5 Q425 494 428 496 L624 496 Q642 498 648 512.5 Q654 527 654 530 ZM640 206 L640 370 Q630 412 602.5 424.5 Q575 437 572 436 L474 436 Q432 429 421 401 Q410 373 412 370 L412 212 Q416 153 448.5 142 Q481 131 486 134 L568 134 Q617 138 629 169.5 Q641 201 640 206 ZM482 224 L482 346 Q492 368 502 366 L550 366 Q569 351 568 342 L568 224 Q557 201 546 206 L506 206 Q476 215 482 224 ZM52 -77 Q75 -85 90 -76 Q105 -67 106 -65 Q138 -18 164.5 46.5 Q191 111 210.5 173.5 Q230 236 240.5 278 Q251 320 252 322 Q252 351 239 362.5 Q226 374 224 374 Q194 377 184.5 360.5 Q175 344 176 342 Q137 168 92 72.5 Q47 -23 44 -25 Q31 -46 40 -61 Q49 -76 52 -77 ZM224 480 Q243 496 244 514 Q245 532 244 534 Q205 639 170.5 701.5 Q136 764 134 766 Q114 785 96.5 782 Q79 779 78 778 Q60 761 64 746 Q68 731 70 730 Q108 659 140.5 584.5 Q173 510 176 504 Q186 478 204 478 Q222 478 224 480 Z" /><glyph glyph-name="uni51E0" unicode="&#x51e0;" d="M56 10 Q37 -5 41 -24 Q45 -43 48 -45 Q68 -69 84.5 -66 Q101 -63 102 -61 Q185 9 229 96.5 Q273 184 290 265.5 Q307 347 309 400.5 Q311 454 310 456 L310 680 Q309 707 326 713 Q343 719 346 718 L650 718 Q684 717 691.5 690.5 Q699 664 698 660 L698 48 Q706 -63 804 -65 L890 -65 Q961 -57 970.5 39.5 Q980 136 976 232 Q971 257 955.5 263 Q940 269 938 268 Q912 265 906 249.5 Q900 234 902 232 Q905 128 896 69.5 Q887 11 840 10 Q772 11 776 72 L776 672 Q775 771 731.5 787 Q688 803 682 798 L330 798 Q249 797 238 744.5 Q227 692 232 684 L232 456 Q229 329 211.5 261.5 Q194 194 192 194 Q158 118 109 65 Q60 12 56 10 Z" /><glyph glyph-name="uni51E4" unicode="&#x51e4;" d="M600 504 Q579 409 549.5 343.5 Q520 278 518 276 Q480 308 478 310 Q328 466 326 464 Q298 479 284 472.5 Q270 466 270 464 Q256 439 265.5 422.5 Q275 406 278 406 Q329 356 396 284.5 Q463 213 470 206 Q391 116 321.5 66 Q252 16 248 16 Q222 4 222 -11.5 Q222 -27 224 -29 Q240 -48 260 -45 Q280 -42 282 -41 Q377 6 447.5 70.5 Q518 135 522 142 Q562 94 604 41 Q646 -12 650 -17 Q666 -35 685 -31 Q704 -27 706 -25 Q722 -6 717 8.5 Q712 23 710 24 Q667 88 619.5 146.5 Q572 205 568 210 Q633 337 656 429 Q679 521 678 526 Q681 580 647 592 Q613 604 608 602 L278 602 Q250 596 244 580 Q238 564 240 562 Q242 536 258.5 530 Q275 524 278 526 L576 526 Q603 512 600 504 ZM44 -95 Q67 -103 84 -87.5 Q101 -72 102 -69 Q133 -9 150.5 67 Q168 143 175 215.5 Q182 288 183 336 Q184 384 184 386 L184 692 Q186 708 200 713 Q214 718 216 718 L746 718 Q767 716 771.5 704.5 Q776 693 776 692 L776 300 Q777 158 798.5 77 Q820 -4 848.5 -42 Q877 -80 898.5 -90 Q920 -100 922 -99 Q945 -106 957.5 -76.5 Q970 -47 975.5 -4.5 Q981 38 982.5 72 Q984 106 984 108 Q979 129 966 135.5 Q953 142 952 142 Q927 142 921.5 129 Q916 116 918 114 Q917 43 910 29.5 Q903 16 902 20 Q884 36 874 80 Q864 124 859.5 174.5 Q855 225 854 261.5 Q853 298 854 300 L854 718 Q852 776 820 788 Q788 800 784 798 L164 798 Q122 794 114.5 767.5 Q107 741 110 738 L110 386 Q108 181 74.5 74.5 Q41 -32 36 -33 Q23 -65 32 -80 Q41 -95 44 -95 Z" /><glyph glyph-name="uni51EF" unicode="&#x51ef;" d="M388 366 L388 300 Q386 277 373.5 273.5 Q361 270 360 272 L138 272 Q86 267 74.5 236.5 Q63 206 66 202 L66 -1 Q62 -75 107 -80 Q152 -85 160 -81 Q264 -58 343.5 -34 Q423 -10 428 -9 Q460 6 465.5 22 Q471 38 470 40 Q455 65 432.5 65 Q410 65 408 64 Q302 27 236 14 Q170 1 168 2 Q146 -1 143 10 Q140 21 142 24 L142 170 Q141 190 153.5 194 Q166 198 168 198 L392 198 Q444 197 454 229.5 Q464 262 462 268 L462 398 Q460 450 428 460 Q396 470 392 468 L102 468 Q73 462 66.5 446 Q60 430 62 428 Q64 403 81.5 397.5 Q99 392 102 394 L360 394 Q380 389 384 378 Q388 367 388 366 ZM130 660 L130 742 Q124 771 108 779 Q92 787 90 786 Q62 780 56 762 Q50 744 52 742 L52 624 Q51 562 83.5 552 Q116 542 122 546 L400 546 Q461 546 472.5 585.5 Q484 625 482 632 L482 750 Q477 775 461.5 781 Q446 787 444 786 Q415 783 408.5 767.5 Q402 752 404 750 L404 652 Q402 629 389.5 624 Q377 619 376 620 L306 620 L306 804 Q300 829 284 835 Q268 841 266 840 Q238 837 232 821.5 Q226 806 228 804 L228 620 L160 620 Q135 622 131.5 639.5 Q128 657 130 660 ZM454 -83 Q479 -95 499.5 -85 Q520 -75 522 -73 Q559 -37 579.5 25 Q600 87 608.5 153.5 Q617 220 618.5 266 Q620 312 620 314 L620 696 Q622 720 638.5 725.5 Q655 731 658 730 L746 730 Q770 727 775.5 710.5 Q781 694 780 692 L780 -13 Q781 -63 813 -74 Q845 -85 850 -83 L914 -83 Q972 -81 983 -47.5 Q994 -14 992 -9 L992 118 Q987 143 972 149 Q957 155 956 154 Q931 151 925.5 135.5 Q920 120 922 118 L922 16 Q920 -1 906 -5 Q892 -9 890 -9 Q864 -4 858 5 Q852 14 854 16 L854 710 Q849 774 816.5 788 Q784 802 780 800 L628 800 Q569 795 558 760.5 Q547 726 550 722 L550 322 Q545 112 504 41 Q463 -30 458 -25 Q438 -49 444.5 -65.5 Q451 -82 454 -83 Z" /><glyph glyph-name="uni51F0" unicode="&#x51f0;" d="M40 -61 Q63 -70 78 -58.5 Q93 -47 94 -45 Q150 65 165.5 188 Q181 311 180 322 L180 664 Q181 708 210 717.5 Q239 727 244 726 L452 726 Q442 704 433 682.5 Q424 661 424 660 L322 660 Q263 658 253.5 624.5 Q244 591 248 586 L248 436 Q252 385 282.5 372.5 Q313 360 318 362 L662 362 Q719 366 733.5 394.5 Q748 423 746 428 L746 590 Q741 640 706 651 Q671 662 666 660 L518 660 Q527 693 530 702 Q529 720 522 726 L764 726 Q789 725 795 698.5 Q801 672 800 668 Q802 663 804 664 Q804 634 804 599.5 Q804 565 804 562 Q818 184 844.5 64.5 Q871 -55 874 -45 Q914 -86 942 -72 Q970 -58 972 -53 Q986 22 988 32 Q995 115 996 126 Q991 143 978 148.5 Q965 154 964 154 Q948 152 944.5 139.5 Q941 127 942 126 Q938 55 936 36 Q934 17 934 20 Q917 49 905.5 152.5 Q894 256 887 379 Q880 502 876.5 592.5 Q873 683 874 688 Q866 764 829.5 780.5 Q793 797 788 794 L204 794 Q131 793 118.5 740.5 Q106 688 110 680 L110 334 Q99 210 65.5 105.5 Q32 1 28 -5 Q18 -32 27.5 -46 Q37 -60 40 -61 ZM314 566 Q311 591 330.5 597 Q350 603 354 602 L648 602 Q666 597 672 582 Q678 567 678 566 L678 546 L314 546 L314 566 ZM322 452 L322 484 L682 484 L682 460 Q677 431 661.5 424.5 Q646 418 644 420 L346 420 Q328 422 324.5 436 Q321 450 322 452 ZM224 126 Q226 104 240.5 99.5 Q255 95 258 96 L458 96 L458 14 L192 14 Q169 9 164 -1 Q159 -11 160 -13 Q164 -39 177 -46 Q190 -53 192 -53 L792 -53 Q812 -48 818 -33 Q824 -18 824 -17 Q819 2 806 8 Q793 14 792 14 L534 14 L534 96 L738 96 Q759 97 765.5 110.5 Q772 124 772 126 Q767 146 753 152 Q739 158 738 158 L534 158 L534 240 L756 240 Q790 265 775 285.5 Q760 306 756 308 L252 308 Q226 303 220 288 Q214 273 216 272 Q218 249 233.5 244 Q249 239 252 240 L454 240 L454 158 L258 158 Q233 153 227.5 140 Q222 127 224 126 Z" /><glyph glyph-name="uni51FA" unicode="&#x51fa;" d="M94 750 L94 492 Q99 430 138.5 416.5 Q178 403 184 406 L466 406 L466 14 L188 14 Q167 15 163 28.5 Q159 42 160 44 L160 280 Q156 310 138 318.5 Q120 327 118 326 Q86 320 79 301 Q72 282 74 280 L74 10 Q78 -41 111.5 -53.5 Q145 -66 150 -65 L850 -65 Q923 -59 939 -22.5 Q955 14 952 20 L952 280 Q946 304 929 309.5 Q912 315 910 314 Q881 311 874.5 296.5 Q868 282 870 280 L870 36 Q854 8 844 14 L550 14 L550 406 L836 406 Q900 411 916 446.5 Q932 482 930 488 L930 738 Q924 763 906 769 Q888 775 886 774 Q857 771 850.5 755.5 Q844 740 846 738 L846 518 Q843 499 832 493 Q821 487 820 488 L550 488 L550 798 Q515 838 491 820.5 Q467 803 466 798 L466 488 L216 488 Q187 485 182.5 507.5 Q178 530 180 534 L180 750 Q144 793 119.5 774.5 Q95 756 94 750 Z" /><glyph glyph-name="uni51FB" unicode="&#x51fb;" d="M90 652 Q95 623 113 616.5 Q131 610 134 612 L474 612 L474 460 L70 460 Q42 454 34.5 438 Q27 422 28 420 Q33 392 50 386 Q67 380 70 382 L474 382 L474 2 L232 2 Q209 3 205.5 14.5 Q202 26 204 28 L204 292 Q198 316 180 323 Q162 330 160 330 Q132 325 126 309.5 Q120 294 122 292 L122 10 Q125 -55 171 -69 Q217 -83 224 -81 L824 -81 Q885 -81 895 -39 Q905 3 902 10 L902 288 Q896 318 878 326.5 Q860 335 858 334 Q830 328 824 309 Q818 290 820 288 L820 32 Q817 10 799.5 5.5 Q782 1 780 2 L556 2 L556 382 L952 382 Q978 384 985 400.5 Q992 417 992 420 Q986 446 970 453 Q954 460 952 460 L556 460 L556 612 L894 612 Q920 614 927 631.5 Q934 649 934 652 Q928 678 910 685 Q892 692 890 692 L556 692 L556 798 Q550 825 533 832.5 Q516 840 514 840 Q485 834 478.5 818 Q472 802 474 800 L474 692 L138 692 Q106 686 97 670 Q88 654 90 652 Z" /><glyph glyph-name="uni5206" unicode="&#x5206;" d="M48 366 Q66 344 85 349.5 Q104 355 106 358 Q179 402 236.5 469.5 Q294 537 334 604.5 Q374 672 394.5 718 Q415 764 416 766 Q425 797 410 810.5 Q395 824 392 824 Q363 832 350 816.5 Q337 801 338 798 Q258 604 163 513.5 Q68 423 60 424 Q35 405 40 386 Q45 367 48 366 ZM126 -1 Q92 -17 91.5 -36 Q91 -55 94 -57 Q114 -80 137.5 -77.5 Q161 -75 164 -73 Q289 -13 339 34 Q389 81 388 84 Q432 157 451 271.5 Q470 386 470 398 L686 398 Q723 391 733 368 Q743 345 742 342 Q731 117 726 114 Q708 11 702 20 Q688 0 650.5 -3.5 Q613 -7 569.5 -1.5 Q526 4 494.5 11.5 Q463 19 462 20 Q431 24 419 15.5 Q407 7 408 6 Q401 -23 417 -37.5 Q433 -52 436 -53 Q606 -98 681.5 -73 Q757 -48 756 -41 Q782 -11 796 55.5 Q810 122 814.5 197 Q819 272 819.5 325.5 Q820 379 820 382 Q805 446 762 462 Q719 478 714 476 L270 476 Q242 470 236 452 Q230 434 232 432 Q237 407 254 401.5 Q271 396 274 398 L388 398 Q383 273 343.5 194 Q304 115 253.5 72.5 Q203 30 165 14.5 Q127 -1 126 -1 ZM670 800 Q651 830 630 832 Q609 834 608 832 Q583 815 586 793.5 Q589 772 592 770 Q709 537 817.5 441.5 Q926 346 934 350 Q957 334 972 344.5 Q987 355 988 358 Q997 385 985.5 402 Q974 419 972 420 Q899 464 843 527 Q787 590 748.5 652 Q710 714 690 756 Q670 798 670 800 Z" /><glyph glyph-name="uni5207" unicode="&#x5207;" d="M32 510 Q40 486 57.5 484 Q75 482 78 484 L160 496 L160 182 Q166 111 218 111.5 Q270 112 278 118 Q351 143 410.5 187 Q470 231 474 236 Q495 263 489.5 281 Q484 299 482 300 Q458 314 437.5 306 Q417 298 416 296 Q361 251 318.5 228.5 Q276 206 274 206 Q247 193 248 198 Q240 214 244 224 L244 510 L452 546 Q479 551 483 569 Q487 587 486 590 Q477 614 459.5 619.5 Q442 625 440 624 L244 590 L244 786 Q238 810 220 815.5 Q202 821 200 820 Q171 817 164.5 802.5 Q158 788 160 786 L160 578 L62 562 Q37 550 33.5 531 Q30 512 32 510 ZM550 202 Q477 89 395.5 52.5 Q314 16 308 20 Q273 14 265.5 -5 Q258 -24 260 -27 Q271 -55 296 -59.5 Q321 -64 324 -63 Q464 -22 537.5 53.5 Q611 129 612 138 Q649 195 669.5 285 Q690 375 698.5 467 Q707 559 708.5 622 Q710 685 710 688 L844 688 Q868 682 875 662 Q882 642 882 640 L882 488 Q878 236 856.5 145 Q835 54 832 60 Q788 0 714 7 Q640 14 632 20 Q602 23 588.5 12 Q575 1 576 -1 Q572 -27 588.5 -40 Q605 -53 608 -53 Q764 -90 824 -51.5 Q884 -13 882 -5 Q909 35 924.5 114.5 Q940 194 946.5 280.5 Q953 367 954.5 428 Q956 489 956 492 L956 664 Q950 742 910.5 757.5 Q871 773 866 770 L466 770 Q438 764 430.5 746 Q423 728 424 726 Q426 698 442.5 692 Q459 686 462 688 L624 688 Q632 427 594 313 Q556 199 550 202 Z" /><glyph glyph-name="uni5217" unicode="&#x5217;" d="M62 346 Q41 320 45 300.5 Q49 281 52 280 Q70 261 89 269 Q108 277 110 280 Q224 372 266 522 L482 522 Q510 519 512.5 498.5 Q515 478 514 476 Q490 341 460 280 Q430 219 428 220 Q380 275 338 317.5 Q296 360 284 372 Q267 386 247 383 Q227 380 220 368 Q207 332 230 308 Q294 253 334 203 Q374 153 376 150 Q288 74 191 44 Q94 14 86 16 Q56 9 53 -8.5 Q50 -26 52 -29 Q61 -57 82 -59.5 Q103 -62 106 -61 Q203 -37 286.5 2.5 Q370 42 424 84 Q492 141 540.5 259 Q589 377 592 484 Q597 570 556.5 587.5 Q516 605 510 602 L282 602 Q285 639 287 677 Q289 715 290 718 L604 718 Q627 720 633.5 735.5 Q640 751 640 754 Q635 780 620 787 Q605 794 604 794 L98 794 Q74 788 67.5 772 Q61 756 62 754 Q66 728 81 722 Q96 716 98 718 L212 718 Q200 525 135.5 435 Q71 345 62 346 ZM738 14 Q705 16 691 6.5 Q677 -3 678 -5 Q674 -32 690.5 -46 Q707 -60 710 -61 Q802 -84 852 -71.5 Q902 -59 922 -31 Q942 -3 945.5 21.5 Q949 46 948 48 L948 770 Q943 791 927.5 795.5 Q912 800 910 800 Q884 796 878 783.5 Q872 771 874 770 L874 60 Q868 1 807 4.5 Q746 8 738 14 ZM702 114 Q728 119 735 137 Q742 155 742 158 L742 738 Q736 761 720 767.5 Q704 774 702 774 Q673 769 666.5 754 Q660 739 662 738 L662 158 Q664 129 681.5 121 Q699 113 702 114 Z" /><glyph glyph-name="uni5219" unicode="&#x5219;" d="M706 2 Q673 2 663 -12 Q653 -26 654 -29 Q653 -61 670 -71 Q687 -81 690 -81 Q782 -95 832.5 -85 Q883 -75 904.5 -54.5 Q926 -34 930.5 -17 Q935 0 934 2 L934 786 Q928 813 912 820.5 Q896 828 894 828 Q865 822 858.5 805 Q852 788 854 786 L854 28 Q852 -5 784 -2.5 Q716 0 706 2 ZM160 198 L160 684 Q161 700 173.5 705 Q186 710 188 710 L420 710 Q440 708 444 696.5 Q448 685 448 684 L448 202 Q450 173 464.5 166.5 Q479 160 482 162 Q508 164 515 181.5 Q522 199 522 202 L522 726 Q518 769 491.5 778 Q465 787 462 786 L142 786 Q99 782 91 757.5 Q83 733 86 730 L86 198 Q88 166 103.5 157 Q119 148 122 150 Q148 155 154.5 175 Q161 195 160 198 ZM678 150 Q704 153 711 174 Q718 195 718 198 L718 730 Q712 753 696 759.5 Q680 766 678 766 Q653 761 647.5 746 Q642 731 644 730 L644 198 Q646 163 660.5 155.5 Q675 148 678 150 ZM56 -25 Q34 -47 36 -64.5 Q38 -82 40 -83 Q56 -101 76 -95 Q96 -89 98 -87 Q185 -22 234.5 55.5 Q284 133 306 205.5 Q328 278 333 325 Q338 372 338 374 L338 624 Q332 647 316 653.5 Q300 660 298 660 Q272 655 266 640 Q260 625 262 624 L262 374 Q263 283 233 210 Q203 137 161.5 84 Q120 31 88.5 3.5 Q57 -24 56 -25 ZM556 -53 Q572 -33 567 -16.5 Q562 0 560 2 Q499 78 452.5 117.5 Q406 157 404 158 Q382 168 368 160 Q354 152 354 150 Q343 128 350.5 116 Q358 104 360 104 Q497 -38 502 -49 Q521 -67 537.5 -61 Q554 -55 556 -53 Z" /><glyph glyph-name="uni521B" unicode="&#x521b;" d="M600 60 Q597 86 581.5 93 Q566 100 564 100 Q542 98 535.5 84 Q529 70 530 68 Q521 25 497 12.5 Q473 0 470 2 L266 2 Q230 2 225.5 17.5 Q221 33 224 36 L224 390 Q225 411 237.5 415.5 Q250 420 252 420 L452 420 Q462 418 466 406.5 Q470 395 470 394 L470 276 Q465 215 411 211 Q357 207 350 212 Q321 209 313 194.5 Q305 180 306 178 Q308 151 325.5 144 Q343 137 346 138 Q487 129 521 185.5 Q555 242 550 252 L550 436 Q545 479 515.5 488 Q486 497 482 496 L208 496 Q166 488 157 456 Q148 424 150 420 L150 10 Q155 -41 192.5 -55.5 Q230 -70 236 -69 L490 -69 Q563 -63 582.5 -6 Q602 51 600 60 ZM94 448 Q191 506 257 594 Q323 682 326 692 Q359 744 356 734 Q427 687 498.5 603 Q570 519 576 510 Q598 484 618 488.5 Q638 493 640 496 Q657 514 651.5 536.5 Q646 559 644 562 Q571 651 492.5 723 Q414 795 408 800 Q349 839 323 819.5 Q297 800 298 794 Q210 642 137 575 Q64 508 60 510 Q32 494 32.5 475.5 Q33 457 36 456 Q52 437 72 441 Q92 445 94 448 ZM730 -9 Q700 -5 688.5 -17.5 Q677 -30 678 -33 Q677 -62 694 -72.5 Q711 -83 714 -83 Q802 -99 847 -89.5 Q892 -80 908.5 -58 Q925 -36 926 -18 Q927 0 926 2 L926 786 Q920 816 904 822.5 Q888 829 886 828 Q860 822 854 803 Q848 784 850 782 L850 14 Q855 -20 797 -16 Q739 -12 730 -9 ZM706 112 Q732 116 739 135.5 Q746 155 746 158 L746 700 Q740 730 724 738.5 Q708 747 706 746 Q680 740 674 721 Q668 702 670 700 L670 158 Q672 126 687.5 118 Q703 110 706 112 Z" /><glyph glyph-name="uni521D" unicode="&#x521d;" d="M564 220 Q526 130 445.5 69 Q365 8 356 6 Q329 -13 330 -34 Q331 -55 334 -57 Q352 -83 373 -81 Q394 -79 396 -77 Q539 18 589 93.5 Q639 169 636 174 Q654 216 665 298 Q676 380 681.5 468.5 Q687 557 688.5 619 Q690 681 690 684 L846 684 Q869 679 875.5 664 Q882 649 882 648 L882 146 Q878 79 845.5 50 Q813 21 770 15.5 Q727 10 695 14 Q663 18 662 20 Q636 23 625.5 12 Q615 1 616 -1 Q615 -27 631 -38 Q647 -49 650 -49 Q762 -68 825 -45.5 Q888 -23 916 17 Q944 57 950.5 90 Q957 123 956 126 L956 688 Q948 741 913 754.5 Q878 768 874 766 L466 766 Q435 760 428.5 740 Q422 720 424 718 Q432 693 453.5 687.5 Q475 682 478 684 L612 684 Q611 438 589 328 Q567 218 564 220 ZM172 820 Q151 803 154 787 Q157 771 160 770 Q163 756 171 741.5 Q179 727 180 726 Q213 666 216 664 Q225 639 228 644 L82 644 Q54 638 48 622 Q42 606 44 604 Q46 576 62.5 570 Q79 564 82 566 L290 566 Q312 559 310 558 Q311 542 306 538 Q212 404 132.5 326.5 Q53 249 48 248 Q26 226 29.5 208.5 Q33 191 36 190 Q55 168 73.5 173.5 Q92 179 94 182 Q143 224 174.5 258.5 Q206 293 208 296 L208 -61 Q210 -82 225.5 -88.5 Q241 -95 244 -95 Q271 -93 278.5 -79.5 Q286 -66 286 -65 L286 382 Q339 443 369 496.5 Q399 550 400 554 Q423 616 392.5 631 Q362 646 356 644 L298 644 Q300 654 297 668 Q294 682 294 684 Q254 761 240.5 785.5 Q227 810 228 808 Q208 827 190.5 824 Q173 821 172 820 ZM408 366 Q449 397 476.5 425.5 Q504 454 506 456 Q518 477 511 493 Q504 509 502 510 Q480 522 466 515 Q452 508 452 506 Q443 496 440 496 Q361 406 360 412 Q339 394 343 378.5 Q347 363 350 362 Q370 349 388 356 Q406 363 408 366 ZM518 190 Q530 210 521 226.5 Q512 243 510 244 Q448 289 396.5 317 Q345 345 342 346 Q318 352 306 340 Q294 328 294 326 Q284 303 295.5 293 Q307 283 310 284 Q381 243 423 215 Q465 187 466 186 Q487 170 502 178.5 Q517 187 518 190 Z" /></font>
</defs>
</svg>
